<?xml version="1.0" encoding="utf-8" standalone="no"?>
<!DOCTYPE svg PUBLIC "-//W3C//DTD SVG 1.1//EN"
  "http://www.w3.org/Graphics/SVG/1.1/DTD/svg11.dtd">
<!-- Created with matplotlib (https://matplotlib.org/) -->
<svg height="504pt" version="1.1" viewBox="0 0 504 504" width="504pt" xmlns="http://www.w3.org/2000/svg" xmlns:xlink="http://www.w3.org/1999/xlink">
 <defs>
  <style type="text/css">
*{stroke-linecap:butt;stroke-linejoin:round;}
  </style>
 </defs>
 <g id="figure_1">
  <g id="patch_1">
   <path d="M 0 504 
L 504 504 
L 504 0 
L 0 0 
z
" style="fill:#ffffff;"/>
  </g>
  <g id="axes_1">
   <g id="patch_2">
    <path d="M 63 441 
L 453.6 441 
L 453.6 60.48 
L 63 60.48 
z
" style="fill:#ffffff;"/>
   </g>
   <g id="PolyCollection_1">
    <defs>
     <path d="M 81.464727 -80.342202 
L 81.464727 -80.342202 
L 82.174909 -84.095095 
L 82.885091 -87.532564 
L 83.595273 -90.757047 
L 84.305455 -93.82812 
L 85.015636 -96.784366 
L 85.725818 -99.65184 
L 86.436 -102.448456 
L 87.146182 -105.186605 
L 87.856364 -107.874848 
L 88.566545 -110.519058 
L 89.276727 -113.12321 
L 89.986909 -115.689947 
L 90.697091 -118.22098 
L 91.407273 -120.717374 
L 92.117455 -123.179759 
L 92.827636 -125.608477 
L 93.537818 -128.003691 
L 94.248 -130.365459 
L 94.958182 -132.693794 
L 95.668364 -134.988692 
L 96.378545 -137.250164 
L 97.088727 -139.478253 
L 97.798909 -141.673037 
L 98.509091 -143.834643 
L 99.219273 -145.963244 
L 99.929455 -148.059058 
L 100.639636 -150.122352 
L 101.349818 -152.153434 
L 102.06 -154.152651 
L 102.770182 -156.120386 
L 103.480364 -158.057056 
L 104.190545 -159.963104 
L 104.900727 -161.838999 
L 105.610909 -163.685229 
L 106.321091 -165.502303 
L 107.031273 -167.290742 
L 107.741455 -169.05108 
L 108.451636 -170.78386 
L 109.161818 -172.489633 
L 109.872 -174.168953 
L 110.582182 -175.822379 
L 111.292364 -177.45047 
L 112.002545 -179.053787 
L 112.712727 -180.632886 
L 113.422909 -182.188324 
L 114.133091 -183.720653 
L 114.843273 -185.230421 
L 115.553455 -186.718172 
L 116.263636 -188.184442 
L 116.973818 -189.629763 
L 117.684 -191.05466 
L 118.394182 -192.459651 
L 119.104364 -193.845246 
L 119.814545 -195.211948 
L 120.524727 -196.560254 
L 121.234909 -197.89065 
L 121.945091 -199.203618 
L 122.655273 -200.49963 
L 123.365455 -201.779148 
L 124.075636 -203.042632 
L 124.785818 -204.290527 
L 125.496 -205.523277 
L 126.206182 -206.741313 
L 126.916364 -207.945061 
L 127.626545 -209.13494 
L 128.336727 -210.31136 
L 129.046909 -211.474724 
L 129.757091 -212.625429 
L 130.467273 -213.763865 
L 131.177455 -214.890414 
L 131.887636 -216.005454 
L 132.597818 -217.109353 
L 133.308 -218.202478 
L 134.018182 -219.285185 
L 134.728364 -220.357828 
L 135.438545 -221.420756 
L 136.148727 -222.47431 
L 136.858909 -223.51883 
L 137.569091 -224.554648 
L 138.279273 -225.582096 
L 138.989455 -226.601501 
L 139.699636 -227.613186 
L 140.409818 -228.617472 
L 141.12 -229.614678 
L 141.830182 -230.605123 
L 142.540364 -231.589124 
L 143.250545 -232.566997 
L 143.960727 -233.539059 
L 144.670909 -234.505631 
L 145.381091 -235.467033 
L 146.091273 -236.423591 
L 146.801455 -237.375635 
L 147.511636 -238.323501 
L 148.221818 -239.267535 
L 148.932 -240.20809 
L 149.642182 -241.145533 
L 150.352364 -242.080246 
L 151.062545 -243.012629 
L 151.772727 -243.943104 
L 152.482909 -244.872119 
L 153.193091 -245.800155 
L 153.903273 -246.727733 
L 154.613455 -247.655419 
L 155.323636 -248.583841 
L 156.033818 -249.513699 
L 156.744 -250.445785 
L 157.454182 -251.381007 
L 158.164364 -252.320421 
L 158.874545 -253.265277 
L 159.584727 -254.217087 
L 160.294909 -255.177712 
L 161.005091 -256.149512 
L 161.715273 -257.135568 
L 162.425455 -258.140058 
L 163.135636 -259.168939 
L 163.845818 -260.231245 
L 164.556 -261.342036 
L 165.266182 -262.530433 
L 165.976364 -263.868221 
L 166.686545 -266.172736 
L 166.686545 -266.172736 
L 166.686545 -266.172736 
L 165.976364 -267.087727 
L 165.266182 -267.026241 
L 164.556 -266.805458 
L 163.845818 -266.497004 
L 163.135636 -266.129835 
L 162.425455 -265.718837 
L 161.715273 -265.272866 
L 161.005091 -264.797689 
L 160.294909 -264.297292 
L 159.584727 -263.774556 
L 158.874545 -263.23163 
L 158.164364 -262.670161 
L 157.454182 -262.091435 
L 156.744 -261.49647 
L 156.033818 -260.886083 
L 155.323636 -260.260933 
L 154.613455 -259.621554 
L 153.903273 -258.96838 
L 153.193091 -258.301763 
L 152.482909 -257.621986 
L 151.772727 -256.929278 
L 151.062545 -256.223814 
L 150.352364 -255.505733 
L 149.642182 -254.775132 
L 148.932 -254.03208 
L 148.221818 -253.276616 
L 147.511636 -252.508754 
L 146.801455 -251.728485 
L 146.091273 -250.935779 
L 145.381091 -250.13059 
L 144.670909 -249.312849 
L 143.960727 -248.482476 
L 143.250545 -247.639374 
L 142.540364 -246.783432 
L 141.830182 -245.914524 
L 141.12 -245.032515 
L 140.409818 -244.137255 
L 139.699636 -243.228583 
L 138.989455 -242.306329 
L 138.279273 -241.370309 
L 137.569091 -240.420332 
L 136.858909 -239.456194 
L 136.148727 -238.477684 
L 135.438545 -237.48458 
L 134.728364 -236.47665 
L 134.018182 -235.453655 
L 133.308 -234.415345 
L 132.597818 -233.361462 
L 131.887636 -232.291739 
L 131.177455 -231.2059 
L 130.467273 -230.103662 
L 129.757091 -228.984731 
L 129.046909 -227.848806 
L 128.336727 -226.695578 
L 127.626545 -225.524728 
L 126.916364 -224.335929 
L 126.206182 -223.128847 
L 125.496 -221.903137 
L 124.785818 -220.658447 
L 124.075636 -219.394417 
L 123.365455 -218.110676 
L 122.655273 -216.806846 
L 121.945091 -215.48254 
L 121.234909 -214.137361 
L 120.524727 -212.770905 
L 119.814545 -211.382755 
L 119.104364 -209.972487 
L 118.394182 -208.539667 
L 117.684 -207.083849 
L 116.973818 -205.604579 
L 116.263636 -204.101389 
L 115.553455 -202.573803 
L 114.843273 -201.02133 
L 114.133091 -199.443467 
L 113.422909 -197.839699 
L 112.712727 -196.209497 
L 112.002545 -194.552314 
L 111.292364 -192.867591 
L 110.582182 -191.154748 
L 109.872 -189.413188 
L 109.161818 -187.642295 
L 108.451636 -185.841429 
L 107.741455 -184.009927 
L 107.031273 -182.147099 
L 106.321091 -180.252226 
L 105.610909 -178.324559 
L 104.900727 -176.363312 
L 104.190545 -174.367659 
L 103.480364 -172.336733 
L 102.770182 -170.269616 
L 102.06 -168.165336 
L 101.349818 -166.02286 
L 100.639636 -163.841085 
L 99.929455 -161.61883 
L 99.219273 -159.354825 
L 98.509091 -157.047696 
L 97.798909 -154.695956 
L 97.088727 -152.297981 
L 96.378545 -149.851993 
L 95.668364 -147.356035 
L 94.958182 -144.80794 
L 94.248 -142.2053 
L 93.537818 -139.545419 
L 92.827636 -136.825269 
L 92.117455 -134.04143 
L 91.407273 -131.190023 
L 90.697091 -128.26663 
L 89.986909 -125.266208 
L 89.276727 -122.182984 
L 88.566545 -119.01035 
L 87.856364 -115.740754 
L 87.146182 -112.365596 
L 86.436 -108.875163 
L 85.725818 -105.258631 
L 85.015636 -101.504224 
L 84.305455 -97.599669 
L 83.595273 -93.533291 
L 82.885091 -89.296498 
L 82.174909 -84.889887 
L 81.464727 -80.342202 
z
" id="m009ccfc457" style="stroke:#008000;stroke-opacity:0.4;"/>
    </defs>
    <g clip-path="url(#pa63ef2ac03)">
     <use style="fill:#008000;fill-opacity:0.4;stroke:#008000;stroke-opacity:0.4;" x="0" xlink:href="#m009ccfc457" y="504"/>
    </g>
   </g>
   <g id="PolyCollection_2">
    <defs>
     <path d="M 81.464727 -426.223636 
L 81.464727 -304.128986 
L 82.174909 -304.128986 
L 82.885091 -304.128986 
L 83.595273 -304.128986 
L 84.305455 -304.128986 
L 85.015636 -304.128986 
L 85.725818 -304.128986 
L 86.436 -304.128986 
L 87.146182 -304.128986 
L 87.856364 -304.128986 
L 88.566545 -304.128986 
L 89.276727 -304.128986 
L 89.986909 -304.128986 
L 90.697091 -304.128986 
L 91.407273 -304.128986 
L 92.117455 -304.128986 
L 92.827636 -304.128986 
L 93.537818 -304.128986 
L 94.248 -304.128986 
L 94.958182 -304.128986 
L 95.668364 -304.128986 
L 96.378545 -304.128986 
L 97.088727 -304.128986 
L 97.798909 -304.128986 
L 98.509091 -304.128986 
L 99.219273 -304.128986 
L 99.929455 -304.128986 
L 100.639636 -304.128986 
L 101.349818 -304.128986 
L 102.06 -304.128986 
L 102.770182 -304.128986 
L 103.480364 -304.128986 
L 104.190545 -304.128986 
L 104.900727 -304.128986 
L 105.610909 -304.128986 
L 106.321091 -304.128986 
L 107.031273 -304.128986 
L 107.741455 -304.128986 
L 108.451636 -304.128986 
L 109.161818 -304.128986 
L 109.872 -304.128986 
L 110.582182 -304.128986 
L 111.292364 -304.128986 
L 112.002545 -304.128986 
L 112.712727 -304.128986 
L 113.422909 -304.128986 
L 114.133091 -304.128986 
L 114.843273 -304.128986 
L 115.553455 -304.128986 
L 116.263636 -304.128986 
L 116.973818 -304.128986 
L 117.684 -304.128986 
L 118.394182 -304.128986 
L 119.104364 -304.128986 
L 119.814545 -304.128986 
L 120.524727 -304.128986 
L 121.234909 -304.128986 
L 121.945091 -304.128986 
L 122.655273 -304.128986 
L 123.365455 -304.128986 
L 124.075636 -304.128986 
L 124.785818 -304.128986 
L 125.496 -304.128986 
L 126.206182 -304.128986 
L 126.916364 -304.128986 
L 127.626545 -304.128986 
L 128.336727 -304.128986 
L 129.046909 -304.128986 
L 129.757091 -304.128986 
L 130.467273 -304.128986 
L 131.177455 -304.128986 
L 131.887636 -304.128986 
L 132.597818 -304.128986 
L 133.308 -304.128986 
L 134.018182 -304.128986 
L 134.728364 -304.128986 
L 135.438545 -304.128986 
L 136.148727 -304.128986 
L 136.858909 -304.128986 
L 137.569091 -304.128986 
L 138.279273 -304.128986 
L 138.989455 -304.128986 
L 139.699636 -304.128986 
L 140.409818 -304.128986 
L 141.12 -304.128986 
L 141.830182 -304.128986 
L 142.540364 -304.128986 
L 143.250545 -304.128986 
L 143.960727 -304.128986 
L 144.670909 -304.128986 
L 145.381091 -304.128986 
L 146.091273 -304.128986 
L 146.801455 -304.128986 
L 147.511636 -304.128986 
L 148.221818 -304.128986 
L 148.932 -304.128986 
L 149.642182 -304.128986 
L 150.352364 -304.128986 
L 151.062545 -304.128986 
L 151.772727 -304.128986 
L 152.482909 -304.128986 
L 153.193091 -304.128986 
L 153.903273 -304.128986 
L 154.613455 -304.128986 
L 155.323636 -304.128986 
L 156.033818 -304.128986 
L 156.744 -304.128986 
L 157.454182 -304.128986 
L 158.164364 -304.128986 
L 158.874545 -304.128986 
L 159.584727 -304.128986 
L 160.294909 -304.128986 
L 161.005091 -304.128986 
L 161.715273 -304.128986 
L 162.425455 -304.128986 
L 163.135636 -304.128986 
L 163.845818 -304.128986 
L 164.556 -304.128986 
L 165.266182 -304.128986 
L 165.976364 -304.128986 
L 166.686545 -304.128986 
L 167.396727 -304.128986 
L 168.106909 -304.128986 
L 168.817091 -304.128986 
L 169.527273 -304.128986 
L 170.237455 -304.128986 
L 170.947636 -304.128986 
L 171.657818 -304.128986 
L 172.368 -304.128986 
L 173.078182 -304.128986 
L 173.788364 -304.128986 
L 174.498545 -304.128986 
L 175.208727 -304.128986 
L 175.918909 -304.128986 
L 176.629091 -304.128986 
L 177.339273 -304.128986 
L 178.049455 -304.128986 
L 178.759636 -304.128986 
L 179.469818 -304.128986 
L 180.18 -304.128986 
L 180.890182 -304.128986 
L 181.600364 -304.128986 
L 182.310545 -304.128986 
L 183.020727 -304.128986 
L 183.730909 -304.128986 
L 184.441091 -304.128986 
L 185.151273 -304.128986 
L 185.861455 -304.128986 
L 186.571636 -304.128986 
L 187.281818 -304.128986 
L 187.992 -304.128986 
L 188.702182 -304.128986 
L 189.412364 -304.128986 
L 190.122545 -304.128986 
L 190.832727 -304.128986 
L 191.542909 -304.128986 
L 192.253091 -304.128986 
L 192.963273 -304.128986 
L 193.673455 -304.128986 
L 194.383636 -304.128986 
L 195.093818 -304.128986 
L 195.804 -304.128986 
L 196.514182 -304.128986 
L 197.224364 -304.128986 
L 197.934545 -304.128986 
L 198.644727 -304.128986 
L 199.354909 -304.128986 
L 200.065091 -304.128986 
L 200.775273 -304.128986 
L 201.485455 -304.128986 
L 202.195636 -304.128986 
L 202.905818 -304.128986 
L 203.616 -304.128986 
L 204.326182 -304.128986 
L 205.036364 -304.128986 
L 205.746545 -304.128986 
L 206.456727 -304.128986 
L 207.166909 -304.128986 
L 207.877091 -304.128986 
L 208.587273 -304.128986 
L 209.297455 -304.128986 
L 210.007636 -304.128986 
L 210.717818 -304.128986 
L 211.428 -304.128986 
L 212.138182 -304.128986 
L 212.848364 -304.128986 
L 213.558545 -304.128986 
L 214.268727 -304.128986 
L 214.978909 -304.128986 
L 215.689091 -304.128986 
L 216.399273 -304.128986 
L 217.109455 -304.128986 
L 217.819636 -304.128986 
L 218.529818 -304.128986 
L 219.24 -304.128986 
L 219.950182 -304.128986 
L 220.660364 -304.128986 
L 221.370545 -304.128986 
L 222.080727 -304.128986 
L 222.790909 -304.128986 
L 223.501091 -304.128986 
L 224.211273 -304.128986 
L 224.921455 -304.128986 
L 225.631636 -304.128986 
L 226.341818 -304.128986 
L 227.052 -304.128986 
L 227.762182 -304.128986 
L 228.472364 -304.128986 
L 229.182545 -304.128986 
L 229.892727 -304.128986 
L 230.602909 -304.128986 
L 231.313091 -304.128986 
L 232.023273 -304.128986 
L 232.733455 -304.128986 
L 233.443636 -304.128986 
L 234.153818 -304.128986 
L 234.864 -304.128986 
L 235.574182 -304.128986 
L 236.284364 -304.128986 
L 236.994545 -304.128986 
L 237.704727 -304.128986 
L 238.414909 -304.128986 
L 239.125091 -304.128986 
L 239.835273 -304.128986 
L 240.545455 -304.128986 
L 241.255636 -304.128986 
L 241.965818 -304.128986 
L 242.676 -304.128986 
L 243.386182 -304.128986 
L 244.096364 -304.128986 
L 244.806545 -304.128986 
L 245.516727 -304.128986 
L 246.226909 -304.128986 
L 246.937091 -304.128986 
L 247.647273 -304.128986 
L 248.357455 -304.128986 
L 249.067636 -304.128986 
L 249.777818 -304.128986 
L 250.488 -304.128986 
L 251.198182 -304.128986 
L 251.908364 -304.128986 
L 252.618545 -304.128986 
L 253.328727 -304.128986 
L 254.038909 -304.128986 
L 254.749091 -304.128986 
L 255.459273 -304.128986 
L 256.169455 -304.128986 
L 256.879636 -304.128986 
L 257.589818 -304.128986 
L 258.3 -304.128986 
L 259.010182 -304.128986 
L 259.720364 -304.128986 
L 260.430545 -304.128986 
L 261.140727 -304.128986 
L 261.850909 -304.128986 
L 262.561091 -304.128986 
L 263.271273 -304.128986 
L 263.981455 -304.128986 
L 264.691636 -304.128986 
L 265.401818 -304.128986 
L 266.112 -304.128986 
L 266.822182 -304.128986 
L 267.532364 -304.128986 
L 268.242545 -304.128986 
L 268.952727 -304.128986 
L 269.662909 -304.128986 
L 270.373091 -304.128986 
L 271.083273 -304.128986 
L 271.793455 -304.128986 
L 272.503636 -304.128986 
L 273.213818 -304.128986 
L 273.924 -304.128986 
L 274.634182 -304.128986 
L 275.344364 -304.128986 
L 276.054545 -304.128986 
L 276.764727 -304.128986 
L 277.474909 -304.128986 
L 278.185091 -304.128986 
L 278.895273 -304.128986 
L 279.605455 -304.128986 
L 280.315636 -304.128986 
L 281.025818 -304.128986 
L 281.736 -304.128986 
L 282.446182 -304.128986 
L 283.156364 -304.128986 
L 283.866545 -304.128986 
L 284.576727 -304.128986 
L 285.286909 -304.128986 
L 285.997091 -304.128986 
L 286.707273 -304.128986 
L 287.417455 -304.128986 
L 288.127636 -304.128986 
L 288.837818 -304.128986 
L 289.548 -304.128986 
L 290.258182 -304.128986 
L 290.968364 -304.128986 
L 291.678545 -304.128986 
L 292.388727 -304.128986 
L 293.098909 -304.128986 
L 293.809091 -304.128986 
L 294.519273 -304.128986 
L 295.229455 -304.128986 
L 295.939636 -304.128986 
L 296.649818 -304.128986 
L 297.36 -304.128986 
L 298.070182 -304.128986 
L 298.780364 -304.128986 
L 299.490545 -304.128986 
L 300.200727 -304.128986 
L 300.910909 -304.128986 
L 301.621091 -304.128986 
L 302.331273 -304.128986 
L 303.041455 -304.128986 
L 303.751636 -304.128986 
L 304.461818 -304.128986 
L 305.172 -304.128986 
L 305.882182 -304.128986 
L 306.592364 -304.128986 
L 307.302545 -304.128986 
L 308.012727 -304.128986 
L 308.722909 -304.128986 
L 309.433091 -304.128986 
L 310.143273 -304.128986 
L 310.853455 -304.128986 
L 311.563636 -304.128986 
L 312.273818 -304.128986 
L 312.984 -304.128986 
L 313.694182 -304.128986 
L 314.404364 -304.128986 
L 315.114545 -304.128986 
L 315.824727 -304.128986 
L 316.534909 -304.128986 
L 317.245091 -304.128986 
L 317.955273 -304.128986 
L 318.665455 -304.128986 
L 319.375636 -304.128986 
L 320.085818 -304.128986 
L 320.796 -304.128986 
L 321.506182 -304.128986 
L 322.216364 -304.128986 
L 322.926545 -304.128986 
L 323.636727 -304.128986 
L 324.346909 -304.128986 
L 325.057091 -304.128986 
L 325.767273 -304.128986 
L 326.477455 -304.128986 
L 327.187636 -304.128986 
L 327.897818 -304.128986 
L 328.608 -304.128986 
L 329.318182 -304.128986 
L 330.028364 -304.128986 
L 330.738545 -304.128986 
L 331.448727 -304.128986 
L 332.158909 -304.128986 
L 332.869091 -304.128986 
L 333.579273 -304.128986 
L 334.289455 -304.128986 
L 334.999636 -304.128986 
L 335.709818 -304.128986 
L 336.42 -304.128986 
L 337.130182 -304.128986 
L 337.840364 -304.128986 
L 338.550545 -304.128986 
L 339.260727 -304.128986 
L 339.970909 -304.128986 
L 340.681091 -304.128986 
L 341.391273 -304.128986 
L 342.101455 -304.128986 
L 342.811636 -304.128986 
L 343.521818 -304.128986 
L 344.232 -304.128986 
L 344.942182 -304.128986 
L 345.652364 -304.128986 
L 346.362545 -304.128986 
L 347.072727 -304.128986 
L 347.782909 -304.128986 
L 348.493091 -304.128986 
L 349.203273 -304.128986 
L 349.913455 -304.128986 
L 350.623636 -304.128986 
L 351.333818 -304.128986 
L 352.044 -304.128986 
L 352.754182 -304.128986 
L 353.464364 -304.128986 
L 354.174545 -304.128986 
L 354.884727 -304.128986 
L 355.594909 -304.128986 
L 356.305091 -304.128986 
L 357.015273 -304.128986 
L 357.725455 -304.128986 
L 358.435636 -304.128986 
L 359.145818 -304.128986 
L 359.856 -304.128986 
L 360.566182 -304.128986 
L 361.276364 -304.128986 
L 361.986545 -304.128986 
L 362.696727 -304.128986 
L 363.406909 -304.128986 
L 364.117091 -304.128986 
L 364.827273 -304.128986 
L 365.537455 -304.128986 
L 366.247636 -304.128986 
L 366.957818 -304.128986 
L 367.668 -304.128986 
L 368.378182 -304.128986 
L 369.088364 -304.128986 
L 369.798545 -304.128986 
L 370.508727 -304.128986 
L 371.218909 -304.128986 
L 371.929091 -304.128986 
L 372.639273 -304.128986 
L 373.349455 -304.128986 
L 374.059636 -304.128986 
L 374.769818 -304.128986 
L 375.48 -304.128986 
L 376.190182 -304.128986 
L 376.900364 -304.128986 
L 377.610545 -304.128986 
L 378.320727 -304.128986 
L 379.030909 -304.128986 
L 379.741091 -304.128986 
L 380.451273 -304.128986 
L 381.161455 -304.128986 
L 381.871636 -304.128986 
L 382.581818 -304.128986 
L 383.292 -304.128986 
L 384.002182 -304.128986 
L 384.712364 -304.128986 
L 385.422545 -304.128986 
L 386.132727 -304.128986 
L 386.842909 -304.128986 
L 387.553091 -304.128986 
L 388.263273 -304.128986 
L 388.973455 -304.128986 
L 389.683636 -304.128986 
L 390.393818 -304.128986 
L 391.104 -304.128986 
L 391.814182 -304.128986 
L 392.524364 -304.128986 
L 393.234545 -304.128986 
L 393.944727 -304.128986 
L 394.654909 -304.128986 
L 395.365091 -304.128986 
L 396.075273 -304.128986 
L 396.785455 -304.128986 
L 397.495636 -304.128986 
L 398.205818 -304.128986 
L 398.916 -304.128986 
L 399.626182 -304.128986 
L 400.336364 -304.128986 
L 401.046545 -304.128986 
L 401.756727 -304.128986 
L 402.466909 -304.128986 
L 403.177091 -304.128986 
L 403.887273 -304.128986 
L 404.597455 -304.128986 
L 405.307636 -304.128986 
L 406.017818 -304.128986 
L 406.728 -304.128986 
L 407.438182 -304.128986 
L 408.148364 -304.128986 
L 408.858545 -304.128986 
L 409.568727 -304.128986 
L 410.278909 -304.128986 
L 410.989091 -304.128986 
L 411.699273 -304.128986 
L 412.409455 -304.128986 
L 413.119636 -304.128986 
L 413.829818 -304.128986 
L 414.54 -304.128986 
L 415.250182 -304.128986 
L 415.960364 -304.128986 
L 416.670545 -304.128986 
L 417.380727 -304.128986 
L 418.090909 -304.128986 
L 418.801091 -304.128986 
L 419.511273 -304.128986 
L 420.221455 -304.128986 
L 420.931636 -304.128986 
L 421.641818 -304.128986 
L 422.352 -304.128986 
L 423.062182 -304.128986 
L 423.772364 -304.128986 
L 424.482545 -304.128986 
L 425.192727 -304.128986 
L 425.902909 -304.128986 
L 426.613091 -304.128986 
L 427.323273 -304.128986 
L 428.033455 -304.128986 
L 428.743636 -304.128986 
L 429.453818 -304.128986 
L 430.164 -304.128986 
L 430.874182 -304.128986 
L 431.584364 -304.128986 
L 432.294545 -304.128986 
L 433.004727 -304.128986 
L 433.714909 -304.128986 
L 434.425091 -304.128986 
L 435.135273 -304.128986 
L 435.845455 -304.128986 
L 435.845455 -426.223636 
L 435.845455 -426.223636 
L 435.135273 -426.223636 
L 434.425091 -426.223636 
L 433.714909 -426.223636 
L 433.004727 -426.223636 
L 432.294545 -426.223636 
L 431.584364 -426.223636 
L 430.874182 -426.223636 
L 430.164 -426.223636 
L 429.453818 -426.223636 
L 428.743636 -426.223636 
L 428.033455 -426.223636 
L 427.323273 -426.223636 
L 426.613091 -426.223636 
L 425.902909 -426.223636 
L 425.192727 -426.223636 
L 424.482545 -426.223636 
L 423.772364 -426.223636 
L 423.062182 -426.223636 
L 422.352 -426.223636 
L 421.641818 -426.223636 
L 420.931636 -426.223636 
L 420.221455 -426.223636 
L 419.511273 -426.223636 
L 418.801091 -426.223636 
L 418.090909 -426.223636 
L 417.380727 -426.223636 
L 416.670545 -426.223636 
L 415.960364 -426.223636 
L 415.250182 -426.223636 
L 414.54 -426.223636 
L 413.829818 -426.223636 
L 413.119636 -426.223636 
L 412.409455 -426.223636 
L 411.699273 -426.223636 
L 410.989091 -426.223636 
L 410.278909 -426.223636 
L 409.568727 -426.223636 
L 408.858545 -426.223636 
L 408.148364 -426.223636 
L 407.438182 -426.223636 
L 406.728 -426.223636 
L 406.017818 -426.223636 
L 405.307636 -426.223636 
L 404.597455 -426.223636 
L 403.887273 -426.223636 
L 403.177091 -426.223636 
L 402.466909 -426.223636 
L 401.756727 -426.223636 
L 401.046545 -426.223636 
L 400.336364 -426.223636 
L 399.626182 -426.223636 
L 398.916 -426.223636 
L 398.205818 -426.223636 
L 397.495636 -426.223636 
L 396.785455 -426.223636 
L 396.075273 -426.223636 
L 395.365091 -426.223636 
L 394.654909 -426.223636 
L 393.944727 -426.223636 
L 393.234545 -426.223636 
L 392.524364 -426.223636 
L 391.814182 -426.223636 
L 391.104 -426.223636 
L 390.393818 -426.223636 
L 389.683636 -426.223636 
L 388.973455 -426.223636 
L 388.263273 -426.223636 
L 387.553091 -426.223636 
L 386.842909 -426.223636 
L 386.132727 -426.223636 
L 385.422545 -426.223636 
L 384.712364 -426.223636 
L 384.002182 -426.223636 
L 383.292 -426.223636 
L 382.581818 -426.223636 
L 381.871636 -426.223636 
L 381.161455 -426.223636 
L 380.451273 -426.223636 
L 379.741091 -426.223636 
L 379.030909 -426.223636 
L 378.320727 -426.223636 
L 377.610545 -426.223636 
L 376.900364 -426.223636 
L 376.190182 -426.223636 
L 375.48 -426.223636 
L 374.769818 -426.223636 
L 374.059636 -426.223636 
L 373.349455 -426.223636 
L 372.639273 -426.223636 
L 371.929091 -426.223636 
L 371.218909 -426.223636 
L 370.508727 -426.223636 
L 369.798545 -426.223636 
L 369.088364 -426.223636 
L 368.378182 -426.223636 
L 367.668 -426.223636 
L 366.957818 -426.223636 
L 366.247636 -426.223636 
L 365.537455 -426.223636 
L 364.827273 -426.223636 
L 364.117091 -426.223636 
L 363.406909 -426.223636 
L 362.696727 -426.223636 
L 361.986545 -426.223636 
L 361.276364 -426.223636 
L 360.566182 -426.223636 
L 359.856 -426.223636 
L 359.145818 -426.223636 
L 358.435636 -426.223636 
L 357.725455 -426.223636 
L 357.015273 -426.223636 
L 356.305091 -426.223636 
L 355.594909 -426.223636 
L 354.884727 -426.223636 
L 354.174545 -426.223636 
L 353.464364 -426.223636 
L 352.754182 -426.223636 
L 352.044 -426.223636 
L 351.333818 -426.223636 
L 350.623636 -426.223636 
L 349.913455 -426.223636 
L 349.203273 -426.223636 
L 348.493091 -426.223636 
L 347.782909 -426.223636 
L 347.072727 -426.223636 
L 346.362545 -426.223636 
L 345.652364 -426.223636 
L 344.942182 -426.223636 
L 344.232 -426.223636 
L 343.521818 -426.223636 
L 342.811636 -426.223636 
L 342.101455 -426.223636 
L 341.391273 -426.223636 
L 340.681091 -426.223636 
L 339.970909 -426.223636 
L 339.260727 -426.223636 
L 338.550545 -426.223636 
L 337.840364 -426.223636 
L 337.130182 -426.223636 
L 336.42 -426.223636 
L 335.709818 -426.223636 
L 334.999636 -426.223636 
L 334.289455 -426.223636 
L 333.579273 -426.223636 
L 332.869091 -426.223636 
L 332.158909 -426.223636 
L 331.448727 -426.223636 
L 330.738545 -426.223636 
L 330.028364 -426.223636 
L 329.318182 -426.223636 
L 328.608 -426.223636 
L 327.897818 -426.223636 
L 327.187636 -426.223636 
L 326.477455 -426.223636 
L 325.767273 -426.223636 
L 325.057091 -426.223636 
L 324.346909 -426.223636 
L 323.636727 -426.223636 
L 322.926545 -426.223636 
L 322.216364 -426.223636 
L 321.506182 -426.223636 
L 320.796 -426.223636 
L 320.085818 -426.223636 
L 319.375636 -426.223636 
L 318.665455 -426.223636 
L 317.955273 -426.223636 
L 317.245091 -426.223636 
L 316.534909 -426.223636 
L 315.824727 -426.223636 
L 315.114545 -426.223636 
L 314.404364 -426.223636 
L 313.694182 -426.223636 
L 312.984 -426.223636 
L 312.273818 -426.223636 
L 311.563636 -426.223636 
L 310.853455 -426.223636 
L 310.143273 -426.223636 
L 309.433091 -426.223636 
L 308.722909 -426.223636 
L 308.012727 -426.223636 
L 307.302545 -426.223636 
L 306.592364 -426.223636 
L 305.882182 -426.223636 
L 305.172 -426.223636 
L 304.461818 -426.223636 
L 303.751636 -426.223636 
L 303.041455 -426.223636 
L 302.331273 -426.223636 
L 301.621091 -426.223636 
L 300.910909 -426.223636 
L 300.200727 -426.223636 
L 299.490545 -426.223636 
L 298.780364 -426.223636 
L 298.070182 -426.223636 
L 297.36 -426.223636 
L 296.649818 -426.223636 
L 295.939636 -426.223636 
L 295.229455 -426.223636 
L 294.519273 -426.223636 
L 293.809091 -426.223636 
L 293.098909 -426.223636 
L 292.388727 -426.223636 
L 291.678545 -426.223636 
L 290.968364 -426.223636 
L 290.258182 -426.223636 
L 289.548 -426.223636 
L 288.837818 -426.223636 
L 288.127636 -426.223636 
L 287.417455 -426.223636 
L 286.707273 -426.223636 
L 285.997091 -426.223636 
L 285.286909 -426.223636 
L 284.576727 -426.223636 
L 283.866545 -426.223636 
L 283.156364 -426.223636 
L 282.446182 -426.223636 
L 281.736 -426.223636 
L 281.025818 -426.223636 
L 280.315636 -426.223636 
L 279.605455 -426.223636 
L 278.895273 -426.223636 
L 278.185091 -426.223636 
L 277.474909 -426.223636 
L 276.764727 -426.223636 
L 276.054545 -426.223636 
L 275.344364 -426.223636 
L 274.634182 -426.223636 
L 273.924 -426.223636 
L 273.213818 -426.223636 
L 272.503636 -426.223636 
L 271.793455 -426.223636 
L 271.083273 -426.223636 
L 270.373091 -426.223636 
L 269.662909 -426.223636 
L 268.952727 -426.223636 
L 268.242545 -426.223636 
L 267.532364 -426.223636 
L 266.822182 -426.223636 
L 266.112 -426.223636 
L 265.401818 -426.223636 
L 264.691636 -426.223636 
L 263.981455 -426.223636 
L 263.271273 -426.223636 
L 262.561091 -426.223636 
L 261.850909 -426.223636 
L 261.140727 -426.223636 
L 260.430545 -426.223636 
L 259.720364 -426.223636 
L 259.010182 -426.223636 
L 258.3 -426.223636 
L 257.589818 -426.223636 
L 256.879636 -426.223636 
L 256.169455 -426.223636 
L 255.459273 -426.223636 
L 254.749091 -426.223636 
L 254.038909 -426.223636 
L 253.328727 -426.223636 
L 252.618545 -426.223636 
L 251.908364 -426.223636 
L 251.198182 -426.223636 
L 250.488 -426.223636 
L 249.777818 -426.223636 
L 249.067636 -426.223636 
L 248.357455 -426.223636 
L 247.647273 -426.223636 
L 246.937091 -426.223636 
L 246.226909 -426.223636 
L 245.516727 -426.223636 
L 244.806545 -426.223636 
L 244.096364 -426.223636 
L 243.386182 -426.223636 
L 242.676 -426.223636 
L 241.965818 -426.223636 
L 241.255636 -426.223636 
L 240.545455 -426.223636 
L 239.835273 -426.223636 
L 239.125091 -426.223636 
L 238.414909 -426.223636 
L 237.704727 -426.223636 
L 236.994545 -426.223636 
L 236.284364 -426.223636 
L 235.574182 -426.223636 
L 234.864 -426.223636 
L 234.153818 -426.223636 
L 233.443636 -426.223636 
L 232.733455 -426.223636 
L 232.023273 -426.223636 
L 231.313091 -426.223636 
L 230.602909 -426.223636 
L 229.892727 -426.223636 
L 229.182545 -426.223636 
L 228.472364 -426.223636 
L 227.762182 -426.223636 
L 227.052 -426.223636 
L 226.341818 -426.223636 
L 225.631636 -426.223636 
L 224.921455 -426.223636 
L 224.211273 -426.223636 
L 223.501091 -426.223636 
L 222.790909 -426.223636 
L 222.080727 -426.223636 
L 221.370545 -426.223636 
L 220.660364 -426.223636 
L 219.950182 -426.223636 
L 219.24 -426.223636 
L 218.529818 -426.223636 
L 217.819636 -426.223636 
L 217.109455 -426.223636 
L 216.399273 -426.223636 
L 215.689091 -426.223636 
L 214.978909 -426.223636 
L 214.268727 -426.223636 
L 213.558545 -426.223636 
L 212.848364 -426.223636 
L 212.138182 -426.223636 
L 211.428 -426.223636 
L 210.717818 -426.223636 
L 210.007636 -426.223636 
L 209.297455 -426.223636 
L 208.587273 -426.223636 
L 207.877091 -426.223636 
L 207.166909 -426.223636 
L 206.456727 -426.223636 
L 205.746545 -426.223636 
L 205.036364 -426.223636 
L 204.326182 -426.223636 
L 203.616 -426.223636 
L 202.905818 -426.223636 
L 202.195636 -426.223636 
L 201.485455 -426.223636 
L 200.775273 -426.223636 
L 200.065091 -426.223636 
L 199.354909 -426.223636 
L 198.644727 -426.223636 
L 197.934545 -426.223636 
L 197.224364 -426.223636 
L 196.514182 -426.223636 
L 195.804 -426.223636 
L 195.093818 -426.223636 
L 194.383636 -426.223636 
L 193.673455 -426.223636 
L 192.963273 -426.223636 
L 192.253091 -426.223636 
L 191.542909 -426.223636 
L 190.832727 -426.223636 
L 190.122545 -426.223636 
L 189.412364 -426.223636 
L 188.702182 -426.223636 
L 187.992 -426.223636 
L 187.281818 -426.223636 
L 186.571636 -426.223636 
L 185.861455 -426.223636 
L 185.151273 -426.223636 
L 184.441091 -426.223636 
L 183.730909 -426.223636 
L 183.020727 -426.223636 
L 182.310545 -426.223636 
L 181.600364 -426.223636 
L 180.890182 -426.223636 
L 180.18 -426.223636 
L 179.469818 -426.223636 
L 178.759636 -426.223636 
L 178.049455 -426.223636 
L 177.339273 -426.223636 
L 176.629091 -426.223636 
L 175.918909 -426.223636 
L 175.208727 -426.223636 
L 174.498545 -426.223636 
L 173.788364 -426.223636 
L 173.078182 -426.223636 
L 172.368 -426.223636 
L 171.657818 -426.223636 
L 170.947636 -426.223636 
L 170.237455 -426.223636 
L 169.527273 -426.223636 
L 168.817091 -426.223636 
L 168.106909 -426.223636 
L 167.396727 -426.223636 
L 166.686545 -426.223636 
L 165.976364 -426.223636 
L 165.266182 -426.223636 
L 164.556 -426.223636 
L 163.845818 -426.223636 
L 163.135636 -426.223636 
L 162.425455 -426.223636 
L 161.715273 -426.223636 
L 161.005091 -426.223636 
L 160.294909 -426.223636 
L 159.584727 -426.223636 
L 158.874545 -426.223636 
L 158.164364 -426.223636 
L 157.454182 -426.223636 
L 156.744 -426.223636 
L 156.033818 -426.223636 
L 155.323636 -426.223636 
L 154.613455 -426.223636 
L 153.903273 -426.223636 
L 153.193091 -426.223636 
L 152.482909 -426.223636 
L 151.772727 -426.223636 
L 151.062545 -426.223636 
L 150.352364 -426.223636 
L 149.642182 -426.223636 
L 148.932 -426.223636 
L 148.221818 -426.223636 
L 147.511636 -426.223636 
L 146.801455 -426.223636 
L 146.091273 -426.223636 
L 145.381091 -426.223636 
L 144.670909 -426.223636 
L 143.960727 -426.223636 
L 143.250545 -426.223636 
L 142.540364 -426.223636 
L 141.830182 -426.223636 
L 141.12 -426.223636 
L 140.409818 -426.223636 
L 139.699636 -426.223636 
L 138.989455 -426.223636 
L 138.279273 -426.223636 
L 137.569091 -426.223636 
L 136.858909 -426.223636 
L 136.148727 -426.223636 
L 135.438545 -426.223636 
L 134.728364 -426.223636 
L 134.018182 -426.223636 
L 133.308 -426.223636 
L 132.597818 -426.223636 
L 131.887636 -426.223636 
L 131.177455 -426.223636 
L 130.467273 -426.223636 
L 129.757091 -426.223636 
L 129.046909 -426.223636 
L 128.336727 -426.223636 
L 127.626545 -426.223636 
L 126.916364 -426.223636 
L 126.206182 -426.223636 
L 125.496 -426.223636 
L 124.785818 -426.223636 
L 124.075636 -426.223636 
L 123.365455 -426.223636 
L 122.655273 -426.223636 
L 121.945091 -426.223636 
L 121.234909 -426.223636 
L 120.524727 -426.223636 
L 119.814545 -426.223636 
L 119.104364 -426.223636 
L 118.394182 -426.223636 
L 117.684 -426.223636 
L 116.973818 -426.223636 
L 116.263636 -426.223636 
L 115.553455 -426.223636 
L 114.843273 -426.223636 
L 114.133091 -426.223636 
L 113.422909 -426.223636 
L 112.712727 -426.223636 
L 112.002545 -426.223636 
L 111.292364 -426.223636 
L 110.582182 -426.223636 
L 109.872 -426.223636 
L 109.161818 -426.223636 
L 108.451636 -426.223636 
L 107.741455 -426.223636 
L 107.031273 -426.223636 
L 106.321091 -426.223636 
L 105.610909 -426.223636 
L 104.900727 -426.223636 
L 104.190545 -426.223636 
L 103.480364 -426.223636 
L 102.770182 -426.223636 
L 102.06 -426.223636 
L 101.349818 -426.223636 
L 100.639636 -426.223636 
L 99.929455 -426.223636 
L 99.219273 -426.223636 
L 98.509091 -426.223636 
L 97.798909 -426.223636 
L 97.088727 -426.223636 
L 96.378545 -426.223636 
L 95.668364 -426.223636 
L 94.958182 -426.223636 
L 94.248 -426.223636 
L 93.537818 -426.223636 
L 92.827636 -426.223636 
L 92.117455 -426.223636 
L 91.407273 -426.223636 
L 90.697091 -426.223636 
L 89.986909 -426.223636 
L 89.276727 -426.223636 
L 88.566545 -426.223636 
L 87.856364 -426.223636 
L 87.146182 -426.223636 
L 86.436 -426.223636 
L 85.725818 -426.223636 
L 85.015636 -426.223636 
L 84.305455 -426.223636 
L 83.595273 -426.223636 
L 82.885091 -426.223636 
L 82.174909 -426.223636 
L 81.464727 -426.223636 
z
" id="m72dea9d319" style="stroke:#ff0000;stroke-opacity:0.2;"/>
    </defs>
    <g clip-path="url(#pa63ef2ac03)">
     <use style="fill:#ff0000;fill-opacity:0.2;stroke:#ff0000;stroke-opacity:0.2;" x="0" xlink:href="#m72dea9d319" y="504"/>
    </g>
   </g>
   <g id="matplotlib.axis_1">
    <g id="xtick_1">
     <g id="line2d_1">
      <defs>
       <path d="M 0 0 
L 0 3.5 
" id="md5fe20a78b" style="stroke:#000000;stroke-width:0.8;"/>
      </defs>
      <g>
       <use style="stroke:#000000;stroke-width:0.8;" x="80.754545" xlink:href="#md5fe20a78b" y="441"/>
      </g>
     </g>
     <g id="text_1">
      <!-- 0 -->
      <defs>
       <path d="M 31.78125 66.40625 
Q 24.171875 66.40625 20.328125 58.90625 
Q 16.5 51.421875 16.5 36.375 
Q 16.5 21.390625 20.328125 13.890625 
Q 24.171875 6.390625 31.78125 6.390625 
Q 39.453125 6.390625 43.28125 13.890625 
Q 47.125 21.390625 47.125 36.375 
Q 47.125 51.421875 43.28125 58.90625 
Q 39.453125 66.40625 31.78125 66.40625 
z
M 31.78125 74.21875 
Q 44.046875 74.21875 50.515625 64.515625 
Q 56.984375 54.828125 56.984375 36.375 
Q 56.984375 17.96875 50.515625 8.265625 
Q 44.046875 -1.421875 31.78125 -1.421875 
Q 19.53125 -1.421875 13.0625 8.265625 
Q 6.59375 17.96875 6.59375 36.375 
Q 6.59375 54.828125 13.0625 64.515625 
Q 19.53125 74.21875 31.78125 74.21875 
z
" id="DejaVuSans-48"/>
      </defs>
      <g transform="translate(77.573295 455.598437)scale(0.1 -0.1)">
       <use xlink:href="#DejaVuSans-48"/>
      </g>
     </g>
    </g>
    <g id="xtick_2">
     <g id="line2d_2">
      <g>
       <use style="stroke:#000000;stroke-width:0.8;" x="151.772727" xlink:href="#md5fe20a78b" y="441"/>
      </g>
     </g>
     <g id="text_2">
      <!-- 100 -->
      <defs>
       <path d="M 12.40625 8.296875 
L 28.515625 8.296875 
L 28.515625 63.921875 
L 10.984375 60.40625 
L 10.984375 69.390625 
L 28.421875 72.90625 
L 38.28125 72.90625 
L 38.28125 8.296875 
L 54.390625 8.296875 
L 54.390625 0 
L 12.40625 0 
z
" id="DejaVuSans-49"/>
      </defs>
      <g transform="translate(142.228977 455.598437)scale(0.1 -0.1)">
       <use xlink:href="#DejaVuSans-49"/>
       <use x="63.623047" xlink:href="#DejaVuSans-48"/>
       <use x="127.246094" xlink:href="#DejaVuSans-48"/>
      </g>
     </g>
    </g>
    <g id="xtick_3">
     <g id="line2d_3">
      <g>
       <use style="stroke:#000000;stroke-width:0.8;" x="222.790909" xlink:href="#md5fe20a78b" y="441"/>
      </g>
     </g>
     <g id="text_3">
      <!-- 200 -->
      <defs>
       <path d="M 19.1875 8.296875 
L 53.609375 8.296875 
L 53.609375 0 
L 7.328125 0 
L 7.328125 8.296875 
Q 12.9375 14.109375 22.625 23.890625 
Q 32.328125 33.6875 34.8125 36.53125 
Q 39.546875 41.84375 41.421875 45.53125 
Q 43.3125 49.21875 43.3125 52.78125 
Q 43.3125 58.59375 39.234375 62.25 
Q 35.15625 65.921875 28.609375 65.921875 
Q 23.96875 65.921875 18.8125 64.3125 
Q 13.671875 62.703125 7.8125 59.421875 
L 7.8125 69.390625 
Q 13.765625 71.78125 18.9375 73 
Q 24.125 74.21875 28.421875 74.21875 
Q 39.75 74.21875 46.484375 68.546875 
Q 53.21875 62.890625 53.21875 53.421875 
Q 53.21875 48.921875 51.53125 44.890625 
Q 49.859375 40.875 45.40625 35.40625 
Q 44.1875 33.984375 37.640625 27.21875 
Q 31.109375 20.453125 19.1875 8.296875 
z
" id="DejaVuSans-50"/>
      </defs>
      <g transform="translate(213.247159 455.598437)scale(0.1 -0.1)">
       <use xlink:href="#DejaVuSans-50"/>
       <use x="63.623047" xlink:href="#DejaVuSans-48"/>
       <use x="127.246094" xlink:href="#DejaVuSans-48"/>
      </g>
     </g>
    </g>
    <g id="xtick_4">
     <g id="line2d_4">
      <g>
       <use style="stroke:#000000;stroke-width:0.8;" x="293.809091" xlink:href="#md5fe20a78b" y="441"/>
      </g>
     </g>
     <g id="text_4">
      <!-- 300 -->
      <defs>
       <path d="M 40.578125 39.3125 
Q 47.65625 37.796875 51.625 33 
Q 55.609375 28.21875 55.609375 21.1875 
Q 55.609375 10.40625 48.1875 4.484375 
Q 40.765625 -1.421875 27.09375 -1.421875 
Q 22.515625 -1.421875 17.65625 -0.515625 
Q 12.796875 0.390625 7.625 2.203125 
L 7.625 11.71875 
Q 11.71875 9.328125 16.59375 8.109375 
Q 21.484375 6.890625 26.8125 6.890625 
Q 36.078125 6.890625 40.9375 10.546875 
Q 45.796875 14.203125 45.796875 21.1875 
Q 45.796875 27.640625 41.28125 31.265625 
Q 36.765625 34.90625 28.71875 34.90625 
L 20.21875 34.90625 
L 20.21875 43.015625 
L 29.109375 43.015625 
Q 36.375 43.015625 40.234375 45.921875 
Q 44.09375 48.828125 44.09375 54.296875 
Q 44.09375 59.90625 40.109375 62.90625 
Q 36.140625 65.921875 28.71875 65.921875 
Q 24.65625 65.921875 20.015625 65.03125 
Q 15.375 64.15625 9.8125 62.3125 
L 9.8125 71.09375 
Q 15.4375 72.65625 20.34375 73.4375 
Q 25.25 74.21875 29.59375 74.21875 
Q 40.828125 74.21875 47.359375 69.109375 
Q 53.90625 64.015625 53.90625 55.328125 
Q 53.90625 49.265625 50.4375 45.09375 
Q 46.96875 40.921875 40.578125 39.3125 
z
" id="DejaVuSans-51"/>
      </defs>
      <g transform="translate(284.265341 455.598437)scale(0.1 -0.1)">
       <use xlink:href="#DejaVuSans-51"/>
       <use x="63.623047" xlink:href="#DejaVuSans-48"/>
       <use x="127.246094" xlink:href="#DejaVuSans-48"/>
      </g>
     </g>
    </g>
    <g id="xtick_5">
     <g id="line2d_5">
      <g>
       <use style="stroke:#000000;stroke-width:0.8;" x="364.827273" xlink:href="#md5fe20a78b" y="441"/>
      </g>
     </g>
     <g id="text_5">
      <!-- 400 -->
      <defs>
       <path d="M 37.796875 64.3125 
L 12.890625 25.390625 
L 37.796875 25.390625 
z
M 35.203125 72.90625 
L 47.609375 72.90625 
L 47.609375 25.390625 
L 58.015625 25.390625 
L 58.015625 17.1875 
L 47.609375 17.1875 
L 47.609375 0 
L 37.796875 0 
L 37.796875 17.1875 
L 4.890625 17.1875 
L 4.890625 26.703125 
z
" id="DejaVuSans-52"/>
      </defs>
      <g transform="translate(355.283523 455.598437)scale(0.1 -0.1)">
       <use xlink:href="#DejaVuSans-52"/>
       <use x="63.623047" xlink:href="#DejaVuSans-48"/>
       <use x="127.246094" xlink:href="#DejaVuSans-48"/>
      </g>
     </g>
    </g>
    <g id="xtick_6">
     <g id="line2d_6">
      <g>
       <use style="stroke:#000000;stroke-width:0.8;" x="435.845455" xlink:href="#md5fe20a78b" y="441"/>
      </g>
     </g>
     <g id="text_6">
      <!-- 500 -->
      <defs>
       <path d="M 10.796875 72.90625 
L 49.515625 72.90625 
L 49.515625 64.59375 
L 19.828125 64.59375 
L 19.828125 46.734375 
Q 21.96875 47.46875 24.109375 47.828125 
Q 26.265625 48.1875 28.421875 48.1875 
Q 40.625 48.1875 47.75 41.5 
Q 54.890625 34.8125 54.890625 23.390625 
Q 54.890625 11.625 47.5625 5.09375 
Q 40.234375 -1.421875 26.90625 -1.421875 
Q 22.3125 -1.421875 17.546875 -0.640625 
Q 12.796875 0.140625 7.71875 1.703125 
L 7.71875 11.625 
Q 12.109375 9.234375 16.796875 8.0625 
Q 21.484375 6.890625 26.703125 6.890625 
Q 35.15625 6.890625 40.078125 11.328125 
Q 45.015625 15.765625 45.015625 23.390625 
Q 45.015625 31 40.078125 35.4375 
Q 35.15625 39.890625 26.703125 39.890625 
Q 22.75 39.890625 18.8125 39.015625 
Q 14.890625 38.140625 10.796875 36.28125 
z
" id="DejaVuSans-53"/>
      </defs>
      <g transform="translate(426.301705 455.598437)scale(0.1 -0.1)">
       <use xlink:href="#DejaVuSans-53"/>
       <use x="63.623047" xlink:href="#DejaVuSans-48"/>
       <use x="127.246094" xlink:href="#DejaVuSans-48"/>
      </g>
     </g>
    </g>
    <g id="text_7">
     <!-- trees examined -->
     <defs>
      <path d="M 18.3125 70.21875 
L 18.3125 54.6875 
L 36.8125 54.6875 
L 36.8125 47.703125 
L 18.3125 47.703125 
L 18.3125 18.015625 
Q 18.3125 11.328125 20.140625 9.421875 
Q 21.96875 7.515625 27.59375 7.515625 
L 36.8125 7.515625 
L 36.8125 0 
L 27.59375 0 
Q 17.1875 0 13.234375 3.875 
Q 9.28125 7.765625 9.28125 18.015625 
L 9.28125 47.703125 
L 2.6875 47.703125 
L 2.6875 54.6875 
L 9.28125 54.6875 
L 9.28125 70.21875 
z
" id="DejaVuSans-116"/>
      <path d="M 41.109375 46.296875 
Q 39.59375 47.171875 37.8125 47.578125 
Q 36.03125 48 33.890625 48 
Q 26.265625 48 22.1875 43.046875 
Q 18.109375 38.09375 18.109375 28.8125 
L 18.109375 0 
L 9.078125 0 
L 9.078125 54.6875 
L 18.109375 54.6875 
L 18.109375 46.1875 
Q 20.953125 51.171875 25.484375 53.578125 
Q 30.03125 56 36.53125 56 
Q 37.453125 56 38.578125 55.875 
Q 39.703125 55.765625 41.0625 55.515625 
z
" id="DejaVuSans-114"/>
      <path d="M 56.203125 29.59375 
L 56.203125 25.203125 
L 14.890625 25.203125 
Q 15.484375 15.921875 20.484375 11.0625 
Q 25.484375 6.203125 34.421875 6.203125 
Q 39.59375 6.203125 44.453125 7.46875 
Q 49.3125 8.734375 54.109375 11.28125 
L 54.109375 2.78125 
Q 49.265625 0.734375 44.1875 -0.34375 
Q 39.109375 -1.421875 33.890625 -1.421875 
Q 20.796875 -1.421875 13.15625 6.1875 
Q 5.515625 13.8125 5.515625 26.8125 
Q 5.515625 40.234375 12.765625 48.109375 
Q 20.015625 56 32.328125 56 
Q 43.359375 56 49.78125 48.890625 
Q 56.203125 41.796875 56.203125 29.59375 
z
M 47.21875 32.234375 
Q 47.125 39.59375 43.09375 43.984375 
Q 39.0625 48.390625 32.421875 48.390625 
Q 24.90625 48.390625 20.390625 44.140625 
Q 15.875 39.890625 15.1875 32.171875 
z
" id="DejaVuSans-101"/>
      <path d="M 44.28125 53.078125 
L 44.28125 44.578125 
Q 40.484375 46.53125 36.375 47.5 
Q 32.28125 48.484375 27.875 48.484375 
Q 21.1875 48.484375 17.84375 46.4375 
Q 14.5 44.390625 14.5 40.28125 
Q 14.5 37.15625 16.890625 35.375 
Q 19.28125 33.59375 26.515625 31.984375 
L 29.59375 31.296875 
Q 39.15625 29.25 43.1875 25.515625 
Q 47.21875 21.78125 47.21875 15.09375 
Q 47.21875 7.46875 41.1875 3.015625 
Q 35.15625 -1.421875 24.609375 -1.421875 
Q 20.21875 -1.421875 15.453125 -0.5625 
Q 10.6875 0.296875 5.421875 2 
L 5.421875 11.28125 
Q 10.40625 8.6875 15.234375 7.390625 
Q 20.0625 6.109375 24.8125 6.109375 
Q 31.15625 6.109375 34.5625 8.28125 
Q 37.984375 10.453125 37.984375 14.40625 
Q 37.984375 18.0625 35.515625 20.015625 
Q 33.0625 21.96875 24.703125 23.78125 
L 21.578125 24.515625 
Q 13.234375 26.265625 9.515625 29.90625 
Q 5.8125 33.546875 5.8125 39.890625 
Q 5.8125 47.609375 11.28125 51.796875 
Q 16.75 56 26.8125 56 
Q 31.78125 56 36.171875 55.265625 
Q 40.578125 54.546875 44.28125 53.078125 
z
" id="DejaVuSans-115"/>
      <path id="DejaVuSans-32"/>
      <path d="M 54.890625 54.6875 
L 35.109375 28.078125 
L 55.90625 0 
L 45.3125 0 
L 29.390625 21.484375 
L 13.484375 0 
L 2.875 0 
L 24.125 28.609375 
L 4.6875 54.6875 
L 15.28125 54.6875 
L 29.78125 35.203125 
L 44.28125 54.6875 
z
" id="DejaVuSans-120"/>
      <path d="M 34.28125 27.484375 
Q 23.390625 27.484375 19.1875 25 
Q 14.984375 22.515625 14.984375 16.5 
Q 14.984375 11.71875 18.140625 8.90625 
Q 21.296875 6.109375 26.703125 6.109375 
Q 34.1875 6.109375 38.703125 11.40625 
Q 43.21875 16.703125 43.21875 25.484375 
L 43.21875 27.484375 
z
M 52.203125 31.203125 
L 52.203125 0 
L 43.21875 0 
L 43.21875 8.296875 
Q 40.140625 3.328125 35.546875 0.953125 
Q 30.953125 -1.421875 24.3125 -1.421875 
Q 15.921875 -1.421875 10.953125 3.296875 
Q 6 8.015625 6 15.921875 
Q 6 25.140625 12.171875 29.828125 
Q 18.359375 34.515625 30.609375 34.515625 
L 43.21875 34.515625 
L 43.21875 35.40625 
Q 43.21875 41.609375 39.140625 45 
Q 35.0625 48.390625 27.6875 48.390625 
Q 23 48.390625 18.546875 47.265625 
Q 14.109375 46.140625 10.015625 43.890625 
L 10.015625 52.203125 
Q 14.9375 54.109375 19.578125 55.046875 
Q 24.21875 56 28.609375 56 
Q 40.484375 56 46.34375 49.84375 
Q 52.203125 43.703125 52.203125 31.203125 
z
" id="DejaVuSans-97"/>
      <path d="M 52 44.1875 
Q 55.375 50.25 60.0625 53.125 
Q 64.75 56 71.09375 56 
Q 79.640625 56 84.28125 50.015625 
Q 88.921875 44.046875 88.921875 33.015625 
L 88.921875 0 
L 79.890625 0 
L 79.890625 32.71875 
Q 79.890625 40.578125 77.09375 44.375 
Q 74.3125 48.1875 68.609375 48.1875 
Q 61.625 48.1875 57.5625 43.546875 
Q 53.515625 38.921875 53.515625 30.90625 
L 53.515625 0 
L 44.484375 0 
L 44.484375 32.71875 
Q 44.484375 40.625 41.703125 44.40625 
Q 38.921875 48.1875 33.109375 48.1875 
Q 26.21875 48.1875 22.15625 43.53125 
Q 18.109375 38.875 18.109375 30.90625 
L 18.109375 0 
L 9.078125 0 
L 9.078125 54.6875 
L 18.109375 54.6875 
L 18.109375 46.1875 
Q 21.1875 51.21875 25.484375 53.609375 
Q 29.78125 56 35.6875 56 
Q 41.65625 56 45.828125 52.96875 
Q 50 49.953125 52 44.1875 
z
" id="DejaVuSans-109"/>
      <path d="M 9.421875 54.6875 
L 18.40625 54.6875 
L 18.40625 0 
L 9.421875 0 
z
M 9.421875 75.984375 
L 18.40625 75.984375 
L 18.40625 64.59375 
L 9.421875 64.59375 
z
" id="DejaVuSans-105"/>
      <path d="M 54.890625 33.015625 
L 54.890625 0 
L 45.90625 0 
L 45.90625 32.71875 
Q 45.90625 40.484375 42.875 44.328125 
Q 39.84375 48.1875 33.796875 48.1875 
Q 26.515625 48.1875 22.3125 43.546875 
Q 18.109375 38.921875 18.109375 30.90625 
L 18.109375 0 
L 9.078125 0 
L 9.078125 54.6875 
L 18.109375 54.6875 
L 18.109375 46.1875 
Q 21.34375 51.125 25.703125 53.5625 
Q 30.078125 56 35.796875 56 
Q 45.21875 56 50.046875 50.171875 
Q 54.890625 44.34375 54.890625 33.015625 
z
" id="DejaVuSans-110"/>
      <path d="M 45.40625 46.390625 
L 45.40625 75.984375 
L 54.390625 75.984375 
L 54.390625 0 
L 45.40625 0 
L 45.40625 8.203125 
Q 42.578125 3.328125 38.25 0.953125 
Q 33.9375 -1.421875 27.875 -1.421875 
Q 17.96875 -1.421875 11.734375 6.484375 
Q 5.515625 14.40625 5.515625 27.296875 
Q 5.515625 40.1875 11.734375 48.09375 
Q 17.96875 56 27.875 56 
Q 33.9375 56 38.25 53.625 
Q 42.578125 51.265625 45.40625 46.390625 
z
M 14.796875 27.296875 
Q 14.796875 17.390625 18.875 11.75 
Q 22.953125 6.109375 30.078125 6.109375 
Q 37.203125 6.109375 41.296875 11.75 
Q 45.40625 17.390625 45.40625 27.296875 
Q 45.40625 37.203125 41.296875 42.84375 
Q 37.203125 48.484375 30.078125 48.484375 
Q 22.953125 48.484375 18.875 42.84375 
Q 14.796875 37.203125 14.796875 27.296875 
z
" id="DejaVuSans-100"/>
     </defs>
     <g transform="translate(219.160938 469.276563)scale(0.1 -0.1)">
      <use xlink:href="#DejaVuSans-116"/>
      <use x="39.208984" xlink:href="#DejaVuSans-114"/>
      <use x="80.291016" xlink:href="#DejaVuSans-101"/>
      <use x="141.814453" xlink:href="#DejaVuSans-101"/>
      <use x="203.337891" xlink:href="#DejaVuSans-115"/>
      <use x="255.4375" xlink:href="#DejaVuSans-32"/>
      <use x="287.224609" xlink:href="#DejaVuSans-101"/>
      <use x="348.732422" xlink:href="#DejaVuSans-120"/>
      <use x="407.912109" xlink:href="#DejaVuSans-97"/>
      <use x="469.191406" xlink:href="#DejaVuSans-109"/>
      <use x="566.603516" xlink:href="#DejaVuSans-105"/>
      <use x="594.386719" xlink:href="#DejaVuSans-110"/>
      <use x="657.765625" xlink:href="#DejaVuSans-101"/>
      <use x="719.289062" xlink:href="#DejaVuSans-100"/>
     </g>
    </g>
   </g>
   <g id="matplotlib.axis_2">
    <g id="ytick_1">
     <g id="line2d_7">
      <defs>
       <path d="M 0 0 
L -3.5 0 
" id="md8a64e47ab" style="stroke:#000000;stroke-width:0.8;"/>
      </defs>
      <g>
       <use style="stroke:#000000;stroke-width:0.8;" x="63" xlink:href="#md8a64e47ab" y="428.082334"/>
      </g>
     </g>
     <g id="text_8">
      <!-- 0 -->
      <g transform="translate(49.6375 431.881553)scale(0.1 -0.1)">
       <use xlink:href="#DejaVuSans-48"/>
      </g>
     </g>
    </g>
    <g id="ytick_2">
     <g id="line2d_8">
      <g>
       <use style="stroke:#000000;stroke-width:0.8;" x="63" xlink:href="#md8a64e47ab" y="383.836969"/>
      </g>
     </g>
     <g id="text_9">
      <!-- 10 -->
      <g transform="translate(43.275 387.636188)scale(0.1 -0.1)">
       <use xlink:href="#DejaVuSans-49"/>
       <use x="63.623047" xlink:href="#DejaVuSans-48"/>
      </g>
     </g>
    </g>
    <g id="ytick_3">
     <g id="line2d_9">
      <g>
       <use style="stroke:#000000;stroke-width:0.8;" x="63" xlink:href="#md8a64e47ab" y="339.591604"/>
      </g>
     </g>
     <g id="text_10">
      <!-- 20 -->
      <g transform="translate(43.275 343.390823)scale(0.1 -0.1)">
       <use xlink:href="#DejaVuSans-50"/>
       <use x="63.623047" xlink:href="#DejaVuSans-48"/>
      </g>
     </g>
    </g>
    <g id="ytick_4">
     <g id="line2d_10">
      <g>
       <use style="stroke:#000000;stroke-width:0.8;" x="63" xlink:href="#md8a64e47ab" y="295.346239"/>
      </g>
     </g>
     <g id="text_11">
      <!-- 30 -->
      <g transform="translate(43.275 299.145457)scale(0.1 -0.1)">
       <use xlink:href="#DejaVuSans-51"/>
       <use x="63.623047" xlink:href="#DejaVuSans-48"/>
      </g>
     </g>
    </g>
    <g id="ytick_5">
     <g id="line2d_11">
      <g>
       <use style="stroke:#000000;stroke-width:0.8;" x="63" xlink:href="#md8a64e47ab" y="251.100873"/>
      </g>
     </g>
     <g id="text_12">
      <!-- 40 -->
      <g transform="translate(43.275 254.900092)scale(0.1 -0.1)">
       <use xlink:href="#DejaVuSans-52"/>
       <use x="63.623047" xlink:href="#DejaVuSans-48"/>
      </g>
     </g>
    </g>
    <g id="ytick_6">
     <g id="line2d_12">
      <g>
       <use style="stroke:#000000;stroke-width:0.8;" x="63" xlink:href="#md8a64e47ab" y="206.855508"/>
      </g>
     </g>
     <g id="text_13">
      <!-- 50 -->
      <g transform="translate(43.275 210.654727)scale(0.1 -0.1)">
       <use xlink:href="#DejaVuSans-53"/>
       <use x="63.623047" xlink:href="#DejaVuSans-48"/>
      </g>
     </g>
    </g>
    <g id="ytick_7">
     <g id="line2d_13">
      <g>
       <use style="stroke:#000000;stroke-width:0.8;" x="63" xlink:href="#md8a64e47ab" y="162.610143"/>
      </g>
     </g>
     <g id="text_14">
      <!-- 60 -->
      <defs>
       <path d="M 33.015625 40.375 
Q 26.375 40.375 22.484375 35.828125 
Q 18.609375 31.296875 18.609375 23.390625 
Q 18.609375 15.53125 22.484375 10.953125 
Q 26.375 6.390625 33.015625 6.390625 
Q 39.65625 6.390625 43.53125 10.953125 
Q 47.40625 15.53125 47.40625 23.390625 
Q 47.40625 31.296875 43.53125 35.828125 
Q 39.65625 40.375 33.015625 40.375 
z
M 52.59375 71.296875 
L 52.59375 62.3125 
Q 48.875 64.0625 45.09375 64.984375 
Q 41.3125 65.921875 37.59375 65.921875 
Q 27.828125 65.921875 22.671875 59.328125 
Q 17.53125 52.734375 16.796875 39.40625 
Q 19.671875 43.65625 24.015625 45.921875 
Q 28.375 48.1875 33.59375 48.1875 
Q 44.578125 48.1875 50.953125 41.515625 
Q 57.328125 34.859375 57.328125 23.390625 
Q 57.328125 12.15625 50.6875 5.359375 
Q 44.046875 -1.421875 33.015625 -1.421875 
Q 20.359375 -1.421875 13.671875 8.265625 
Q 6.984375 17.96875 6.984375 36.375 
Q 6.984375 53.65625 15.1875 63.9375 
Q 23.390625 74.21875 37.203125 74.21875 
Q 40.921875 74.21875 44.703125 73.484375 
Q 48.484375 72.75 52.59375 71.296875 
z
" id="DejaVuSans-54"/>
      </defs>
      <g transform="translate(43.275 166.409362)scale(0.1 -0.1)">
       <use xlink:href="#DejaVuSans-54"/>
       <use x="63.623047" xlink:href="#DejaVuSans-48"/>
      </g>
     </g>
    </g>
    <g id="ytick_8">
     <g id="line2d_14">
      <g>
       <use style="stroke:#000000;stroke-width:0.8;" x="63" xlink:href="#md8a64e47ab" y="118.364778"/>
      </g>
     </g>
     <g id="text_15">
      <!-- 70 -->
      <defs>
       <path d="M 8.203125 72.90625 
L 55.078125 72.90625 
L 55.078125 68.703125 
L 28.609375 0 
L 18.3125 0 
L 43.21875 64.59375 
L 8.203125 64.59375 
z
" id="DejaVuSans-55"/>
      </defs>
      <g transform="translate(43.275 122.163997)scale(0.1 -0.1)">
       <use xlink:href="#DejaVuSans-55"/>
       <use x="63.623047" xlink:href="#DejaVuSans-48"/>
      </g>
     </g>
    </g>
    <g id="ytick_9">
     <g id="line2d_15">
      <g>
       <use style="stroke:#000000;stroke-width:0.8;" x="63" xlink:href="#md8a64e47ab" y="74.119413"/>
      </g>
     </g>
     <g id="text_16">
      <!-- 80 -->
      <defs>
       <path d="M 31.78125 34.625 
Q 24.75 34.625 20.71875 30.859375 
Q 16.703125 27.09375 16.703125 20.515625 
Q 16.703125 13.921875 20.71875 10.15625 
Q 24.75 6.390625 31.78125 6.390625 
Q 38.8125 6.390625 42.859375 10.171875 
Q 46.921875 13.96875 46.921875 20.515625 
Q 46.921875 27.09375 42.890625 30.859375 
Q 38.875 34.625 31.78125 34.625 
z
M 21.921875 38.8125 
Q 15.578125 40.375 12.03125 44.71875 
Q 8.5 49.078125 8.5 55.328125 
Q 8.5 64.0625 14.71875 69.140625 
Q 20.953125 74.21875 31.78125 74.21875 
Q 42.671875 74.21875 48.875 69.140625 
Q 55.078125 64.0625 55.078125 55.328125 
Q 55.078125 49.078125 51.53125 44.71875 
Q 48 40.375 41.703125 38.8125 
Q 48.828125 37.15625 52.796875 32.3125 
Q 56.78125 27.484375 56.78125 20.515625 
Q 56.78125 9.90625 50.3125 4.234375 
Q 43.84375 -1.421875 31.78125 -1.421875 
Q 19.734375 -1.421875 13.25 4.234375 
Q 6.78125 9.90625 6.78125 20.515625 
Q 6.78125 27.484375 10.78125 32.3125 
Q 14.796875 37.15625 21.921875 38.8125 
z
M 18.3125 54.390625 
Q 18.3125 48.734375 21.84375 45.5625 
Q 25.390625 42.390625 31.78125 42.390625 
Q 38.140625 42.390625 41.71875 45.5625 
Q 45.3125 48.734375 45.3125 54.390625 
Q 45.3125 60.0625 41.71875 63.234375 
Q 38.140625 66.40625 31.78125 66.40625 
Q 25.390625 66.40625 21.84375 63.234375 
Q 18.3125 60.0625 18.3125 54.390625 
z
" id="DejaVuSans-56"/>
      </defs>
      <g transform="translate(43.275 77.918632)scale(0.1 -0.1)">
       <use xlink:href="#DejaVuSans-56"/>
       <use x="63.623047" xlink:href="#DejaVuSans-48"/>
      </g>
     </g>
    </g>
    <g id="text_17">
     <!-- Adult tree species -->
     <defs>
      <path d="M 34.1875 63.1875 
L 20.796875 26.90625 
L 47.609375 26.90625 
z
M 28.609375 72.90625 
L 39.796875 72.90625 
L 67.578125 0 
L 57.328125 0 
L 50.6875 18.703125 
L 17.828125 18.703125 
L 11.1875 0 
L 0.78125 0 
z
" id="DejaVuSans-65"/>
      <path d="M 8.5 21.578125 
L 8.5 54.6875 
L 17.484375 54.6875 
L 17.484375 21.921875 
Q 17.484375 14.15625 20.5 10.265625 
Q 23.53125 6.390625 29.59375 6.390625 
Q 36.859375 6.390625 41.078125 11.03125 
Q 45.3125 15.671875 45.3125 23.6875 
L 45.3125 54.6875 
L 54.296875 54.6875 
L 54.296875 0 
L 45.3125 0 
L 45.3125 8.40625 
Q 42.046875 3.421875 37.71875 1 
Q 33.40625 -1.421875 27.6875 -1.421875 
Q 18.265625 -1.421875 13.375 4.4375 
Q 8.5 10.296875 8.5 21.578125 
z
M 31.109375 56 
z
" id="DejaVuSans-117"/>
      <path d="M 9.421875 75.984375 
L 18.40625 75.984375 
L 18.40625 0 
L 9.421875 0 
z
" id="DejaVuSans-108"/>
      <path d="M 18.109375 8.203125 
L 18.109375 -20.796875 
L 9.078125 -20.796875 
L 9.078125 54.6875 
L 18.109375 54.6875 
L 18.109375 46.390625 
Q 20.953125 51.265625 25.265625 53.625 
Q 29.59375 56 35.59375 56 
Q 45.5625 56 51.78125 48.09375 
Q 58.015625 40.1875 58.015625 27.296875 
Q 58.015625 14.40625 51.78125 6.484375 
Q 45.5625 -1.421875 35.59375 -1.421875 
Q 29.59375 -1.421875 25.265625 0.953125 
Q 20.953125 3.328125 18.109375 8.203125 
z
M 48.6875 27.296875 
Q 48.6875 37.203125 44.609375 42.84375 
Q 40.53125 48.484375 33.40625 48.484375 
Q 26.265625 48.484375 22.1875 42.84375 
Q 18.109375 37.203125 18.109375 27.296875 
Q 18.109375 17.390625 22.1875 11.75 
Q 26.265625 6.109375 33.40625 6.109375 
Q 40.53125 6.109375 44.609375 11.75 
Q 48.6875 17.390625 48.6875 27.296875 
z
" id="DejaVuSans-112"/>
      <path d="M 48.78125 52.59375 
L 48.78125 44.1875 
Q 44.96875 46.296875 41.140625 47.34375 
Q 37.3125 48.390625 33.40625 48.390625 
Q 24.65625 48.390625 19.8125 42.84375 
Q 14.984375 37.3125 14.984375 27.296875 
Q 14.984375 17.28125 19.8125 11.734375 
Q 24.65625 6.203125 33.40625 6.203125 
Q 37.3125 6.203125 41.140625 7.25 
Q 44.96875 8.296875 48.78125 10.40625 
L 48.78125 2.09375 
Q 45.015625 0.34375 40.984375 -0.53125 
Q 36.96875 -1.421875 32.421875 -1.421875 
Q 20.0625 -1.421875 12.78125 6.34375 
Q 5.515625 14.109375 5.515625 27.296875 
Q 5.515625 40.671875 12.859375 48.328125 
Q 20.21875 56 33.015625 56 
Q 37.15625 56 41.109375 55.140625 
Q 45.0625 54.296875 48.78125 52.59375 
z
" id="DejaVuSans-99"/>
     </defs>
     <g transform="translate(37.195312 295.872031)rotate(-90)scale(0.1 -0.1)">
      <use xlink:href="#DejaVuSans-65"/>
      <use x="68.392578" xlink:href="#DejaVuSans-100"/>
      <use x="131.869141" xlink:href="#DejaVuSans-117"/>
      <use x="195.248047" xlink:href="#DejaVuSans-108"/>
      <use x="223.03125" xlink:href="#DejaVuSans-116"/>
      <use x="262.240234" xlink:href="#DejaVuSans-32"/>
      <use x="294.027344" xlink:href="#DejaVuSans-116"/>
      <use x="333.236328" xlink:href="#DejaVuSans-114"/>
      <use x="374.318359" xlink:href="#DejaVuSans-101"/>
      <use x="435.841797" xlink:href="#DejaVuSans-101"/>
      <use x="497.365234" xlink:href="#DejaVuSans-32"/>
      <use x="529.152344" xlink:href="#DejaVuSans-115"/>
      <use x="581.251953" xlink:href="#DejaVuSans-112"/>
      <use x="644.728516" xlink:href="#DejaVuSans-101"/>
      <use x="706.251953" xlink:href="#DejaVuSans-99"/>
      <use x="761.232422" xlink:href="#DejaVuSans-105"/>
      <use x="789.015625" xlink:href="#DejaVuSans-101"/>
      <use x="850.539062" xlink:href="#DejaVuSans-115"/>
     </g>
    </g>
   </g>
   <g id="LineCollection_1">
    <path clip-path="url(#pa63ef2ac03)" d="M 80.754545 138.823689 
L 435.845455 138.823689 
" style="fill:none;stroke:#ff0000;stroke-dasharray:5.55,2.4;stroke-dashoffset:0;stroke-width:1.5;"/>
   </g>
   <g id="line2d_16">
    <path clip-path="url(#pa63ef2ac03)" d="M 81.464727 423.657798 
L 82.174909 419.507509 
L 82.885091 415.585469 
L 83.595273 411.854831 
L 84.305455 408.286106 
L 85.015636 404.855705 
L 85.725818 401.544764 
L 86.436 398.33819 
L 87.146182 395.223899 
L 87.856364 392.192199 
L 88.566545 389.235296 
L 89.276727 386.346903 
L 89.986909 383.521922 
L 90.697091 380.756195 
L 91.407273 378.046301 
L 92.117455 375.389405 
L 92.827636 372.783127 
L 93.537818 370.225445 
L 94.248 367.71462 
L 94.958182 365.249133 
L 95.668364 362.827637 
L 96.378545 360.448921 
L 97.088727 358.111883 
L 97.798909 355.815503 
L 98.509091 353.55883 
L 99.219273 351.340966 
L 99.929455 349.161056 
L 100.639636 347.018281 
L 101.349818 344.911853 
L 102.06 342.841007 
L 102.770182 340.804999 
L 103.480364 338.803105 
L 104.190545 336.834618 
L 104.900727 334.898845 
L 105.610909 332.995106 
L 106.321091 331.122735 
L 107.031273 329.28108 
L 107.741455 327.469497 
L 108.451636 325.687355 
L 109.161818 323.934036 
L 109.872 322.208929 
L 110.582182 320.511437 
L 111.292364 318.840969 
L 112.002545 317.19695 
L 112.712727 315.578809 
L 113.422909 313.985988 
L 114.133091 312.41794 
L 114.843273 310.874125 
L 115.553455 309.354013 
L 116.263636 307.857084 
L 116.973818 306.382829 
L 117.684 304.930745 
L 118.394182 303.500341 
L 119.104364 302.091134 
L 119.814545 300.702649 
L 120.524727 299.334421 
L 121.234909 297.985994 
L 121.945091 296.656921 
L 122.655273 295.346762 
L 123.365455 294.055088 
L 124.075636 292.781476 
L 124.785818 291.525513 
L 125.496 290.286793 
L 126.206182 289.06492 
L 126.916364 287.859505 
L 127.626545 286.670166 
L 128.336727 285.496531 
L 129.046909 284.338235 
L 129.757091 283.19492 
L 130.467273 282.066237 
L 131.177455 280.951843 
L 131.887636 279.851404 
L 132.597818 278.764592 
L 133.308 277.691089 
L 134.018182 276.63058 
L 134.728364 275.582761 
L 135.438545 274.547332 
L 136.148727 273.524003 
L 136.858909 272.512488 
L 137.569091 271.51251 
L 138.279273 270.523797 
L 138.989455 269.546085 
L 139.699636 268.579116 
L 140.409818 267.622637 
L 141.12 266.676403 
L 141.830182 265.740176 
L 142.540364 264.813722 
L 143.250545 263.896815 
L 143.960727 262.989232 
L 144.670909 262.09076 
L 145.381091 261.201189 
L 146.091273 260.320315 
L 146.801455 259.44794 
L 147.511636 258.583873 
L 148.221818 257.727925 
L 148.932 256.879915 
L 149.642182 256.039668 
L 150.352364 255.207011 
L 151.062545 254.381778 
L 151.772727 253.563809 
L 152.482909 252.752947 
L 153.193091 251.949041 
L 153.903273 251.151944 
L 154.613455 250.361514 
L 155.323636 249.577613 
L 156.033818 248.800109 
L 156.744 248.028872 
L 157.454182 247.263779 
L 158.164364 246.504709 
L 158.874545 245.751547 
L 159.584727 245.004179 
L 160.294909 244.262498 
L 161.005091 243.5264 
L 161.715273 242.795783 
L 162.425455 242.070552 
L 163.135636 241.350613 
L 163.845818 240.635875 
L 164.556 239.926253 
L 165.266182 239.221663 
L 165.976364 238.522026 
L 166.686545 237.827264 
" style="fill:none;stroke:#008000;stroke-linecap:square;stroke-width:1.5;"/>
   </g>
   <g id="line2d_17">
    <path clip-path="url(#pa63ef2ac03)" d="M 81.464727 423.703636 
L 83.595273 412.195867 
L 85.725818 401.843195 
L 88.566545 389.302344 
L 91.407273 377.914153 
L 94.248 367.481751 
L 97.088727 357.866127 
L 99.929455 348.960871 
L 102.770182 340.680873 
L 106.321091 331.104666 
L 109.872 322.284458 
L 113.422909 314.128212 
L 116.973818 306.559381 
L 120.524727 299.513498 
L 124.075636 292.935708 
L 127.626545 286.778934 
L 131.177455 281.002469 
L 135.438545 274.52316 
L 139.699636 268.48776 
L 143.960727 262.850802 
L 148.221818 257.57299 
L 152.482909 252.620156 
L 157.454182 247.212946 
L 162.425455 242.166294 
L 167.396727 237.444502 
L 172.368 233.01652 
L 178.049455 228.281061 
L 183.730909 223.858688 
L 189.412364 219.718775 
L 195.093818 215.834618 
L 201.485455 211.74163 
L 207.877091 207.913691 
L 214.978909 203.940566 
L 222.080727 200.233224 
L 229.182545 196.765463 
L 236.994545 193.200481 
L 244.806545 189.871376 
L 253.328727 186.481722 
L 262.561091 183.065624 
L 271.793455 179.888203 
L 281.736 176.705285 
L 292.388727 173.540857 
L 303.041455 170.603607 
L 314.404364 167.694077 
L 326.477455 164.828342 
L 339.260727 162.019627 
L 352.754182 159.278543 
L 366.957818 156.613349 
L 382.581818 153.91228 
L 398.916 151.31632 
L 416.670545 148.726773 
L 435.135273 146.25871 
L 435.845455 146.167973 
L 435.845455 146.167973 
" style="fill:none;stroke:#008000;stroke-dasharray:1.5,2.475;stroke-dashoffset:0;stroke-width:1.5;"/>
   </g>
   <g id="patch_3">
    <path d="M 63 441 
L 63 60.48 
" style="fill:none;stroke:#000000;stroke-linecap:square;stroke-linejoin:miter;stroke-width:0.8;"/>
   </g>
   <g id="patch_4">
    <path d="M 453.6 441 
L 453.6 60.48 
" style="fill:none;stroke:#000000;stroke-linecap:square;stroke-linejoin:miter;stroke-width:0.8;"/>
   </g>
   <g id="patch_5">
    <path d="M 63 441 
L 453.6 441 
" style="fill:none;stroke:#000000;stroke-linecap:square;stroke-linejoin:miter;stroke-width:0.8;"/>
   </g>
   <g id="patch_6">
    <path d="M 63 60.48 
L 453.6 60.48 
" style="fill:none;stroke:#000000;stroke-linecap:square;stroke-linejoin:miter;stroke-width:0.8;"/>
   </g>
   <g id="text_18">
    <!-- Permanent plot, 0.5 ha resample -->
    <defs>
     <path d="M 19.671875 64.796875 
L 19.671875 37.40625 
L 32.078125 37.40625 
Q 38.96875 37.40625 42.71875 40.96875 
Q 46.484375 44.53125 46.484375 51.125 
Q 46.484375 57.671875 42.71875 61.234375 
Q 38.96875 64.796875 32.078125 64.796875 
z
M 9.8125 72.90625 
L 32.078125 72.90625 
Q 44.34375 72.90625 50.609375 67.359375 
Q 56.890625 61.8125 56.890625 51.125 
Q 56.890625 40.328125 50.609375 34.8125 
Q 44.34375 29.296875 32.078125 29.296875 
L 19.671875 29.296875 
L 19.671875 0 
L 9.8125 0 
z
" id="DejaVuSans-80"/>
     <path d="M 30.609375 48.390625 
Q 23.390625 48.390625 19.1875 42.75 
Q 14.984375 37.109375 14.984375 27.296875 
Q 14.984375 17.484375 19.15625 11.84375 
Q 23.34375 6.203125 30.609375 6.203125 
Q 37.796875 6.203125 41.984375 11.859375 
Q 46.1875 17.53125 46.1875 27.296875 
Q 46.1875 37.015625 41.984375 42.703125 
Q 37.796875 48.390625 30.609375 48.390625 
z
M 30.609375 56 
Q 42.328125 56 49.015625 48.375 
Q 55.71875 40.765625 55.71875 27.296875 
Q 55.71875 13.875 49.015625 6.21875 
Q 42.328125 -1.421875 30.609375 -1.421875 
Q 18.84375 -1.421875 12.171875 6.21875 
Q 5.515625 13.875 5.515625 27.296875 
Q 5.515625 40.765625 12.171875 48.375 
Q 18.84375 56 30.609375 56 
z
" id="DejaVuSans-111"/>
     <path d="M 11.71875 12.40625 
L 22.015625 12.40625 
L 22.015625 4 
L 14.015625 -11.625 
L 7.71875 -11.625 
L 11.71875 4 
z
" id="DejaVuSans-44"/>
     <path d="M 10.6875 12.40625 
L 21 12.40625 
L 21 0 
L 10.6875 0 
z
" id="DejaVuSans-46"/>
     <path d="M 54.890625 33.015625 
L 54.890625 0 
L 45.90625 0 
L 45.90625 32.71875 
Q 45.90625 40.484375 42.875 44.328125 
Q 39.84375 48.1875 33.796875 48.1875 
Q 26.515625 48.1875 22.3125 43.546875 
Q 18.109375 38.921875 18.109375 30.90625 
L 18.109375 0 
L 9.078125 0 
L 9.078125 75.984375 
L 18.109375 75.984375 
L 18.109375 46.1875 
Q 21.34375 51.125 25.703125 53.5625 
Q 30.078125 56 35.796875 56 
Q 45.21875 56 50.046875 50.171875 
Q 54.890625 44.34375 54.890625 33.015625 
z
" id="DejaVuSans-104"/>
    </defs>
    <g transform="translate(134.588672 54.48)scale(0.15 -0.15)">
     <use xlink:href="#DejaVuSans-80"/>
     <use x="60.255859" xlink:href="#DejaVuSans-101"/>
     <use x="121.779297" xlink:href="#DejaVuSans-114"/>
     <use x="162.876953" xlink:href="#DejaVuSans-109"/>
     <use x="260.289062" xlink:href="#DejaVuSans-97"/>
     <use x="321.568359" xlink:href="#DejaVuSans-110"/>
     <use x="384.947266" xlink:href="#DejaVuSans-101"/>
     <use x="446.470703" xlink:href="#DejaVuSans-110"/>
     <use x="509.849609" xlink:href="#DejaVuSans-116"/>
     <use x="549.058594" xlink:href="#DejaVuSans-32"/>
     <use x="580.845703" xlink:href="#DejaVuSans-112"/>
     <use x="644.322266" xlink:href="#DejaVuSans-108"/>
     <use x="672.105469" xlink:href="#DejaVuSans-111"/>
     <use x="733.287109" xlink:href="#DejaVuSans-116"/>
     <use x="772.496094" xlink:href="#DejaVuSans-44"/>
     <use x="804.283203" xlink:href="#DejaVuSans-32"/>
     <use x="836.070312" xlink:href="#DejaVuSans-48"/>
     <use x="899.693359" xlink:href="#DejaVuSans-46"/>
     <use x="931.480469" xlink:href="#DejaVuSans-53"/>
     <use x="995.103516" xlink:href="#DejaVuSans-32"/>
     <use x="1026.890625" xlink:href="#DejaVuSans-104"/>
     <use x="1090.269531" xlink:href="#DejaVuSans-97"/>
     <use x="1151.548828" xlink:href="#DejaVuSans-32"/>
     <use x="1183.335938" xlink:href="#DejaVuSans-114"/>
     <use x="1224.417969" xlink:href="#DejaVuSans-101"/>
     <use x="1285.941406" xlink:href="#DejaVuSans-115"/>
     <use x="1338.041016" xlink:href="#DejaVuSans-97"/>
     <use x="1399.320312" xlink:href="#DejaVuSans-109"/>
     <use x="1496.732422" xlink:href="#DejaVuSans-112"/>
     <use x="1560.208984" xlink:href="#DejaVuSans-108"/>
     <use x="1587.992188" xlink:href="#DejaVuSans-101"/>
    </g>
   </g>
   <g id="legend_1">
    <g id="patch_7">
     <path d="M 257.971875 436 
L 446.6 436 
Q 448.6 436 448.6 434 
L 448.6 361.609375 
Q 448.6 359.609375 446.6 359.609375 
L 257.971875 359.609375 
Q 255.971875 359.609375 255.971875 361.609375 
L 255.971875 434 
Q 255.971875 436 257.971875 436 
z
" style="fill:#ffffff;opacity:0.8;stroke:#cccccc;stroke-linejoin:miter;"/>
    </g>
    <g id="line2d_18">
     <path d="M 259.971875 367.707812 
L 279.971875 367.707812 
" style="fill:none;stroke:#008000;stroke-linecap:square;stroke-width:1.5;"/>
    </g>
    <g id="line2d_19"/>
    <g id="text_19">
     <!-- Observed tree species -->
     <defs>
      <path d="M 39.40625 66.21875 
Q 28.65625 66.21875 22.328125 58.203125 
Q 16.015625 50.203125 16.015625 36.375 
Q 16.015625 22.609375 22.328125 14.59375 
Q 28.65625 6.59375 39.40625 6.59375 
Q 50.140625 6.59375 56.421875 14.59375 
Q 62.703125 22.609375 62.703125 36.375 
Q 62.703125 50.203125 56.421875 58.203125 
Q 50.140625 66.21875 39.40625 66.21875 
z
M 39.40625 74.21875 
Q 54.734375 74.21875 63.90625 63.9375 
Q 73.09375 53.65625 73.09375 36.375 
Q 73.09375 19.140625 63.90625 8.859375 
Q 54.734375 -1.421875 39.40625 -1.421875 
Q 24.03125 -1.421875 14.8125 8.828125 
Q 5.609375 19.09375 5.609375 36.375 
Q 5.609375 53.65625 14.8125 63.9375 
Q 24.03125 74.21875 39.40625 74.21875 
z
" id="DejaVuSans-79"/>
      <path d="M 48.6875 27.296875 
Q 48.6875 37.203125 44.609375 42.84375 
Q 40.53125 48.484375 33.40625 48.484375 
Q 26.265625 48.484375 22.1875 42.84375 
Q 18.109375 37.203125 18.109375 27.296875 
Q 18.109375 17.390625 22.1875 11.75 
Q 26.265625 6.109375 33.40625 6.109375 
Q 40.53125 6.109375 44.609375 11.75 
Q 48.6875 17.390625 48.6875 27.296875 
z
M 18.109375 46.390625 
Q 20.953125 51.265625 25.265625 53.625 
Q 29.59375 56 35.59375 56 
Q 45.5625 56 51.78125 48.09375 
Q 58.015625 40.1875 58.015625 27.296875 
Q 58.015625 14.40625 51.78125 6.484375 
Q 45.5625 -1.421875 35.59375 -1.421875 
Q 29.59375 -1.421875 25.265625 0.953125 
Q 20.953125 3.328125 18.109375 8.203125 
L 18.109375 0 
L 9.078125 0 
L 9.078125 75.984375 
L 18.109375 75.984375 
z
" id="DejaVuSans-98"/>
      <path d="M 2.984375 54.6875 
L 12.5 54.6875 
L 29.59375 8.796875 
L 46.6875 54.6875 
L 56.203125 54.6875 
L 35.6875 0 
L 23.484375 0 
z
" id="DejaVuSans-118"/>
     </defs>
     <g transform="translate(287.971875 371.207812)scale(0.1 -0.1)">
      <use xlink:href="#DejaVuSans-79"/>
      <use x="78.710938" xlink:href="#DejaVuSans-98"/>
      <use x="142.1875" xlink:href="#DejaVuSans-115"/>
      <use x="194.287109" xlink:href="#DejaVuSans-101"/>
      <use x="255.810547" xlink:href="#DejaVuSans-114"/>
      <use x="296.923828" xlink:href="#DejaVuSans-118"/>
      <use x="356.103516" xlink:href="#DejaVuSans-101"/>
      <use x="417.626953" xlink:href="#DejaVuSans-100"/>
      <use x="481.103516" xlink:href="#DejaVuSans-32"/>
      <use x="512.890625" xlink:href="#DejaVuSans-116"/>
      <use x="552.099609" xlink:href="#DejaVuSans-114"/>
      <use x="593.181641" xlink:href="#DejaVuSans-101"/>
      <use x="654.705078" xlink:href="#DejaVuSans-101"/>
      <use x="716.228516" xlink:href="#DejaVuSans-32"/>
      <use x="748.015625" xlink:href="#DejaVuSans-115"/>
      <use x="800.115234" xlink:href="#DejaVuSans-112"/>
      <use x="863.591797" xlink:href="#DejaVuSans-101"/>
      <use x="925.115234" xlink:href="#DejaVuSans-99"/>
      <use x="980.095703" xlink:href="#DejaVuSans-105"/>
      <use x="1007.878906" xlink:href="#DejaVuSans-101"/>
      <use x="1069.402344" xlink:href="#DejaVuSans-115"/>
     </g>
    </g>
    <g id="line2d_20">
     <path d="M 259.971875 382.385937 
L 279.971875 382.385937 
" style="fill:none;stroke:#008000;stroke-dasharray:1.5,2.475;stroke-dashoffset:0;stroke-width:1.5;"/>
    </g>
    <g id="line2d_21"/>
    <g id="text_20">
     <!-- SAC predicted values -->
     <defs>
      <path d="M 53.515625 70.515625 
L 53.515625 60.890625 
Q 47.90625 63.578125 42.921875 64.890625 
Q 37.9375 66.21875 33.296875 66.21875 
Q 25.25 66.21875 20.875 63.09375 
Q 16.5 59.96875 16.5 54.203125 
Q 16.5 49.359375 19.40625 46.890625 
Q 22.3125 44.4375 30.421875 42.921875 
L 36.375 41.703125 
Q 47.40625 39.59375 52.65625 34.296875 
Q 57.90625 29 57.90625 20.125 
Q 57.90625 9.515625 50.796875 4.046875 
Q 43.703125 -1.421875 29.984375 -1.421875 
Q 24.8125 -1.421875 18.96875 -0.25 
Q 13.140625 0.921875 6.890625 3.21875 
L 6.890625 13.375 
Q 12.890625 10.015625 18.65625 8.296875 
Q 24.421875 6.59375 29.984375 6.59375 
Q 38.421875 6.59375 43.015625 9.90625 
Q 47.609375 13.234375 47.609375 19.390625 
Q 47.609375 24.75 44.3125 27.78125 
Q 41.015625 30.8125 33.5 32.328125 
L 27.484375 33.5 
Q 16.453125 35.6875 11.515625 40.375 
Q 6.59375 45.0625 6.59375 53.421875 
Q 6.59375 63.09375 13.40625 68.65625 
Q 20.21875 74.21875 32.171875 74.21875 
Q 37.3125 74.21875 42.625 73.28125 
Q 47.953125 72.359375 53.515625 70.515625 
z
" id="DejaVuSans-83"/>
      <path d="M 64.40625 67.28125 
L 64.40625 56.890625 
Q 59.421875 61.53125 53.78125 63.8125 
Q 48.140625 66.109375 41.796875 66.109375 
Q 29.296875 66.109375 22.65625 58.46875 
Q 16.015625 50.828125 16.015625 36.375 
Q 16.015625 21.96875 22.65625 14.328125 
Q 29.296875 6.6875 41.796875 6.6875 
Q 48.140625 6.6875 53.78125 8.984375 
Q 59.421875 11.28125 64.40625 15.921875 
L 64.40625 5.609375 
Q 59.234375 2.09375 53.4375 0.328125 
Q 47.65625 -1.421875 41.21875 -1.421875 
Q 24.65625 -1.421875 15.125 8.703125 
Q 5.609375 18.84375 5.609375 36.375 
Q 5.609375 53.953125 15.125 64.078125 
Q 24.65625 74.21875 41.21875 74.21875 
Q 47.75 74.21875 53.53125 72.484375 
Q 59.328125 70.75 64.40625 67.28125 
z
" id="DejaVuSans-67"/>
     </defs>
     <g transform="translate(287.971875 385.885937)scale(0.1 -0.1)">
      <use xlink:href="#DejaVuSans-83"/>
      <use x="63.492188" xlink:href="#DejaVuSans-65"/>
      <use x="131.884766" xlink:href="#DejaVuSans-67"/>
      <use x="201.708984" xlink:href="#DejaVuSans-32"/>
      <use x="233.496094" xlink:href="#DejaVuSans-112"/>
      <use x="296.972656" xlink:href="#DejaVuSans-114"/>
      <use x="338.054688" xlink:href="#DejaVuSans-101"/>
      <use x="399.578125" xlink:href="#DejaVuSans-100"/>
      <use x="463.054688" xlink:href="#DejaVuSans-105"/>
      <use x="490.837891" xlink:href="#DejaVuSans-99"/>
      <use x="545.818359" xlink:href="#DejaVuSans-116"/>
      <use x="585.027344" xlink:href="#DejaVuSans-101"/>
      <use x="646.550781" xlink:href="#DejaVuSans-100"/>
      <use x="710.027344" xlink:href="#DejaVuSans-32"/>
      <use x="741.814453" xlink:href="#DejaVuSans-118"/>
      <use x="800.994141" xlink:href="#DejaVuSans-97"/>
      <use x="862.273438" xlink:href="#DejaVuSans-108"/>
      <use x="890.056641" xlink:href="#DejaVuSans-117"/>
      <use x="953.435547" xlink:href="#DejaVuSans-101"/>
      <use x="1014.958984" xlink:href="#DejaVuSans-115"/>
     </g>
    </g>
    <g id="patch_8">
     <path d="M 259.971875 400.564062 
L 279.971875 400.564062 
L 279.971875 393.564062 
L 259.971875 393.564062 
z
" style="fill:#008000;opacity:0.4;stroke:#008000;stroke-linejoin:miter;"/>
    </g>
    <g id="text_21">
     <!-- SAC model standard deviation -->
     <g transform="translate(287.971875 400.564062)scale(0.1 -0.1)">
      <use xlink:href="#DejaVuSans-83"/>
      <use x="63.492188" xlink:href="#DejaVuSans-65"/>
      <use x="131.884766" xlink:href="#DejaVuSans-67"/>
      <use x="201.708984" xlink:href="#DejaVuSans-32"/>
      <use x="233.496094" xlink:href="#DejaVuSans-109"/>
      <use x="330.908203" xlink:href="#DejaVuSans-111"/>
      <use x="392.089844" xlink:href="#DejaVuSans-100"/>
      <use x="455.566406" xlink:href="#DejaVuSans-101"/>
      <use x="517.089844" xlink:href="#DejaVuSans-108"/>
      <use x="544.873047" xlink:href="#DejaVuSans-32"/>
      <use x="576.660156" xlink:href="#DejaVuSans-115"/>
      <use x="628.759766" xlink:href="#DejaVuSans-116"/>
      <use x="667.96875" xlink:href="#DejaVuSans-97"/>
      <use x="729.248047" xlink:href="#DejaVuSans-110"/>
      <use x="792.626953" xlink:href="#DejaVuSans-100"/>
      <use x="856.103516" xlink:href="#DejaVuSans-97"/>
      <use x="917.382812" xlink:href="#DejaVuSans-114"/>
      <use x="958.480469" xlink:href="#DejaVuSans-100"/>
      <use x="1021.957031" xlink:href="#DejaVuSans-32"/>
      <use x="1053.744141" xlink:href="#DejaVuSans-100"/>
      <use x="1117.220703" xlink:href="#DejaVuSans-101"/>
      <use x="1178.744141" xlink:href="#DejaVuSans-118"/>
      <use x="1237.923828" xlink:href="#DejaVuSans-105"/>
      <use x="1265.707031" xlink:href="#DejaVuSans-97"/>
      <use x="1326.986328" xlink:href="#DejaVuSans-116"/>
      <use x="1366.195312" xlink:href="#DejaVuSans-105"/>
      <use x="1393.978516" xlink:href="#DejaVuSans-111"/>
      <use x="1455.160156" xlink:href="#DejaVuSans-110"/>
     </g>
    </g>
    <g id="line2d_22">
     <path d="M 259.971875 411.742188 
L 279.971875 411.742188 
" style="fill:none;stroke:#ff0000;stroke-dasharray:5.55,2.4;stroke-dashoffset:0;stroke-width:1.5;"/>
    </g>
    <g id="text_22">
     <!-- Chao estimate -->
     <g transform="translate(287.971875 415.242188)scale(0.1 -0.1)">
      <use xlink:href="#DejaVuSans-67"/>
      <use x="69.824219" xlink:href="#DejaVuSans-104"/>
      <use x="133.203125" xlink:href="#DejaVuSans-97"/>
      <use x="194.482422" xlink:href="#DejaVuSans-111"/>
      <use x="255.664062" xlink:href="#DejaVuSans-32"/>
      <use x="287.451172" xlink:href="#DejaVuSans-101"/>
      <use x="348.974609" xlink:href="#DejaVuSans-115"/>
      <use x="401.074219" xlink:href="#DejaVuSans-116"/>
      <use x="440.283203" xlink:href="#DejaVuSans-105"/>
      <use x="468.066406" xlink:href="#DejaVuSans-109"/>
      <use x="565.478516" xlink:href="#DejaVuSans-97"/>
      <use x="626.757812" xlink:href="#DejaVuSans-116"/>
      <use x="665.966797" xlink:href="#DejaVuSans-101"/>
     </g>
    </g>
    <g id="patch_9">
     <path d="M 259.971875 429.920313 
L 279.971875 429.920313 
L 279.971875 422.920313 
L 259.971875 422.920313 
z
" style="fill:#ff0000;opacity:0.2;stroke:#ff0000;stroke-linejoin:miter;"/>
    </g>
    <g id="text_23">
     <!-- Standard error, Chao estimator -->
     <g transform="translate(287.971875 429.920313)scale(0.1 -0.1)">
      <use xlink:href="#DejaVuSans-83"/>
      <use x="63.476562" xlink:href="#DejaVuSans-116"/>
      <use x="102.685547" xlink:href="#DejaVuSans-97"/>
      <use x="163.964844" xlink:href="#DejaVuSans-110"/>
      <use x="227.34375" xlink:href="#DejaVuSans-100"/>
      <use x="290.820312" xlink:href="#DejaVuSans-97"/>
      <use x="352.099609" xlink:href="#DejaVuSans-114"/>
      <use x="393.197266" xlink:href="#DejaVuSans-100"/>
      <use x="456.673828" xlink:href="#DejaVuSans-32"/>
      <use x="488.460938" xlink:href="#DejaVuSans-101"/>
      <use x="549.984375" xlink:href="#DejaVuSans-114"/>
      <use x="591.082031" xlink:href="#DejaVuSans-114"/>
      <use x="632.164062" xlink:href="#DejaVuSans-111"/>
      <use x="693.345703" xlink:href="#DejaVuSans-114"/>
      <use x="734.458984" xlink:href="#DejaVuSans-44"/>
      <use x="766.246094" xlink:href="#DejaVuSans-32"/>
      <use x="798.033203" xlink:href="#DejaVuSans-67"/>
      <use x="867.857422" xlink:href="#DejaVuSans-104"/>
      <use x="931.236328" xlink:href="#DejaVuSans-97"/>
      <use x="992.515625" xlink:href="#DejaVuSans-111"/>
      <use x="1053.697266" xlink:href="#DejaVuSans-32"/>
      <use x="1085.484375" xlink:href="#DejaVuSans-101"/>
      <use x="1147.007812" xlink:href="#DejaVuSans-115"/>
      <use x="1199.107422" xlink:href="#DejaVuSans-116"/>
      <use x="1238.316406" xlink:href="#DejaVuSans-105"/>
      <use x="1266.099609" xlink:href="#DejaVuSans-109"/>
      <use x="1363.511719" xlink:href="#DejaVuSans-97"/>
      <use x="1424.791016" xlink:href="#DejaVuSans-116"/>
      <use x="1464" xlink:href="#DejaVuSans-111"/>
      <use x="1525.181641" xlink:href="#DejaVuSans-114"/>
     </g>
    </g>
   </g>
  </g>
 </g>
 <defs>
  <clipPath id="pa63ef2ac03">
   <rect height="380.52" width="390.6" x="63" y="60.48"/>
  </clipPath>
 </defs>
</svg>
