<?xml version="1.0" encoding="UTF-8" standalone="no"?>
<!-- Created with matplotlib (https://matplotlib.org/) -->

<svg
   xmlns:dc="http://purl.org/dc/elements/1.1/"
   xmlns:cc="http://creativecommons.org/ns#"
   xmlns:rdf="http://www.w3.org/1999/02/22-rdf-syntax-ns#"
   xmlns:svg="http://www.w3.org/2000/svg"
   xmlns="http://www.w3.org/2000/svg"
   xmlns:xlink="http://www.w3.org/1999/xlink"
   xmlns:sodipodi="http://sodipodi.sourceforge.net/DTD/sodipodi-0.dtd"
   xmlns:inkscape="http://www.inkscape.org/namespaces/inkscape"
   height="432pt"
   version="1.1"
   viewBox="0 0 432 432"
   width="432pt"
   id="svg572"
   sodipodi:docname="compareLinAsymptPredictions.svg"
   inkscape:version="0.92.5 (2060ec1f9f, 2020-04-08)"
   inkscape:export-filename="/home/daniel/Documents/analyses/losCedrosTrees/anaData/graphics/png/suppFig1_compareLinAsymptPredictions.png"
   inkscape:export-xdpi="200"
   inkscape:export-ydpi="200">
  <sodipodi:namedview
     pagecolor="#ffffff"
     bordercolor="#666666"
     borderopacity="1"
     objecttolerance="10"
     gridtolerance="10"
     guidetolerance="10"
     inkscape:pageopacity="1"
     inkscape:pageshadow="2"
     inkscape:window-width="1528"
     inkscape:window-height="836"
     id="namedview574"
     showgrid="false"
     inkscape:zoom="1.1588694"
     inkscape:cx="75.724147"
     inkscape:cy="288"
     inkscape:window-x="72"
     inkscape:window-y="27"
     inkscape:window-maximized="1"
     inkscape:current-layer="svg572" />
  <metadata
     id="metadata2">
    <rdf:RDF>
      <cc:Work>
        <dc:type
           rdf:resource="http://purl.org/dc/dcmitype/StillImage" />
        <dc:date>2021-07-30T12:25:45.566365</dc:date>
        <dc:format>image/svg+xml</dc:format>
        <dc:creator>
          <cc:Agent>
            <dc:title>Matplotlib v3.3.2, https://matplotlib.org/</dc:title>
          </cc:Agent>
        </dc:creator>
        <dc:title></dc:title>
      </cc:Work>
    </rdf:RDF>
  </metadata>
  <defs
     id="defs6">
    <style
       type="text/css"
       id="style4">*{stroke-linecap:butt;stroke-linejoin:round;}</style>
  </defs>
  <g
     id="figure_1">
    <g
       id="patch_1">
      <path
         d="M 0 432  L 432 432  L 432 0  L 0 0  z "
         style="fill:none;"
         id="path8" />
    </g>
    <g
       id="axes_1">
      <g
         id="patch_2">
        <path
           d="M 54 378  L 388.8 378  L 388.8 51.84  L 54 51.84  z "
           style="fill:#ffffff;"
           id="path11" />
      </g>
      <g
         id="PolyCollection_1">
        <defs
           id="defs15">
          <path
             d="M 69.218182 -68.825455  L 69.218182 -69.742942  L 70.548785 -69.738285  L 71.879387 -69.724699  L 73.20999 -69.703302  L 74.540593 -69.675828  L 75.871196 -69.645376  L 77.201798 -69.612625  L 78.532401 -69.583478  L 79.863004 -69.55759  L 81.193607 -69.536886  L 82.52421 -69.522667  L 83.854812 -69.515529  L 85.185415 -69.518096  L 86.516018 -69.528175  L 87.846621 -69.544976  L 89.177223 -69.564734  L 90.507826 -69.590563  L 91.838429 -69.616917  L 93.169032 -69.647309  L 94.499634 -69.676886  L 95.830237 -69.707309  L 97.16084 -69.741599  L 98.491443 -69.779918  L 99.822046 -69.823795  L 101.152648 -69.869624  L 102.483251 -69.927789  L 103.813854 -69.991028  L 105.144457 -70.066591  L 106.475059 -70.155213  L 107.805662 -70.252812  L 109.136265 -70.360681  L 110.466868 -70.480327  L 111.79747 -70.608413  L 113.128073 -70.742929  L 114.458676 -70.881511  L 115.789279 -71.021597  L 117.119882 -71.160597  L 118.450484 -71.296064  L 119.781087 -71.423116  L 121.11169 -71.546963  L 122.442293 -71.660382  L 123.772895 -71.770171  L 125.103498 -71.877371  L 126.434101 -71.978067  L 127.764704 -72.088895  L 129.095306 -72.198953  L 130.425909 -72.31649  L 131.756512 -72.446518  L 133.087115 -72.599586  L 134.417718 -72.777557  L 135.74832 -72.996278  L 137.078923 -73.256577  L 138.409526 -73.559375  L 139.740129 -73.909181  L 141.070731 -74.308454  L 142.401334 -74.756551  L 143.731937 -75.250333  L 145.06254 -75.786759  L 146.393142 -76.358724  L 147.723745 -76.958104  L 149.054348 -77.569956  L 150.384951 -78.177964  L 151.715554 -78.77657  L 153.046156 -79.346626  L 154.376759 -79.880739  L 155.707362 -80.356484  L 157.037965 -80.778059  L 158.368567 -81.133101  L 159.69917 -81.424605  L 161.029773 -81.647914  L 162.360376 -81.823206  L 163.690978 -81.951923  L 165.021581 -82.028867  L 166.352184 -82.075846  L 167.682787 -82.092787  L 169.01339 -82.084775  L 170.343992 -82.080238  L 171.674595 -82.085553  L 173.005198 -82.082785  L 174.335801 -82.103633  L 175.666403 -82.144605  L 176.997006 -82.200482  L 178.327609 -82.30252  L 179.658212 -82.435165  L 180.988814 -82.632926  L 182.319417 -82.894171  L 183.65002 -83.225321  L 184.980623 -83.660565  L 186.311226 -84.195031  L 187.641828 -84.887663  L 188.972431 -85.725374  L 190.303034 -86.72389  L 191.633637 -87.931544  L 192.964239 -89.349299  L 194.294842 -91.034259  L 195.625445 -92.981015  L 196.956048 -95.205313  L 198.28665 -97.713166  L 199.617253 -100.555206  L 200.947856 -103.778525  L 202.278459 -107.364546  L 203.609062 -111.339252  L 204.939664 -115.708449  L 206.270267 -120.538481  L 207.60087 -125.8118  L 208.931473 -131.510669  L 210.262075 -137.670303  L 211.592678 -144.28826  L 212.923281 -151.38787  L 214.253884 -158.943481  L 215.584486 -166.925342  L 216.915089 -175.291762  L 218.245692 -184.013438  L 219.576295 -193.020902  L 220.906898 -202.289624  L 222.2375 -211.686508  L 223.568103 -221.122443  L 224.898706 -230.451124  L 226.229309 -239.583502  L 227.559911 -248.387544  L 228.890514 -256.735394  L 230.221117 -264.4818  L 231.55172 -271.474149  L 232.882322 -277.61848  L 234.212925 -282.840741  L 235.543528 -287.063106  L 236.874131 -290.231757  L 238.204734 -292.303109  L 239.535336 -293.302702  L 240.865939 -293.213479  L 242.196542 -292.120081  L 243.527145 -290.057054  L 244.857747 -287.1329  L 246.18835 -283.402341  L 247.518953 -278.971848  L 248.849556 -273.914559  L 250.180158 -268.323644  L 251.510761 -262.332861  L 252.841364 -256.010146  L 254.171967 -249.421537  L 255.50257 -242.647071  L 256.833172 -235.740345  L 258.163775 -228.780421  L 259.494378 -221.832154  L 260.824981 -214.970927  L 262.155583 -208.181772  L 263.486186 -201.510483  L 264.816789 -195.032643  L 266.147392 -188.754677  L 267.477994 -182.707844  L 268.808597 -176.865508  L 270.1392 -171.285959  L 271.469803 -165.982984  L 272.800406 -160.922613  L 274.131008 -156.120282  L 275.461611 -151.541752  L 276.792214 -147.192879  L 278.122817 -143.078638  L 279.453419 -139.179262  L 280.784022 -135.461396  L 282.114625 -131.91201  L 283.445228 -128.478092  L 284.77583 -125.192894  L 286.106433 -122.028775  L 287.437036 -118.984039  L 288.767639 -116.021059  L 290.098242 -113.132665  L 291.428844 -110.314901  L 292.759447 -107.580577  L 294.09005 -104.950943  L 295.420653 -102.387619  L 296.751255 -99.898307  L 298.081858 -97.515514  L 299.412461 -95.23304  L 300.743064 -93.083984  L 302.073666 -91.052839  L 303.404269 -89.162656  L 304.734872 -87.397945  L 306.065475 -85.764257  L 307.396078 -84.254018  L 308.72668 -82.893741  L 310.057283 -81.64605  L 311.387886 -80.539059  L 312.718489 -79.523872  L 314.049091 -78.60469  L 315.379694 -77.773615  L 316.710297 -77.030521  L 318.0409 -76.364827  L 319.371502 -75.76662  L 320.702105 -75.233755  L 322.032708 -74.756137  L 323.363311 -74.309777  L 324.693913 -73.929717  L 326.024516 -73.594536  L 327.355119 -73.302544  L 328.685722 -73.060284  L 330.016325 -72.866947  L 331.346927 -72.718409  L 332.67753 -72.617261  L 334.008133 -72.572959  L 334.008133 -68.825455  L 334.008133 -68.825455  L 332.67753 -68.825455  L 331.346927 -68.825455  L 330.016325 -68.825455  L 328.685722 -68.825455  L 327.355119 -68.825455  L 326.024516 -68.825455  L 324.693913 -68.825455  L 323.363311 -68.825455  L 322.032708 -68.825455  L 320.702105 -68.825455  L 319.371502 -68.825455  L 318.0409 -68.825455  L 316.710297 -68.825455  L 315.379694 -68.825455  L 314.049091 -68.825455  L 312.718489 -68.825455  L 311.387886 -68.825455  L 310.057283 -68.825455  L 308.72668 -68.825455  L 307.396078 -68.825455  L 306.065475 -68.825455  L 304.734872 -68.825455  L 303.404269 -68.825455  L 302.073666 -68.825455  L 300.743064 -68.825455  L 299.412461 -68.825455  L 298.081858 -68.825455  L 296.751255 -68.825455  L 295.420653 -68.825455  L 294.09005 -68.825455  L 292.759447 -68.825455  L 291.428844 -68.825455  L 290.098242 -68.825455  L 288.767639 -68.825455  L 287.437036 -68.825455  L 286.106433 -68.825455  L 284.77583 -68.825455  L 283.445228 -68.825455  L 282.114625 -68.825455  L 280.784022 -68.825455  L 279.453419 -68.825455  L 278.122817 -68.825455  L 276.792214 -68.825455  L 275.461611 -68.825455  L 274.131008 -68.825455  L 272.800406 -68.825455  L 271.469803 -68.825455  L 270.1392 -68.825455  L 268.808597 -68.825455  L 267.477994 -68.825455  L 266.147392 -68.825455  L 264.816789 -68.825455  L 263.486186 -68.825455  L 262.155583 -68.825455  L 260.824981 -68.825455  L 259.494378 -68.825455  L 258.163775 -68.825455  L 256.833172 -68.825455  L 255.50257 -68.825455  L 254.171967 -68.825455  L 252.841364 -68.825455  L 251.510761 -68.825455  L 250.180158 -68.825455  L 248.849556 -68.825455  L 247.518953 -68.825455  L 246.18835 -68.825455  L 244.857747 -68.825455  L 243.527145 -68.825455  L 242.196542 -68.825455  L 240.865939 -68.825455  L 239.535336 -68.825455  L 238.204734 -68.825455  L 236.874131 -68.825455  L 235.543528 -68.825455  L 234.212925 -68.825455  L 232.882322 -68.825455  L 231.55172 -68.825455  L 230.221117 -68.825455  L 228.890514 -68.825455  L 227.559911 -68.825455  L 226.229309 -68.825455  L 224.898706 -68.825455  L 223.568103 -68.825455  L 222.2375 -68.825455  L 220.906898 -68.825455  L 219.576295 -68.825455  L 218.245692 -68.825455  L 216.915089 -68.825455  L 215.584486 -68.825455  L 214.253884 -68.825455  L 212.923281 -68.825455  L 211.592678 -68.825455  L 210.262075 -68.825455  L 208.931473 -68.825455  L 207.60087 -68.825455  L 206.270267 -68.825455  L 204.939664 -68.825455  L 203.609062 -68.825455  L 202.278459 -68.825455  L 200.947856 -68.825455  L 199.617253 -68.825455  L 198.28665 -68.825455  L 196.956048 -68.825455  L 195.625445 -68.825455  L 194.294842 -68.825455  L 192.964239 -68.825455  L 191.633637 -68.825455  L 190.303034 -68.825455  L 188.972431 -68.825455  L 187.641828 -68.825455  L 186.311226 -68.825455  L 184.980623 -68.825455  L 183.65002 -68.825455  L 182.319417 -68.825455  L 180.988814 -68.825455  L 179.658212 -68.825455  L 178.327609 -68.825455  L 176.997006 -68.825455  L 175.666403 -68.825455  L 174.335801 -68.825455  L 173.005198 -68.825455  L 171.674595 -68.825455  L 170.343992 -68.825455  L 169.01339 -68.825455  L 167.682787 -68.825455  L 166.352184 -68.825455  L 165.021581 -68.825455  L 163.690978 -68.825455  L 162.360376 -68.825455  L 161.029773 -68.825455  L 159.69917 -68.825455  L 158.368567 -68.825455  L 157.037965 -68.825455  L 155.707362 -68.825455  L 154.376759 -68.825455  L 153.046156 -68.825455  L 151.715554 -68.825455  L 150.384951 -68.825455  L 149.054348 -68.825455  L 147.723745 -68.825455  L 146.393142 -68.825455  L 145.06254 -68.825455  L 143.731937 -68.825455  L 142.401334 -68.825455  L 141.070731 -68.825455  L 139.740129 -68.825455  L 138.409526 -68.825455  L 137.078923 -68.825455  L 135.74832 -68.825455  L 134.417718 -68.825455  L 133.087115 -68.825455  L 131.756512 -68.825455  L 130.425909 -68.825455  L 129.095306 -68.825455  L 127.764704 -68.825455  L 126.434101 -68.825455  L 125.103498 -68.825455  L 123.772895 -68.825455  L 122.442293 -68.825455  L 121.11169 -68.825455  L 119.781087 -68.825455  L 118.450484 -68.825455  L 117.119882 -68.825455  L 115.789279 -68.825455  L 114.458676 -68.825455  L 113.128073 -68.825455  L 111.79747 -68.825455  L 110.466868 -68.825455  L 109.136265 -68.825455  L 107.805662 -68.825455  L 106.475059 -68.825455  L 105.144457 -68.825455  L 103.813854 -68.825455  L 102.483251 -68.825455  L 101.152648 -68.825455  L 99.822046 -68.825455  L 98.491443 -68.825455  L 97.16084 -68.825455  L 95.830237 -68.825455  L 94.499634 -68.825455  L 93.169032 -68.825455  L 91.838429 -68.825455  L 90.507826 -68.825455  L 89.177223 -68.825455  L 87.846621 -68.825455  L 86.516018 -68.825455  L 85.185415 -68.825455  L 83.854812 -68.825455  L 82.52421 -68.825455  L 81.193607 -68.825455  L 79.863004 -68.825455  L 78.532401 -68.825455  L 77.201798 -68.825455  L 75.871196 -68.825455  L 74.540593 -68.825455  L 73.20999 -68.825455  L 71.879387 -68.825455  L 70.548785 -68.825455  L 69.218182 -68.825455  z "
             id="m5ad8757302"
             style="stroke:#0000ff;stroke-opacity:0;" />
        </defs>
        <g
           clip-path="url(#p6e5de5f677)"
           id="g19">
          <use
             style="fill:#0000ff;fill-opacity:0;stroke:#0000ff;stroke-opacity:0;"
             x="0"
             xlink:href="#m5ad8757302"
             y="432"
             id="use17" />
        </g>
      </g>
      <g
         id="PolyCollection_2">
        <defs
           id="defs23">
          <path
             d="M 201.336708 -68.825455  L 201.336708 -110.376297  L 202.202261 -110.971434  L 203.067815 -112.795151  L 203.933368 -115.713835  L 204.798921 -119.791278  L 205.664475 -124.984373  L 206.530028 -131.177018  L 207.395581 -138.355098  L 208.261135 -146.392052  L 209.126688 -155.235414  L 209.992241 -164.838342  L 210.857795 -175.04251  L 211.723348 -185.748891  L 212.588901 -196.843456  L 213.454455 -208.278807  L 214.320008 -219.855473  L 215.185561 -231.472423  L 216.051114 -242.957657  L 216.916668 -254.239781  L 217.782221 -265.19331  L 218.647774 -275.711593  L 219.513328 -285.681205  L 220.378881 -294.992937  L 221.244434 -303.583689  L 222.109988 -311.40759  L 222.975541 -318.359996  L 223.841094 -324.405382  L 224.706648 -329.590571  L 225.572201 -333.846544  L 226.437754 -337.205267  L 227.303308 -339.692632  L 228.168861 -341.331295  L 229.034414 -342.165508  L 229.899968 -342.240717  L 230.765521 -341.602904  L 231.631074 -340.338055  L 232.496628 -338.488454  L 233.362181 -336.115705  L 234.227734 -333.229539  L 235.093287 -329.935297  L 235.958841 -326.290528  L 236.824394 -322.357324  L 237.689947 -318.134051  L 238.555501 -313.699284  L 239.421054 -309.017487  L 240.286607 -304.11118  L 241.152161 -299.096286  L 242.017714 -293.869089  L 242.883267 -288.518145  L 243.748821 -283.04597  L 244.614374 -277.471174  L 245.479927 -271.772922  L 246.345481 -265.999151  L 247.211034 -260.184899  L 248.076587 -254.369101  L 248.942141 -248.548801  L 249.807694 -242.791215  L 250.673247 -237.03943  L 251.5388 -231.43916  L 252.404354 -225.947196  L 253.269907 -220.590975  L 254.13546 -215.351515  L 255.001014 -210.334872  L 255.866567 -205.524623  L 256.73212 -200.929789  L 257.597674 -196.535257  L 258.463227 -192.294033  L 259.32878 -188.276084  L 260.194334 -184.462012  L 261.059887 -180.858448  L 261.92544 -177.432307  L 262.790994 -174.196445  L 263.656547 -171.163434  L 264.5221 -168.306075  L 265.387654 -165.53437  L 266.253207 -162.925414  L 267.11876 -160.402938  L 267.984314 -157.961148  L 268.849867 -155.578442  L 269.71542 -153.231047  L 270.580973 -150.886644  L 271.446527 -148.556025  L 272.31208 -146.199625  L 273.177633 -143.845103  L 274.043187 -141.44946  L 274.90874 -139.066504  L 275.774293 -136.660245  L 276.639847 -134.222786  L 277.5054 -131.793432  L 278.370953 -129.376155  L 279.236507 -126.999651  L 280.10206 -124.639878  L 280.967613 -122.339205  L 281.833167 -120.056759  L 282.69872 -117.849175  L 283.564273 -115.713967  L 284.429827 -113.652276  L 285.29538 -111.683091  L 286.160933 -109.809005  L 287.026486 -108.01452  L 287.89204 -106.28651  L 288.757593 -104.665761  L 289.623146 -103.157902  L 290.4887 -101.729267  L 291.354253 -100.408361  L 292.219806 -99.141183  L 293.08536 -97.954963  L 293.950913 -96.825147  L 294.816466 -95.750756  L 295.68202 -94.711687  L 296.547573 -93.701511  L 297.413126 -92.711902  L 298.27868 -91.719691  L 299.144233 -90.764576  L 300.009786 -89.780473  L 300.87534 -88.796271  L 301.740893 -87.81523  L 302.606446 -86.84753  L 303.472 -85.865022  L 304.337553 -84.904802  L 305.203106 -83.96138  L 306.068659 -83.053062  L 306.934213 -82.157569  L 307.799766 -81.307924  L 308.665319 -80.495257  L 309.530873 -79.73238  L 310.396426 -79.0229  L 311.261979 -78.362879  L 312.127533 -77.748588  L 312.993086 -77.176085  L 313.858639 -76.641005  L 314.724193 -76.160816  L 315.589746 -75.7002  L 316.455299 -75.274505  L 317.320853 -74.874475  L 318.186406 -74.496833  L 319.051959 -74.125345  L 319.917513 -73.773857  L 320.783066 -73.434467  L 321.648619 -73.096571  L 322.514172 -72.776109  L 323.379726 -72.461994  L 324.245279 -72.15071  L 325.110832 -71.857743  L 325.976386 -71.577426  L 326.841939 -71.309582  L 327.707492 -71.057436  L 328.573046 -70.831705  L 329.438599 -70.628134  L 330.304152 -70.440746  L 331.169706 -70.2734  L 332.035259 -70.122261  L 332.900812 -69.995054  L 333.766366 -69.879128  L 334.631919 -69.779224  L 335.497472 -69.686499  L 336.363026 -69.602883  L 337.228579 -69.52639  L 338.094132 -69.45821  L 338.959686 -69.390621  L 339.825239 -69.329758  L 340.690792 -69.26861  L 341.556345 -69.211144  L 342.421899 -69.157385  L 343.287452 -69.107524  L 344.153005 -69.064609  L 345.018559 -69.025121  L 345.884112 -68.98955  L 346.749665 -68.958174  L 347.615219 -68.931067  L 348.480772 -68.905338  L 349.346325 -68.887289  L 350.211879 -68.872481  L 351.077432 -68.860593  L 351.942985 -68.85125  L 352.808539 -68.84406  L 353.674092 -68.842859  L 354.539645 -68.845134  L 355.405199 -68.847193  L 356.270752 -68.852039  L 357.136305 -68.857245  L 358.001858 -68.869856  L 358.867412 -68.886388  L 359.732965 -68.907619  L 360.598518 -68.934316  L 361.464072 -68.967173  L 362.329625 -69.00673  L 363.195178 -69.053288  L 364.060732 -69.106811  L 364.926285 -69.166852  L 365.791838 -69.232485  L 366.657392 -69.302277  L 367.522945 -69.3743  L 368.388498 -69.44619  L 369.254052 -69.515259  L 370.119605 -69.578652  L 370.985158 -69.633536  L 371.850712 -69.677308  L 372.716265 -69.707799  L 373.581818 -69.723451  L 373.581818 -68.825455  L 373.581818 -68.825455  L 372.716265 -68.825455  L 371.850712 -68.825455  L 370.985158 -68.825455  L 370.119605 -68.825455  L 369.254052 -68.825455  L 368.388498 -68.825455  L 367.522945 -68.825455  L 366.657392 -68.825455  L 365.791838 -68.825455  L 364.926285 -68.825455  L 364.060732 -68.825455  L 363.195178 -68.825455  L 362.329625 -68.825455  L 361.464072 -68.825455  L 360.598518 -68.825455  L 359.732965 -68.825455  L 358.867412 -68.825455  L 358.001858 -68.825455  L 357.136305 -68.825455  L 356.270752 -68.825455  L 355.405199 -68.825455  L 354.539645 -68.825455  L 353.674092 -68.825455  L 352.808539 -68.825455  L 351.942985 -68.825455  L 351.077432 -68.825455  L 350.211879 -68.825455  L 349.346325 -68.825455  L 348.480772 -68.825455  L 347.615219 -68.825455  L 346.749665 -68.825455  L 345.884112 -68.825455  L 345.018559 -68.825455  L 344.153005 -68.825455  L 343.287452 -68.825455  L 342.421899 -68.825455  L 341.556345 -68.825455  L 340.690792 -68.825455  L 339.825239 -68.825455  L 338.959686 -68.825455  L 338.094132 -68.825455  L 337.228579 -68.825455  L 336.363026 -68.825455  L 335.497472 -68.825455  L 334.631919 -68.825455  L 333.766366 -68.825455  L 332.900812 -68.825455  L 332.035259 -68.825455  L 331.169706 -68.825455  L 330.304152 -68.825455  L 329.438599 -68.825455  L 328.573046 -68.825455  L 327.707492 -68.825455  L 326.841939 -68.825455  L 325.976386 -68.825455  L 325.110832 -68.825455  L 324.245279 -68.825455  L 323.379726 -68.825455  L 322.514172 -68.825455  L 321.648619 -68.825455  L 320.783066 -68.825455  L 319.917513 -68.825455  L 319.051959 -68.825455  L 318.186406 -68.825455  L 317.320853 -68.825455  L 316.455299 -68.825455  L 315.589746 -68.825455  L 314.724193 -68.825455  L 313.858639 -68.825455  L 312.993086 -68.825455  L 312.127533 -68.825455  L 311.261979 -68.825455  L 310.396426 -68.825455  L 309.530873 -68.825455  L 308.665319 -68.825455  L 307.799766 -68.825455  L 306.934213 -68.825455  L 306.068659 -68.825455  L 305.203106 -68.825455  L 304.337553 -68.825455  L 303.472 -68.825455  L 302.606446 -68.825455  L 301.740893 -68.825455  L 300.87534 -68.825455  L 300.009786 -68.825455  L 299.144233 -68.825455  L 298.27868 -68.825455  L 297.413126 -68.825455  L 296.547573 -68.825455  L 295.68202 -68.825455  L 294.816466 -68.825455  L 293.950913 -68.825455  L 293.08536 -68.825455  L 292.219806 -68.825455  L 291.354253 -68.825455  L 290.4887 -68.825455  L 289.623146 -68.825455  L 288.757593 -68.825455  L 287.89204 -68.825455  L 287.026486 -68.825455  L 286.160933 -68.825455  L 285.29538 -68.825455  L 284.429827 -68.825455  L 283.564273 -68.825455  L 282.69872 -68.825455  L 281.833167 -68.825455  L 280.967613 -68.825455  L 280.10206 -68.825455  L 279.236507 -68.825455  L 278.370953 -68.825455  L 277.5054 -68.825455  L 276.639847 -68.825455  L 275.774293 -68.825455  L 274.90874 -68.825455  L 274.043187 -68.825455  L 273.177633 -68.825455  L 272.31208 -68.825455  L 271.446527 -68.825455  L 270.580973 -68.825455  L 269.71542 -68.825455  L 268.849867 -68.825455  L 267.984314 -68.825455  L 267.11876 -68.825455  L 266.253207 -68.825455  L 265.387654 -68.825455  L 264.5221 -68.825455  L 263.656547 -68.825455  L 262.790994 -68.825455  L 261.92544 -68.825455  L 261.059887 -68.825455  L 260.194334 -68.825455  L 259.32878 -68.825455  L 258.463227 -68.825455  L 257.597674 -68.825455  L 256.73212 -68.825455  L 255.866567 -68.825455  L 255.001014 -68.825455  L 254.13546 -68.825455  L 253.269907 -68.825455  L 252.404354 -68.825455  L 251.5388 -68.825455  L 250.673247 -68.825455  L 249.807694 -68.825455  L 248.942141 -68.825455  L 248.076587 -68.825455  L 247.211034 -68.825455  L 246.345481 -68.825455  L 245.479927 -68.825455  L 244.614374 -68.825455  L 243.748821 -68.825455  L 242.883267 -68.825455  L 242.017714 -68.825455  L 241.152161 -68.825455  L 240.286607 -68.825455  L 239.421054 -68.825455  L 238.555501 -68.825455  L 237.689947 -68.825455  L 236.824394 -68.825455  L 235.958841 -68.825455  L 235.093287 -68.825455  L 234.227734 -68.825455  L 233.362181 -68.825455  L 232.496628 -68.825455  L 231.631074 -68.825455  L 230.765521 -68.825455  L 229.899968 -68.825455  L 229.034414 -68.825455  L 228.168861 -68.825455  L 227.303308 -68.825455  L 226.437754 -68.825455  L 225.572201 -68.825455  L 224.706648 -68.825455  L 223.841094 -68.825455  L 222.975541 -68.825455  L 222.109988 -68.825455  L 221.244434 -68.825455  L 220.378881 -68.825455  L 219.513328 -68.825455  L 218.647774 -68.825455  L 217.782221 -68.825455  L 216.916668 -68.825455  L 216.051114 -68.825455  L 215.185561 -68.825455  L 214.320008 -68.825455  L 213.454455 -68.825455  L 212.588901 -68.825455  L 211.723348 -68.825455  L 210.857795 -68.825455  L 209.992241 -68.825455  L 209.126688 -68.825455  L 208.261135 -68.825455  L 207.395581 -68.825455  L 206.530028 -68.825455  L 205.664475 -68.825455  L 204.798921 -68.825455  L 203.933368 -68.825455  L 203.067815 -68.825455  L 202.202261 -68.825455  L 201.336708 -68.825455  z "
             id="mc1929edfb4"
             style="stroke:#ff0000;stroke-opacity:0;" />
        </defs>
        <g
           clip-path="url(#p6e5de5f677)"
           id="g27">
          <use
             style="fill:#ff0000;fill-opacity:0;stroke:#ff0000;stroke-opacity:0;"
             x="0"
             xlink:href="#mc1929edfb4"
             y="432"
             id="use25" />
        </g>
      </g>
      <g
         id="matplotlib.axis_1">
        <g
           id="xtick_1">
          <g
             id="line2d_1">
            <defs
               id="defs31">
              <path
                 d="M 0 0  L 0 3.5  "
                 id="ma94ec012ae"
                 style="stroke:#000000;stroke-width:0.8;" />
            </defs>
            <g
               id="g35">
              <use
                 style="stroke:#000000;stroke-width:0.8;"
                 x="55.767873"
                 xlink:href="#ma94ec012ae"
                 y="378"
                 id="use33" />
            </g>
          </g>
          <g
             id="text_1">
            <!-- −0.75 -->
            <g
               transform="translate(29.49499 398.028606)scale(0.171464 -0.171464)"
               id="g55">
              <defs
                 id="defs43">
                <path
                   d="M 10.59375 35.5  L 73.1875 35.5  L 73.1875 27.203125  L 10.59375 27.203125  z "
                   id="DejaVuSans-8722" />
                <path
                   d="M 31.78125 66.40625  Q 24.171875 66.40625 20.328125 58.90625  Q 16.5 51.421875 16.5 36.375  Q 16.5 21.390625 20.328125 13.890625  Q 24.171875 6.390625 31.78125 6.390625  Q 39.453125 6.390625 43.28125 13.890625  Q 47.125 21.390625 47.125 36.375  Q 47.125 51.421875 43.28125 58.90625  Q 39.453125 66.40625 31.78125 66.40625  z M 31.78125 74.21875  Q 44.046875 74.21875 50.515625 64.515625  Q 56.984375 54.828125 56.984375 36.375  Q 56.984375 17.96875 50.515625 8.265625  Q 44.046875 -1.421875 31.78125 -1.421875  Q 19.53125 -1.421875 13.0625 8.265625  Q 6.59375 17.96875 6.59375 36.375  Q 6.59375 54.828125 13.0625 64.515625  Q 19.53125 74.21875 31.78125 74.21875  z "
                   id="DejaVuSans-48" />
                <path
                   d="M 10.6875 12.40625  L 21 12.40625  L 21 0  L 10.6875 0  z "
                   id="DejaVuSans-46" />
                <path
                   d="M 8.203125 72.90625  L 55.078125 72.90625  L 55.078125 68.703125  L 28.609375 0  L 18.3125 0  L 43.21875 64.59375  L 8.203125 64.59375  z "
                   id="DejaVuSans-55" />
                <path
                   d="M 10.796875 72.90625  L 49.515625 72.90625  L 49.515625 64.59375  L 19.828125 64.59375  L 19.828125 46.734375  Q 21.96875 47.46875 24.109375 47.828125  Q 26.265625 48.1875 28.421875 48.1875  Q 40.625 48.1875 47.75 41.5  Q 54.890625 34.8125 54.890625 23.390625  Q 54.890625 11.625 47.5625 5.09375  Q 40.234375 -1.421875 26.90625 -1.421875  Q 22.3125 -1.421875 17.546875 -0.640625  Q 12.796875 0.140625 7.71875 1.703125  L 7.71875 11.625  Q 12.109375 9.234375 16.796875 8.0625  Q 21.484375 6.890625 26.703125 6.890625  Q 35.15625 6.890625 40.078125 11.328125  Q 45.015625 15.765625 45.015625 23.390625  Q 45.015625 31 40.078125 35.4375  Q 35.15625 39.890625 26.703125 39.890625  Q 22.75 39.890625 18.8125 39.015625  Q 14.890625 38.140625 10.796875 36.28125  z "
                   id="DejaVuSans-53" />
              </defs>
              <use
                 xlink:href="#DejaVuSans-8722"
                 id="use45" />
              <use
                 x="83.789062"
                 xlink:href="#DejaVuSans-48"
                 id="use47" />
              <use
                 x="147.412109"
                 xlink:href="#DejaVuSans-46"
                 id="use49" />
              <use
                 x="179.199219"
                 xlink:href="#DejaVuSans-55"
                 id="use51" />
              <use
                 x="242.822266"
                 xlink:href="#DejaVuSans-53"
                 id="use53" />
            </g>
          </g>
        </g>
        <g
           id="xtick_2">
          <g
             id="line2d_2">
            <g
               id="g61">
              <use
                 style="stroke:#000000;stroke-width:0.8;"
                 x="117.935288"
                 xlink:href="#ma94ec012ae"
                 y="378"
                 id="use59" />
            </g>
          </g>
          <g
             id="text_2">
            <!-- −0.50 -->
            <g
               transform="translate(91.662405 398.028606)scale(0.171464 -0.171464)"
               id="g74">
              <use
                 xlink:href="#DejaVuSans-8722"
                 id="use64" />
              <use
                 x="83.789062"
                 xlink:href="#DejaVuSans-48"
                 id="use66" />
              <use
                 x="147.412109"
                 xlink:href="#DejaVuSans-46"
                 id="use68" />
              <use
                 x="179.199219"
                 xlink:href="#DejaVuSans-53"
                 id="use70" />
              <use
                 x="242.822266"
                 xlink:href="#DejaVuSans-48"
                 id="use72" />
            </g>
          </g>
        </g>
        <g
           id="xtick_3">
          <g
             id="line2d_3">
            <g
               id="g80">
              <use
                 style="stroke:#000000;stroke-width:0.8;"
                 x="180.102703"
                 xlink:href="#ma94ec012ae"
                 y="378"
                 id="use78" />
            </g>
          </g>
          <g
             id="text_3">
            <!-- −0.25 -->
            <g
               transform="translate(153.829821 398.028606)scale(0.171464 -0.171464)"
               id="g96">
              <defs
                 id="defs84">
                <path
                   d="M 19.1875 8.296875  L 53.609375 8.296875  L 53.609375 0  L 7.328125 0  L 7.328125 8.296875  Q 12.9375 14.109375 22.625 23.890625  Q 32.328125 33.6875 34.8125 36.53125  Q 39.546875 41.84375 41.421875 45.53125  Q 43.3125 49.21875 43.3125 52.78125  Q 43.3125 58.59375 39.234375 62.25  Q 35.15625 65.921875 28.609375 65.921875  Q 23.96875 65.921875 18.8125 64.3125  Q 13.671875 62.703125 7.8125 59.421875  L 7.8125 69.390625  Q 13.765625 71.78125 18.9375 73  Q 24.125 74.21875 28.421875 74.21875  Q 39.75 74.21875 46.484375 68.546875  Q 53.21875 62.890625 53.21875 53.421875  Q 53.21875 48.921875 51.53125 44.890625  Q 49.859375 40.875 45.40625 35.40625  Q 44.1875 33.984375 37.640625 27.21875  Q 31.109375 20.453125 19.1875 8.296875  z "
                   id="DejaVuSans-50" />
              </defs>
              <use
                 xlink:href="#DejaVuSans-8722"
                 id="use86" />
              <use
                 x="83.789062"
                 xlink:href="#DejaVuSans-48"
                 id="use88" />
              <use
                 x="147.412109"
                 xlink:href="#DejaVuSans-46"
                 id="use90" />
              <use
                 x="179.199219"
                 xlink:href="#DejaVuSans-50"
                 id="use92" />
              <use
                 x="242.822266"
                 xlink:href="#DejaVuSans-53"
                 id="use94" />
            </g>
          </g>
        </g>
        <g
           id="xtick_4">
          <g
             id="line2d_4">
            <g
               id="g102">
              <use
                 style="stroke:#000000;stroke-width:0.8;"
                 x="242.270118"
                 xlink:href="#ma94ec012ae"
                 y="378"
                 id="use100" />
            </g>
          </g>
          <g
             id="text_4">
            <!-- 0.00 -->
            <g
               transform="translate(223.181321 398.028606)scale(0.171464 -0.171464)"
               id="g113">
              <use
                 xlink:href="#DejaVuSans-48"
                 id="use105" />
              <use
                 x="63.623047"
                 xlink:href="#DejaVuSans-46"
                 id="use107" />
              <use
                 x="95.410156"
                 xlink:href="#DejaVuSans-48"
                 id="use109" />
              <use
                 x="159.033203"
                 xlink:href="#DejaVuSans-48"
                 id="use111" />
            </g>
          </g>
        </g>
        <g
           id="xtick_5">
          <g
             id="line2d_5">
            <g
               id="g119">
              <use
                 style="stroke:#000000;stroke-width:0.8;"
                 x="304.437534"
                 xlink:href="#ma94ec012ae"
                 y="378"
                 id="use117" />
            </g>
          </g>
          <g
             id="text_5">
            <!-- 0.25 -->
            <g
               transform="translate(285.348736 398.028606)scale(0.171464 -0.171464)"
               id="g130">
              <use
                 xlink:href="#DejaVuSans-48"
                 id="use122" />
              <use
                 x="63.623047"
                 xlink:href="#DejaVuSans-46"
                 id="use124" />
              <use
                 x="95.410156"
                 xlink:href="#DejaVuSans-50"
                 id="use126" />
              <use
                 x="159.033203"
                 xlink:href="#DejaVuSans-53"
                 id="use128" />
            </g>
          </g>
        </g>
        <g
           id="xtick_6">
          <g
             id="line2d_6">
            <g
               id="g136">
              <use
                 style="stroke:#000000;stroke-width:0.8;"
                 x="366.604949"
                 xlink:href="#ma94ec012ae"
                 y="378"
                 id="use134" />
            </g>
          </g>
          <g
             id="text_6">
            <!-- 0.50 -->
            <g
               transform="translate(347.516152 398.028606)scale(0.171464 -0.171464)"
               id="g147">
              <use
                 xlink:href="#DejaVuSans-48"
                 id="use139" />
              <use
                 x="63.623047"
                 xlink:href="#DejaVuSans-46"
                 id="use141" />
              <use
                 x="95.410156"
                 xlink:href="#DejaVuSans-53"
                 id="use143" />
              <use
                 x="159.033203"
                 xlink:href="#DejaVuSans-48"
                 id="use145" />
            </g>
          </g>
        </g>
        <g
           id="text_7">
          <!-- Bray-Curtis dissimilarity -->
          <g
             transform="translate(161.677344 413.192965)scale(0.1 -0.1)"
             id="g217">
            <defs
               id="defs165">
              <path
                 d="M 19.671875 34.8125  L 19.671875 8.109375  L 35.5 8.109375  Q 43.453125 8.109375 47.28125 11.40625  Q 51.125 14.703125 51.125 21.484375  Q 51.125 28.328125 47.28125 31.5625  Q 43.453125 34.8125 35.5 34.8125  z M 19.671875 64.796875  L 19.671875 42.828125  L 34.28125 42.828125  Q 41.5 42.828125 45.03125 45.53125  Q 48.578125 48.25 48.578125 53.8125  Q 48.578125 59.328125 45.03125 62.0625  Q 41.5 64.796875 34.28125 64.796875  z M 9.8125 72.90625  L 35.015625 72.90625  Q 46.296875 72.90625 52.390625 68.21875  Q 58.5 63.53125 58.5 54.890625  Q 58.5 48.1875 55.375 44.234375  Q 52.25 40.28125 46.1875 39.3125  Q 53.46875 37.75 57.5 32.78125  Q 61.53125 27.828125 61.53125 20.40625  Q 61.53125 10.640625 54.890625 5.3125  Q 48.25 0 35.984375 0  L 9.8125 0  z "
                 id="DejaVuSans-66" />
              <path
                 d="M 41.109375 46.296875  Q 39.59375 47.171875 37.8125 47.578125  Q 36.03125 48 33.890625 48  Q 26.265625 48 22.1875 43.046875  Q 18.109375 38.09375 18.109375 28.8125  L 18.109375 0  L 9.078125 0  L 9.078125 54.6875  L 18.109375 54.6875  L 18.109375 46.1875  Q 20.953125 51.171875 25.484375 53.578125  Q 30.03125 56 36.53125 56  Q 37.453125 56 38.578125 55.875  Q 39.703125 55.765625 41.0625 55.515625  z "
                 id="DejaVuSans-114" />
              <path
                 d="M 34.28125 27.484375  Q 23.390625 27.484375 19.1875 25  Q 14.984375 22.515625 14.984375 16.5  Q 14.984375 11.71875 18.140625 8.90625  Q 21.296875 6.109375 26.703125 6.109375  Q 34.1875 6.109375 38.703125 11.40625  Q 43.21875 16.703125 43.21875 25.484375  L 43.21875 27.484375  z M 52.203125 31.203125  L 52.203125 0  L 43.21875 0  L 43.21875 8.296875  Q 40.140625 3.328125 35.546875 0.953125  Q 30.953125 -1.421875 24.3125 -1.421875  Q 15.921875 -1.421875 10.953125 3.296875  Q 6 8.015625 6 15.921875  Q 6 25.140625 12.171875 29.828125  Q 18.359375 34.515625 30.609375 34.515625  L 43.21875 34.515625  L 43.21875 35.40625  Q 43.21875 41.609375 39.140625 45  Q 35.0625 48.390625 27.6875 48.390625  Q 23 48.390625 18.546875 47.265625  Q 14.109375 46.140625 10.015625 43.890625  L 10.015625 52.203125  Q 14.9375 54.109375 19.578125 55.046875  Q 24.21875 56 28.609375 56  Q 40.484375 56 46.34375 49.84375  Q 52.203125 43.703125 52.203125 31.203125  z "
                 id="DejaVuSans-97" />
              <path
                 d="M 32.171875 -5.078125  Q 28.375 -14.84375 24.75 -17.8125  Q 21.140625 -20.796875 15.09375 -20.796875  L 7.90625 -20.796875  L 7.90625 -13.28125  L 13.1875 -13.28125  Q 16.890625 -13.28125 18.9375 -11.515625  Q 21 -9.765625 23.484375 -3.21875  L 25.09375 0.875  L 2.984375 54.6875  L 12.5 54.6875  L 29.59375 11.921875  L 46.6875 54.6875  L 56.203125 54.6875  z "
                 id="DejaVuSans-121" />
              <path
                 d="M 4.890625 31.390625  L 31.203125 31.390625  L 31.203125 23.390625  L 4.890625 23.390625  z "
                 id="DejaVuSans-45" />
              <path
                 d="M 64.40625 67.28125  L 64.40625 56.890625  Q 59.421875 61.53125 53.78125 63.8125  Q 48.140625 66.109375 41.796875 66.109375  Q 29.296875 66.109375 22.65625 58.46875  Q 16.015625 50.828125 16.015625 36.375  Q 16.015625 21.96875 22.65625 14.328125  Q 29.296875 6.6875 41.796875 6.6875  Q 48.140625 6.6875 53.78125 8.984375  Q 59.421875 11.28125 64.40625 15.921875  L 64.40625 5.609375  Q 59.234375 2.09375 53.4375 0.328125  Q 47.65625 -1.421875 41.21875 -1.421875  Q 24.65625 -1.421875 15.125 8.703125  Q 5.609375 18.84375 5.609375 36.375  Q 5.609375 53.953125 15.125 64.078125  Q 24.65625 74.21875 41.21875 74.21875  Q 47.75 74.21875 53.53125 72.484375  Q 59.328125 70.75 64.40625 67.28125  z "
                 id="DejaVuSans-67" />
              <path
                 d="M 8.5 21.578125  L 8.5 54.6875  L 17.484375 54.6875  L 17.484375 21.921875  Q 17.484375 14.15625 20.5 10.265625  Q 23.53125 6.390625 29.59375 6.390625  Q 36.859375 6.390625 41.078125 11.03125  Q 45.3125 15.671875 45.3125 23.6875  L 45.3125 54.6875  L 54.296875 54.6875  L 54.296875 0  L 45.3125 0  L 45.3125 8.40625  Q 42.046875 3.421875 37.71875 1  Q 33.40625 -1.421875 27.6875 -1.421875  Q 18.265625 -1.421875 13.375 4.4375  Q 8.5 10.296875 8.5 21.578125  z M 31.109375 56  z "
                 id="DejaVuSans-117" />
              <path
                 d="M 18.3125 70.21875  L 18.3125 54.6875  L 36.8125 54.6875  L 36.8125 47.703125  L 18.3125 47.703125  L 18.3125 18.015625  Q 18.3125 11.328125 20.140625 9.421875  Q 21.96875 7.515625 27.59375 7.515625  L 36.8125 7.515625  L 36.8125 0  L 27.59375 0  Q 17.1875 0 13.234375 3.875  Q 9.28125 7.765625 9.28125 18.015625  L 9.28125 47.703125  L 2.6875 47.703125  L 2.6875 54.6875  L 9.28125 54.6875  L 9.28125 70.21875  z "
                 id="DejaVuSans-116" />
              <path
                 d="M 9.421875 54.6875  L 18.40625 54.6875  L 18.40625 0  L 9.421875 0  z M 9.421875 75.984375  L 18.40625 75.984375  L 18.40625 64.59375  L 9.421875 64.59375  z "
                 id="DejaVuSans-105" />
              <path
                 d="M 44.28125 53.078125  L 44.28125 44.578125  Q 40.484375 46.53125 36.375 47.5  Q 32.28125 48.484375 27.875 48.484375  Q 21.1875 48.484375 17.84375 46.4375  Q 14.5 44.390625 14.5 40.28125  Q 14.5 37.15625 16.890625 35.375  Q 19.28125 33.59375 26.515625 31.984375  L 29.59375 31.296875  Q 39.15625 29.25 43.1875 25.515625  Q 47.21875 21.78125 47.21875 15.09375  Q 47.21875 7.46875 41.1875 3.015625  Q 35.15625 -1.421875 24.609375 -1.421875  Q 20.21875 -1.421875 15.453125 -0.5625  Q 10.6875 0.296875 5.421875 2  L 5.421875 11.28125  Q 10.40625 8.6875 15.234375 7.390625  Q 20.0625 6.109375 24.8125 6.109375  Q 31.15625 6.109375 34.5625 8.28125  Q 37.984375 10.453125 37.984375 14.40625  Q 37.984375 18.0625 35.515625 20.015625  Q 33.0625 21.96875 24.703125 23.78125  L 21.578125 24.515625  Q 13.234375 26.265625 9.515625 29.90625  Q 5.8125 33.546875 5.8125 39.890625  Q 5.8125 47.609375 11.28125 51.796875  Q 16.75 56 26.8125 56  Q 31.78125 56 36.171875 55.265625  Q 40.578125 54.546875 44.28125 53.078125  z "
                 id="DejaVuSans-115" />
              <path
                 id="DejaVuSans-32" />
              <path
                 d="M 45.40625 46.390625  L 45.40625 75.984375  L 54.390625 75.984375  L 54.390625 0  L 45.40625 0  L 45.40625 8.203125  Q 42.578125 3.328125 38.25 0.953125  Q 33.9375 -1.421875 27.875 -1.421875  Q 17.96875 -1.421875 11.734375 6.484375  Q 5.515625 14.40625 5.515625 27.296875  Q 5.515625 40.1875 11.734375 48.09375  Q 17.96875 56 27.875 56  Q 33.9375 56 38.25 53.625  Q 42.578125 51.265625 45.40625 46.390625  z M 14.796875 27.296875  Q 14.796875 17.390625 18.875 11.75  Q 22.953125 6.109375 30.078125 6.109375  Q 37.203125 6.109375 41.296875 11.75  Q 45.40625 17.390625 45.40625 27.296875  Q 45.40625 37.203125 41.296875 42.84375  Q 37.203125 48.484375 30.078125 48.484375  Q 22.953125 48.484375 18.875 42.84375  Q 14.796875 37.203125 14.796875 27.296875  z "
                 id="DejaVuSans-100" />
              <path
                 d="M 52 44.1875  Q 55.375 50.25 60.0625 53.125  Q 64.75 56 71.09375 56  Q 79.640625 56 84.28125 50.015625  Q 88.921875 44.046875 88.921875 33.015625  L 88.921875 0  L 79.890625 0  L 79.890625 32.71875  Q 79.890625 40.578125 77.09375 44.375  Q 74.3125 48.1875 68.609375 48.1875  Q 61.625 48.1875 57.5625 43.546875  Q 53.515625 38.921875 53.515625 30.90625  L 53.515625 0  L 44.484375 0  L 44.484375 32.71875  Q 44.484375 40.625 41.703125 44.40625  Q 38.921875 48.1875 33.109375 48.1875  Q 26.21875 48.1875 22.15625 43.53125  Q 18.109375 38.875 18.109375 30.90625  L 18.109375 0  L 9.078125 0  L 9.078125 54.6875  L 18.109375 54.6875  L 18.109375 46.1875  Q 21.1875 51.21875 25.484375 53.609375  Q 29.78125 56 35.6875 56  Q 41.65625 56 45.828125 52.96875  Q 50 49.953125 52 44.1875  z "
                 id="DejaVuSans-109" />
              <path
                 d="M 9.421875 75.984375  L 18.40625 75.984375  L 18.40625 0  L 9.421875 0  z "
                 id="DejaVuSans-108" />
            </defs>
            <use
               xlink:href="#DejaVuSans-66"
               id="use167" />
            <use
               x="68.603516"
               xlink:href="#DejaVuSans-114"
               id="use169" />
            <use
               x="109.716797"
               xlink:href="#DejaVuSans-97"
               id="use171" />
            <use
               x="170.996094"
               xlink:href="#DejaVuSans-121"
               id="use173" />
            <use
               x="228.425781"
               xlink:href="#DejaVuSans-45"
               id="use175" />
            <use
               x="264.509766"
               xlink:href="#DejaVuSans-67"
               id="use177" />
            <use
               x="334.333984"
               xlink:href="#DejaVuSans-117"
               id="use179" />
            <use
               x="397.712891"
               xlink:href="#DejaVuSans-114"
               id="use181" />
            <use
               x="438.826172"
               xlink:href="#DejaVuSans-116"
               id="use183" />
            <use
               x="478.035156"
               xlink:href="#DejaVuSans-105"
               id="use185" />
            <use
               x="505.818359"
               xlink:href="#DejaVuSans-115"
               id="use187" />
            <use
               x="557.917969"
               xlink:href="#DejaVuSans-32"
               id="use189" />
            <use
               x="589.705078"
               xlink:href="#DejaVuSans-100"
               id="use191" />
            <use
               x="653.181641"
               xlink:href="#DejaVuSans-105"
               id="use193" />
            <use
               x="680.964844"
               xlink:href="#DejaVuSans-115"
               id="use195" />
            <use
               x="733.064453"
               xlink:href="#DejaVuSans-115"
               id="use197" />
            <use
               x="785.164062"
               xlink:href="#DejaVuSans-105"
               id="use199" />
            <use
               x="812.947266"
               xlink:href="#DejaVuSans-109"
               id="use201" />
            <use
               x="910.359375"
               xlink:href="#DejaVuSans-105"
               id="use203" />
            <use
               x="938.142578"
               xlink:href="#DejaVuSans-108"
               id="use205" />
            <use
               x="965.925781"
               xlink:href="#DejaVuSans-97"
               id="use207" />
            <use
               x="1027.205078"
               xlink:href="#DejaVuSans-114"
               id="use209" />
            <use
               x="1068.318359"
               xlink:href="#DejaVuSans-105"
               id="use211" />
            <use
               x="1096.101562"
               xlink:href="#DejaVuSans-116"
               id="use213" />
            <use
               x="1135.310547"
               xlink:href="#DejaVuSans-121"
               id="use215" />
          </g>
        </g>
      </g>
      <g
         id="matplotlib.axis_2">
        <g
           id="ytick_1">
          <g
             id="line2d_7">
            <defs
               id="defs222">
              <path
                 d="M 0 0  L -3.5 0  "
                 id="m96a1249640"
                 style="stroke:#000000;stroke-width:0.8;" />
            </defs>
            <g
               id="g226">
              <use
                 style="stroke:#000000;stroke-width:0.8;"
                 x="54"
                 xlink:href="#m96a1249640"
                 y="363.174545"
                 id="use224" />
            </g>
          </g>
          <g
             id="text_8">
            <!-- 0 -->
            <g
               transform="translate(36.090585 369.688849)scale(0.171464 -0.171464)"
               id="g231">
              <use
                 xlink:href="#DejaVuSans-48"
                 id="use229" />
            </g>
          </g>
        </g>
        <g
           id="ytick_2">
          <g
             id="line2d_8">
            <g
               id="g237">
              <use
                 style="stroke:#000000;stroke-width:0.8;"
                 x="54"
                 xlink:href="#m96a1249640"
                 y="309.263802"
                 id="use235" />
            </g>
          </g>
          <g
             id="text_9">
            <!-- 1 -->
            <g
               transform="translate(36.090585 315.778105)scale(0.171464 -0.171464)"
               id="g245">
              <defs
                 id="defs241">
                <path
                   d="M 12.40625 8.296875  L 28.515625 8.296875  L 28.515625 63.921875  L 10.984375 60.40625  L 10.984375 69.390625  L 28.421875 72.90625  L 38.28125 72.90625  L 38.28125 8.296875  L 54.390625 8.296875  L 54.390625 0  L 12.40625 0  z "
                   id="DejaVuSans-49" />
              </defs>
              <use
                 xlink:href="#DejaVuSans-49"
                 id="use243" />
            </g>
          </g>
        </g>
        <g
           id="ytick_3">
          <g
             id="line2d_9">
            <g
               id="g251">
              <use
                 style="stroke:#000000;stroke-width:0.8;"
                 x="54"
                 xlink:href="#m96a1249640"
                 y="255.353058"
                 id="use249" />
            </g>
          </g>
          <g
             id="text_10">
            <!-- 2 -->
            <g
               transform="translate(36.090585 261.867361)scale(0.171464 -0.171464)"
               id="g256">
              <use
                 xlink:href="#DejaVuSans-50"
                 id="use254" />
            </g>
          </g>
        </g>
        <g
           id="ytick_4">
          <g
             id="line2d_10">
            <g
               id="g262">
              <use
                 style="stroke:#000000;stroke-width:0.8;"
                 x="54"
                 xlink:href="#m96a1249640"
                 y="201.442314"
                 id="use260" />
            </g>
          </g>
          <g
             id="text_11">
            <!-- 3 -->
            <g
               transform="translate(36.090585 207.956617)scale(0.171464 -0.171464)"
               id="g270">
              <defs
                 id="defs266">
                <path
                   d="M 40.578125 39.3125  Q 47.65625 37.796875 51.625 33  Q 55.609375 28.21875 55.609375 21.1875  Q 55.609375 10.40625 48.1875 4.484375  Q 40.765625 -1.421875 27.09375 -1.421875  Q 22.515625 -1.421875 17.65625 -0.515625  Q 12.796875 0.390625 7.625 2.203125  L 7.625 11.71875  Q 11.71875 9.328125 16.59375 8.109375  Q 21.484375 6.890625 26.8125 6.890625  Q 36.078125 6.890625 40.9375 10.546875  Q 45.796875 14.203125 45.796875 21.1875  Q 45.796875 27.640625 41.28125 31.265625  Q 36.765625 34.90625 28.71875 34.90625  L 20.21875 34.90625  L 20.21875 43.015625  L 29.109375 43.015625  Q 36.375 43.015625 40.234375 45.921875  Q 44.09375 48.828125 44.09375 54.296875  Q 44.09375 59.90625 40.109375 62.90625  Q 36.140625 65.921875 28.71875 65.921875  Q 24.65625 65.921875 20.015625 65.03125  Q 15.375 64.15625 9.8125 62.3125  L 9.8125 71.09375  Q 15.4375 72.65625 20.34375 73.4375  Q 25.25 74.21875 29.59375 74.21875  Q 40.828125 74.21875 47.359375 69.109375  Q 53.90625 64.015625 53.90625 55.328125  Q 53.90625 49.265625 50.4375 45.09375  Q 46.96875 40.921875 40.578125 39.3125  z "
                   id="DejaVuSans-51" />
              </defs>
              <use
                 xlink:href="#DejaVuSans-51"
                 id="use268" />
            </g>
          </g>
        </g>
        <g
           id="ytick_5">
          <g
             id="line2d_11">
            <g
               id="g276">
              <use
                 style="stroke:#000000;stroke-width:0.8;"
                 x="54"
                 xlink:href="#m96a1249640"
                 y="147.53157"
                 id="use274" />
            </g>
          </g>
          <g
             id="text_12">
            <!-- 4 -->
            <g
               transform="translate(36.090585 154.045873)scale(0.171464 -0.171464)"
               id="g284">
              <defs
                 id="defs280">
                <path
                   d="M 37.796875 64.3125  L 12.890625 25.390625  L 37.796875 25.390625  z M 35.203125 72.90625  L 47.609375 72.90625  L 47.609375 25.390625  L 58.015625 25.390625  L 58.015625 17.1875  L 47.609375 17.1875  L 47.609375 0  L 37.796875 0  L 37.796875 17.1875  L 4.890625 17.1875  L 4.890625 26.703125  z "
                   id="DejaVuSans-52" />
              </defs>
              <use
                 xlink:href="#DejaVuSans-52"
                 id="use282" />
            </g>
          </g>
        </g>
        <g
           id="ytick_6">
          <g
             id="line2d_12">
            <g
               id="g290">
              <use
                 style="stroke:#000000;stroke-width:0.8;"
                 x="54"
                 xlink:href="#m96a1249640"
                 y="93.620826"
                 id="use288" />
            </g>
          </g>
          <g
             id="text_13">
            <!-- 5 -->
            <g
               transform="translate(36.090585 100.13513)scale(0.171464 -0.171464)"
               id="g295">
              <use
                 xlink:href="#DejaVuSans-53"
                 id="use293" />
            </g>
          </g>
        </g>
        <g
           id="text_14">
          <!-- frequency -->
          <g
             transform="translate(30.010898 239.996562)rotate(-90)scale(0.1 -0.1)"
             id="g324">
            <defs
               id="defs304">
              <path
                 d="M 37.109375 75.984375  L 37.109375 68.5  L 28.515625 68.5  Q 23.6875 68.5 21.796875 66.546875  Q 19.921875 64.59375 19.921875 59.515625  L 19.921875 54.6875  L 34.71875 54.6875  L 34.71875 47.703125  L 19.921875 47.703125  L 19.921875 0  L 10.890625 0  L 10.890625 47.703125  L 2.296875 47.703125  L 2.296875 54.6875  L 10.890625 54.6875  L 10.890625 58.5  Q 10.890625 67.625 15.140625 71.796875  Q 19.390625 75.984375 28.609375 75.984375  z "
                 id="DejaVuSans-102" />
              <path
                 d="M 56.203125 29.59375  L 56.203125 25.203125  L 14.890625 25.203125  Q 15.484375 15.921875 20.484375 11.0625  Q 25.484375 6.203125 34.421875 6.203125  Q 39.59375 6.203125 44.453125 7.46875  Q 49.3125 8.734375 54.109375 11.28125  L 54.109375 2.78125  Q 49.265625 0.734375 44.1875 -0.34375  Q 39.109375 -1.421875 33.890625 -1.421875  Q 20.796875 -1.421875 13.15625 6.1875  Q 5.515625 13.8125 5.515625 26.8125  Q 5.515625 40.234375 12.765625 48.109375  Q 20.015625 56 32.328125 56  Q 43.359375 56 49.78125 48.890625  Q 56.203125 41.796875 56.203125 29.59375  z M 47.21875 32.234375  Q 47.125 39.59375 43.09375 43.984375  Q 39.0625 48.390625 32.421875 48.390625  Q 24.90625 48.390625 20.390625 44.140625  Q 15.875 39.890625 15.1875 32.171875  z "
                 id="DejaVuSans-101" />
              <path
                 d="M 14.796875 27.296875  Q 14.796875 17.390625 18.875 11.75  Q 22.953125 6.109375 30.078125 6.109375  Q 37.203125 6.109375 41.296875 11.75  Q 45.40625 17.390625 45.40625 27.296875  Q 45.40625 37.203125 41.296875 42.84375  Q 37.203125 48.484375 30.078125 48.484375  Q 22.953125 48.484375 18.875 42.84375  Q 14.796875 37.203125 14.796875 27.296875  z M 45.40625 8.203125  Q 42.578125 3.328125 38.25 0.953125  Q 33.9375 -1.421875 27.875 -1.421875  Q 17.96875 -1.421875 11.734375 6.484375  Q 5.515625 14.40625 5.515625 27.296875  Q 5.515625 40.1875 11.734375 48.09375  Q 17.96875 56 27.875 56  Q 33.9375 56 38.25 53.625  Q 42.578125 51.265625 45.40625 46.390625  L 45.40625 54.6875  L 54.390625 54.6875  L 54.390625 -20.796875  L 45.40625 -20.796875  z "
                 id="DejaVuSans-113" />
              <path
                 d="M 54.890625 33.015625  L 54.890625 0  L 45.90625 0  L 45.90625 32.71875  Q 45.90625 40.484375 42.875 44.328125  Q 39.84375 48.1875 33.796875 48.1875  Q 26.515625 48.1875 22.3125 43.546875  Q 18.109375 38.921875 18.109375 30.90625  L 18.109375 0  L 9.078125 0  L 9.078125 54.6875  L 18.109375 54.6875  L 18.109375 46.1875  Q 21.34375 51.125 25.703125 53.5625  Q 30.078125 56 35.796875 56  Q 45.21875 56 50.046875 50.171875  Q 54.890625 44.34375 54.890625 33.015625  z "
                 id="DejaVuSans-110" />
              <path
                 d="M 48.78125 52.59375  L 48.78125 44.1875  Q 44.96875 46.296875 41.140625 47.34375  Q 37.3125 48.390625 33.40625 48.390625  Q 24.65625 48.390625 19.8125 42.84375  Q 14.984375 37.3125 14.984375 27.296875  Q 14.984375 17.28125 19.8125 11.734375  Q 24.65625 6.203125 33.40625 6.203125  Q 37.3125 6.203125 41.140625 7.25  Q 44.96875 8.296875 48.78125 10.40625  L 48.78125 2.09375  Q 45.015625 0.34375 40.984375 -0.53125  Q 36.96875 -1.421875 32.421875 -1.421875  Q 20.0625 -1.421875 12.78125 6.34375  Q 5.515625 14.109375 5.515625 27.296875  Q 5.515625 40.671875 12.859375 48.328125  Q 20.21875 56 33.015625 56  Q 37.15625 56 41.109375 55.140625  Q 45.0625 54.296875 48.78125 52.59375  z "
                 id="DejaVuSans-99" />
            </defs>
            <use
               xlink:href="#DejaVuSans-102"
               id="use306" />
            <use
               x="35.205078"
               xlink:href="#DejaVuSans-114"
               id="use308" />
            <use
               x="74.068359"
               xlink:href="#DejaVuSans-101"
               id="use310" />
            <use
               x="135.591797"
               xlink:href="#DejaVuSans-113"
               id="use312" />
            <use
               x="199.068359"
               xlink:href="#DejaVuSans-117"
               id="use314" />
            <use
               x="262.447266"
               xlink:href="#DejaVuSans-101"
               id="use316" />
            <use
               x="323.970703"
               xlink:href="#DejaVuSans-110"
               id="use318" />
            <use
               x="387.349609"
               xlink:href="#DejaVuSans-99"
               id="use320" />
            <use
               x="442.330078"
               xlink:href="#DejaVuSans-121"
               id="use322" />
          </g>
        </g>
      </g>
      <g
         id="LineCollection_1">
        <path
           clip-path="url(#p6e5de5f677)"
           d="M 242.270118 363.174545  L 242.270118 66.665455  "
           style="fill:none;stroke:#000000;stroke-dasharray:5.55,2.4;stroke-dashoffset:0;stroke-width:1.5;"
           id="path328" />
      </g>
      <g
         id="line2d_13">
        <path
           clip-path="url(#p6e5de5f677)"
           d="M 69.218182 362.257058  L 77.201798 362.387375  L 85.185415 362.481904  L 95.830237 362.292691  L 103.813854 362.008972  L 109.136265 361.639319  L 133.087115 359.400414  L 135.74832 359.003722  L 138.409526 358.440625  L 141.070731 357.691546  L 143.731937 356.749667  L 147.723745 355.041896  L 153.046156 352.653374  L 155.707362 351.643516  L 158.368567 350.866899  L 161.029773 350.352086  L 163.690978 350.048077  L 167.682787 349.907213  L 175.666403 349.855395  L 178.327609 349.69748  L 180.988814 349.367074  L 183.65002 348.774679  L 186.311226 347.804969  L 187.641828 347.112337  L 188.972431 346.274626  L 190.303034 345.27611  L 191.633637 344.068456  L 192.964239 342.650701  L 194.294842 340.965741  L 195.625445 339.018985  L 196.956048 336.794687  L 198.28665 334.286834  L 199.617253 331.444794  L 200.947856 328.221475  L 202.278459 324.635454  L 203.609062 320.660748  L 204.939664 316.291551  L 206.270267 311.461519  L 208.931473 300.489331  L 211.592678 287.71174  L 214.253884 273.056519  L 216.915089 256.708238  L 219.576295 238.979098  L 227.559911 183.612456  L 230.221117 167.5182  L 231.55172 160.525851  L 232.882322 154.38152  L 234.212925 149.159259  L 235.543528 144.936894  L 236.874131 141.768243  L 238.204734 139.696891  L 239.535336 138.697298  L 240.865939 138.786521  L 242.196542 139.879919  L 243.527145 141.942946  L 244.857747 144.8671  L 246.18835 148.597659  L 247.518953 153.028152  L 248.849556 158.085441  L 251.510761 169.667139  L 254.171967 182.578463  L 259.494378 210.167846  L 263.486186 230.489517  L 266.147392 243.245323  L 268.808597 255.134492  L 271.469803 266.017016  L 274.131008 275.879718  L 276.792214 284.807121  L 279.453419 292.820738  L 282.114625 300.08799  L 284.77583 306.807106  L 287.437036 313.015961  L 291.428844 321.685099  L 294.09005 327.049057  L 296.751255 332.101693  L 299.412461 336.76696  L 302.073666 340.947161  L 304.734872 344.602055  L 307.396078 347.745982  L 310.057283 350.35395  L 312.718489 352.476128  L 315.379694 354.226385  L 318.0409 355.635173  L 320.702105 356.766245  L 323.363311 357.690223  L 326.024516 358.405464  L 328.685722 358.939716  L 331.346927 359.281591  L 334.008133 359.427041  L 334.008133 359.427041  "
           style="fill:none;stroke:#0000ff;stroke-linecap:square;stroke-width:1.837117;"
           id="path331" />
      </g>
      <g
         id="line2d_14">
        <path
           clip-path="url(#p6e5de5f677)"
           d="M 201.336708 321.623703  L 202.202261 321.028566  L 203.067815 319.204849  L 203.933368 316.286165  L 204.798921 312.208722  L 205.664475 307.015627  L 206.530028 300.822982  L 208.261135 285.607948  L 209.992241 267.161658  L 211.723348 246.251109  L 215.185561 200.527577  L 217.782221 166.80669  L 219.513328 146.318795  L 221.244434 128.416311  L 222.975541 113.640004  L 223.841094 107.594618  L 224.706648 102.409429  L 225.572201 98.153456  L 226.437754 94.794733  L 227.303308 92.307368  L 228.168861 90.668705  L 229.034414 89.834492  L 229.899968 89.759283  L 230.765521 90.397096  L 231.631074 91.661945  L 232.496628 93.511546  L 233.362181 95.884295  L 234.227734 98.770461  L 235.958841 105.709472  L 237.689947 113.865949  L 239.421054 122.982513  L 242.017714 138.130911  L 245.479927 160.227078  L 252.404354 206.052804  L 255.001014 221.665128  L 256.73212 231.070211  L 259.32878 243.723916  L 261.059887 251.141552  L 262.790994 257.803555  L 264.5221 263.693925  L 266.253207 269.074586  L 268.849867 276.421558  L 277.5054 300.206568  L 280.967613 309.660795  L 283.564273 316.286033  L 286.160933 322.190995  L 288.757593 327.334239  L 290.4887 330.270733  L 293.08536 334.045037  L 295.68202 337.288313  L 300.87534 343.203729  L 306.068659 348.946938  L 308.665319 351.504743  L 310.396426 352.9771  L 312.993086 354.823915  L 315.589746 356.2998  L 318.186406 357.503167  L 321.648619 358.903429  L 325.976386 360.422574  L 328.573046 361.168295  L 332.035259 361.877739  L 335.497472 362.313501  L 341.556345 362.788856  L 347.615219 363.068933  L 353.674092 363.157141  L 361.464072 363.032827  L 366.657392 362.697723  L 372.716265 362.292201  L 373.581818 362.276549  L 373.581818 362.276549  "
           style="fill:none;stroke:#ff0000;stroke-linecap:square;stroke-width:1.837117;"
           id="path334" />
      </g>
      <g
         id="patch_3">
        <path
           d="M 54 378  L 54 51.84  "
           style="fill:none;stroke:#000000;stroke-linecap:square;stroke-linejoin:miter;stroke-width:0.8;"
           id="path337" />
      </g>
      <g
         id="patch_4">
        <path
           d="M 388.8 378  L 388.8 51.84  "
           style="fill:none;stroke:#000000;stroke-linecap:square;stroke-linejoin:miter;stroke-width:0.8;"
           id="path340" />
      </g>
      <g
         id="patch_5">
        <path
           d="M 54 378  L 388.8 378  "
           style="fill:none;stroke:#000000;stroke-linecap:square;stroke-linejoin:miter;stroke-width:0.8;"
           id="path343" />
      </g>
      <g
         id="patch_6">
        <path
           d="M 54 51.84  L 388.8 51.84  "
           style="fill:none;stroke:#000000;stroke-linecap:square;stroke-linejoin:miter;stroke-width:0.8;"
           id="path346" />
      </g>
      <g
         id="text_15">
        <!-- Comparison of predictive performance -->
        <g
           transform="translate(76.74375 29.043281)scale(0.15 -0.15)"
           id="g426">
          <defs
             id="defs352">
            <path
               d="M 30.609375 48.390625  Q 23.390625 48.390625 19.1875 42.75  Q 14.984375 37.109375 14.984375 27.296875  Q 14.984375 17.484375 19.15625 11.84375  Q 23.34375 6.203125 30.609375 6.203125  Q 37.796875 6.203125 41.984375 11.859375  Q 46.1875 17.53125 46.1875 27.296875  Q 46.1875 37.015625 41.984375 42.703125  Q 37.796875 48.390625 30.609375 48.390625  z M 30.609375 56  Q 42.328125 56 49.015625 48.375  Q 55.71875 40.765625 55.71875 27.296875  Q 55.71875 13.875 49.015625 6.21875  Q 42.328125 -1.421875 30.609375 -1.421875  Q 18.84375 -1.421875 12.171875 6.21875  Q 5.515625 13.875 5.515625 27.296875  Q 5.515625 40.765625 12.171875 48.375  Q 18.84375 56 30.609375 56  z "
               id="DejaVuSans-111" />
            <path
               d="M 18.109375 8.203125  L 18.109375 -20.796875  L 9.078125 -20.796875  L 9.078125 54.6875  L 18.109375 54.6875  L 18.109375 46.390625  Q 20.953125 51.265625 25.265625 53.625  Q 29.59375 56 35.59375 56  Q 45.5625 56 51.78125 48.09375  Q 58.015625 40.1875 58.015625 27.296875  Q 58.015625 14.40625 51.78125 6.484375  Q 45.5625 -1.421875 35.59375 -1.421875  Q 29.59375 -1.421875 25.265625 0.953125  Q 20.953125 3.328125 18.109375 8.203125  z M 48.6875 27.296875  Q 48.6875 37.203125 44.609375 42.84375  Q 40.53125 48.484375 33.40625 48.484375  Q 26.265625 48.484375 22.1875 42.84375  Q 18.109375 37.203125 18.109375 27.296875  Q 18.109375 17.390625 22.1875 11.75  Q 26.265625 6.109375 33.40625 6.109375  Q 40.53125 6.109375 44.609375 11.75  Q 48.6875 17.390625 48.6875 27.296875  z "
               id="DejaVuSans-112" />
            <path
               d="M 2.984375 54.6875  L 12.5 54.6875  L 29.59375 8.796875  L 46.6875 54.6875  L 56.203125 54.6875  L 35.6875 0  L 23.484375 0  z "
               id="DejaVuSans-118" />
          </defs>
          <use
             xlink:href="#DejaVuSans-67"
             id="use354" />
          <use
             x="69.824219"
             xlink:href="#DejaVuSans-111"
             id="use356" />
          <use
             x="131.005859"
             xlink:href="#DejaVuSans-109"
             id="use358" />
          <use
             x="228.417969"
             xlink:href="#DejaVuSans-112"
             id="use360" />
          <use
             x="291.894531"
             xlink:href="#DejaVuSans-97"
             id="use362" />
          <use
             x="353.173828"
             xlink:href="#DejaVuSans-114"
             id="use364" />
          <use
             x="394.287109"
             xlink:href="#DejaVuSans-105"
             id="use366" />
          <use
             x="422.070312"
             xlink:href="#DejaVuSans-115"
             id="use368" />
          <use
             x="474.169922"
             xlink:href="#DejaVuSans-111"
             id="use370" />
          <use
             x="535.351562"
             xlink:href="#DejaVuSans-110"
             id="use372" />
          <use
             x="598.730469"
             xlink:href="#DejaVuSans-32"
             id="use374" />
          <use
             x="630.517578"
             xlink:href="#DejaVuSans-111"
             id="use376" />
          <use
             x="691.699219"
             xlink:href="#DejaVuSans-102"
             id="use378" />
          <use
             x="726.904297"
             xlink:href="#DejaVuSans-32"
             id="use380" />
          <use
             x="758.691406"
             xlink:href="#DejaVuSans-112"
             id="use382" />
          <use
             x="822.167969"
             xlink:href="#DejaVuSans-114"
             id="use384" />
          <use
             x="861.03125"
             xlink:href="#DejaVuSans-101"
             id="use386" />
          <use
             x="922.554688"
             xlink:href="#DejaVuSans-100"
             id="use388" />
          <use
             x="986.03125"
             xlink:href="#DejaVuSans-105"
             id="use390" />
          <use
             x="1013.814453"
             xlink:href="#DejaVuSans-99"
             id="use392" />
          <use
             x="1068.794922"
             xlink:href="#DejaVuSans-116"
             id="use394" />
          <use
             x="1108.003906"
             xlink:href="#DejaVuSans-105"
             id="use396" />
          <use
             x="1135.787109"
             xlink:href="#DejaVuSans-118"
             id="use398" />
          <use
             x="1194.966797"
             xlink:href="#DejaVuSans-101"
             id="use400" />
          <use
             x="1256.490234"
             xlink:href="#DejaVuSans-32"
             id="use402" />
          <use
             x="1288.277344"
             xlink:href="#DejaVuSans-112"
             id="use404" />
          <use
             x="1351.753906"
             xlink:href="#DejaVuSans-101"
             id="use406" />
          <use
             x="1413.277344"
             xlink:href="#DejaVuSans-114"
             id="use408" />
          <use
             x="1454.390625"
             xlink:href="#DejaVuSans-102"
             id="use410" />
          <use
             x="1489.595703"
             xlink:href="#DejaVuSans-111"
             id="use412" />
          <use
             x="1550.777344"
             xlink:href="#DejaVuSans-114"
             id="use414" />
          <use
             x="1590.140625"
             xlink:href="#DejaVuSans-109"
             id="use416" />
          <use
             x="1687.552734"
             xlink:href="#DejaVuSans-97"
             id="use418" />
          <use
             x="1748.832031"
             xlink:href="#DejaVuSans-110"
             id="use420" />
          <use
             x="1812.210938"
             xlink:href="#DejaVuSans-99"
             id="use422" />
          <use
             x="1867.191406"
             xlink:href="#DejaVuSans-101"
             id="use424" />
        </g>
        <!-- of models of community turnover -->
        <g
           transform="translate(95.728125 45.84)scale(0.15 -0.15)"
           id="g490">
          <use
             xlink:href="#DejaVuSans-111"
             id="use428" />
          <use
             x="61.181641"
             xlink:href="#DejaVuSans-102"
             id="use430" />
          <use
             x="96.386719"
             xlink:href="#DejaVuSans-32"
             id="use432" />
          <use
             x="128.173828"
             xlink:href="#DejaVuSans-109"
             id="use434" />
          <use
             x="225.585938"
             xlink:href="#DejaVuSans-111"
             id="use436" />
          <use
             x="286.767578"
             xlink:href="#DejaVuSans-100"
             id="use438" />
          <use
             x="350.244141"
             xlink:href="#DejaVuSans-101"
             id="use440" />
          <use
             x="411.767578"
             xlink:href="#DejaVuSans-108"
             id="use442" />
          <use
             x="439.550781"
             xlink:href="#DejaVuSans-115"
             id="use444" />
          <use
             x="491.650391"
             xlink:href="#DejaVuSans-32"
             id="use446" />
          <use
             x="523.4375"
             xlink:href="#DejaVuSans-111"
             id="use448" />
          <use
             x="584.619141"
             xlink:href="#DejaVuSans-102"
             id="use450" />
          <use
             x="619.824219"
             xlink:href="#DejaVuSans-32"
             id="use452" />
          <use
             x="651.611328"
             xlink:href="#DejaVuSans-99"
             id="use454" />
          <use
             x="706.591797"
             xlink:href="#DejaVuSans-111"
             id="use456" />
          <use
             x="767.773438"
             xlink:href="#DejaVuSans-109"
             id="use458" />
          <use
             x="865.185547"
             xlink:href="#DejaVuSans-109"
             id="use460" />
          <use
             x="962.597656"
             xlink:href="#DejaVuSans-117"
             id="use462" />
          <use
             x="1025.976562"
             xlink:href="#DejaVuSans-110"
             id="use464" />
          <use
             x="1089.355469"
             xlink:href="#DejaVuSans-105"
             id="use466" />
          <use
             x="1117.138672"
             xlink:href="#DejaVuSans-116"
             id="use468" />
          <use
             x="1156.347656"
             xlink:href="#DejaVuSans-121"
             id="use470" />
          <use
             x="1215.527344"
             xlink:href="#DejaVuSans-32"
             id="use472" />
          <use
             x="1247.314453"
             xlink:href="#DejaVuSans-116"
             id="use474" />
          <use
             x="1286.523438"
             xlink:href="#DejaVuSans-117"
             id="use476" />
          <use
             x="1349.902344"
             xlink:href="#DejaVuSans-114"
             id="use478" />
          <use
             x="1389.265625"
             xlink:href="#DejaVuSans-110"
             id="use480" />
          <use
             x="1452.644531"
             xlink:href="#DejaVuSans-111"
             id="use482" />
          <use
             x="1513.826172"
             xlink:href="#DejaVuSans-118"
             id="use484" />
          <use
             x="1573.005859"
             xlink:href="#DejaVuSans-101"
             id="use486" />
          <use
             x="1634.529297"
             xlink:href="#DejaVuSans-114"
             id="use488" />
        </g>
      </g>
      <g
         id="legend_1">
        <g
           id="patch_7">
          <path
             d="M 262.025 89.19625  L 381.8 89.19625  Q 383.8 89.19625 383.8 87.19625  L 383.8 58.84  Q 383.8 56.84 381.8 56.84  L 262.025 56.84  Q 260.025 56.84 260.025 58.84  L 260.025 87.19625  Q 260.025 89.19625 262.025 89.19625  z "
             style="fill:#ffffff;opacity:0.8;stroke:#cccccc;stroke-linejoin:miter;"
             id="path493" />
        </g>
        <g
           id="line2d_15">
          <path
             d="M 264.025 64.938437  L 284.025 64.938437  "
             style="fill:none;stroke:#0000ff;stroke-linecap:square;stroke-width:1.837117;"
             id="path496" />
        </g>
        <g
           id="line2d_16" />
        <g
           id="text_16">
          <!-- asymptote model -->
          <g
             transform="translate(292.025 68.438437)scale(0.1 -0.1)"
             id="g530">
            <use
               xlink:href="#DejaVuSans-97"
               id="use500" />
            <use
               x="61.279297"
               xlink:href="#DejaVuSans-115"
               id="use502" />
            <use
               x="113.378906"
               xlink:href="#DejaVuSans-121"
               id="use504" />
            <use
               x="172.558594"
               xlink:href="#DejaVuSans-109"
               id="use506" />
            <use
               x="269.970703"
               xlink:href="#DejaVuSans-112"
               id="use508" />
            <use
               x="333.447266"
               xlink:href="#DejaVuSans-116"
               id="use510" />
            <use
               x="372.65625"
               xlink:href="#DejaVuSans-111"
               id="use512" />
            <use
               x="433.837891"
               xlink:href="#DejaVuSans-116"
               id="use514" />
            <use
               x="473.046875"
               xlink:href="#DejaVuSans-101"
               id="use516" />
            <use
               x="534.570312"
               xlink:href="#DejaVuSans-32"
               id="use518" />
            <use
               x="566.357422"
               xlink:href="#DejaVuSans-109"
               id="use520" />
            <use
               x="663.769531"
               xlink:href="#DejaVuSans-111"
               id="use522" />
            <use
               x="724.951172"
               xlink:href="#DejaVuSans-100"
               id="use524" />
            <use
               x="788.427734"
               xlink:href="#DejaVuSans-101"
               id="use526" />
            <use
               x="849.951172"
               xlink:href="#DejaVuSans-108"
               id="use528" />
          </g>
        </g>
        <g
           id="line2d_17">
          <path
             d="M 264.025 79.616562  L 284.025 79.616562  "
             style="fill:none;stroke:#ff0000;stroke-linecap:square;stroke-width:1.837117;"
             id="path533" />
        </g>
        <g
           id="line2d_18" />
        <g
           id="text_17">
          <!-- linear model -->
          <g
             transform="translate(292.025 83.116562)scale(0.1 -0.1)"
             id="g561">
            <use
               xlink:href="#DejaVuSans-108"
               id="use537" />
            <use
               x="27.783203"
               xlink:href="#DejaVuSans-105"
               id="use539" />
            <use
               x="55.566406"
               xlink:href="#DejaVuSans-110"
               id="use541" />
            <use
               x="118.945312"
               xlink:href="#DejaVuSans-101"
               id="use543" />
            <use
               x="180.46875"
               xlink:href="#DejaVuSans-97"
               id="use545" />
            <use
               x="241.748047"
               xlink:href="#DejaVuSans-114"
               id="use547" />
            <use
               x="282.861328"
               xlink:href="#DejaVuSans-32"
               id="use549" />
            <use
               x="314.648438"
               xlink:href="#DejaVuSans-109"
               id="use551" />
            <use
               x="412.060547"
               xlink:href="#DejaVuSans-111"
               id="use553" />
            <use
               x="473.242188"
               xlink:href="#DejaVuSans-100"
               id="use555" />
            <use
               x="536.71875"
               xlink:href="#DejaVuSans-101"
               id="use557" />
            <use
               x="598.242188"
               xlink:href="#DejaVuSans-108"
               id="use559" />
          </g>
        </g>
      </g>
    </g>
  </g>
  <defs
     id="defs570">
    <clipPath
       id="p6e5de5f677">
      <rect
         height="326.16"
         width="334.8"
         x="54"
         y="51.84"
         id="rect567" />
    </clipPath>
  </defs>
</svg>
