<?xml version="1.0" encoding="utf-8" standalone="no"?>
<!DOCTYPE svg PUBLIC "-//W3C//DTD SVG 1.1//EN"
  "http://www.w3.org/Graphics/SVG/1.1/DTD/svg11.dtd">
<!-- Created with matplotlib (https://matplotlib.org/) -->
<svg height="504pt" version="1.1" viewBox="0 0 504 504" width="504pt" xmlns="http://www.w3.org/2000/svg" xmlns:xlink="http://www.w3.org/1999/xlink">
 <defs>
  <style type="text/css">
*{stroke-linecap:butt;stroke-linejoin:round;}
  </style>
 </defs>
 <g id="figure_1">
  <g id="patch_1">
   <path d="M 0 504 
L 504 504 
L 504 0 
L 0 0 
z
" style="fill:#ffffff;"/>
  </g>
  <g id="axes_1">
   <g id="patch_2">
    <path d="M 63 441 
L 453.6 441 
L 453.6 60.48 
L 63 60.48 
z
" style="fill:#ffffff;"/>
   </g>
   <g id="PolyCollection_1">
    <defs>
     <path d="M 64.302 -87.19501 
L 64.302 -80.296364 
L 65.604 -91.971098 
L 66.906 -102.279971 
L 68.208 -111.427884 
L 69.51 -119.625624 
L 70.812 -127.043519 
L 72.114 -133.815268 
L 73.416 -140.046062 
L 74.718 -145.819396 
L 76.02 -151.202205 
L 77.322 -156.248683 
L 78.624 -161.003114 
L 79.926 -165.502008 
L 81.228 -169.77572 
L 82.53 -173.849688 
L 83.832 -177.745386 
L 85.134 -181.48107 
L 86.436 -185.072365 
L 87.738 -188.532721 
L 89.04 -191.873789 
L 90.342 -195.105711 
L 91.644 -198.237363 
L 92.946 -201.27655 
L 94.248 -204.230163 
L 95.55 -207.104319 
L 96.852 -209.904464 
L 98.154 -212.63547 
L 99.456 -215.301712 
L 100.758 -217.907132 
L 102.06 -220.455298 
L 103.362 -222.949452 
L 104.664 -225.392549 
L 105.966 -227.787294 
L 107.268 -230.136175 
L 108.57 -232.441485 
L 109.872 -234.705353 
L 111.174 -236.929756 
L 112.476 -239.116546 
L 113.778 -241.267461 
L 115.08 -243.384144 
L 116.382 -245.468152 
L 117.684 -247.520977 
L 118.986 -249.54405 
L 120.288 -251.538762 
L 121.59 -253.506472 
L 122.892 -255.448523 
L 124.194 -257.366258 
L 125.496 -259.261042 
L 126.798 -261.134281 
L 128.1 -262.987458 
L 129.402 -264.822172 
L 130.704 -266.6402 
L 132.006 -268.443582 
L 133.308 -270.234765 
L 134.61 -272.016826 
L 135.912 -273.793889 
L 137.214 -275.571939 
L 138.516 -277.360743 
L 139.818 -279.177755 
L 141.12 -281.074662 
L 142.422 -283.496702 
L 142.422 -283.496702 
L 142.422 -283.496702 
L 141.12 -282.983491 
L 139.818 -281.905464 
L 138.516 -280.706882 
L 137.214 -279.438417 
L 135.912 -278.11646 
L 134.61 -276.749664 
L 133.308 -275.342852 
L 132.006 -273.898926 
L 130.704 -272.419685 
L 129.402 -270.906231 
L 128.1 -269.359193 
L 126.798 -267.778861 
L 125.496 -266.165271 
L 124.194 -264.518254 
L 122.892 -262.837473 
L 121.59 -261.122449 
L 120.288 -259.372571 
L 118.986 -257.587113 
L 117.684 -255.765231 
L 116.382 -253.905971 
L 115.08 -252.008267 
L 113.778 -250.070936 
L 112.476 -248.092676 
L 111.174 -246.072059 
L 109.872 -244.007518 
L 108.57 -241.89734 
L 107.268 -239.739649 
L 105.966 -237.532396 
L 104.664 -235.273332 
L 103.362 -232.959991 
L 102.06 -230.589665 
L 100.758 -228.159369 
L 99.456 -225.665811 
L 98.154 -223.105349 
L 96.852 -220.47394 
L 95.55 -217.767086 
L 94.248 -214.979769 
L 92.946 -212.106364 
L 91.644 -209.140551 
L 90.342 -206.075195 
L 89.04 -202.902214 
L 87.738 -199.612404 
L 86.436 -196.195242 
L 85.134 -192.638626 
L 83.832 -188.928563 
L 82.53 -185.048773 
L 81.228 -180.980189 
L 79.926 -176.700312 
L 78.624 -172.18238 
L 77.322 -167.394274 
L 76.02 -162.297055 
L 74.718 -156.842981 
L 73.416 -150.972738 
L 72.114 -144.611481 
L 70.812 -137.662934 
L 69.51 -130.000183 
L 68.208 -121.45036 
L 66.906 -111.766807 
L 65.604 -100.571172 
L 64.302 -87.19501 
z
" id="m8be7fb0d15" style="stroke:#0000ff;stroke-opacity:0.4;"/>
    </defs>
    <g clip-path="url(#pf23ff19dd4)">
     <use style="fill:#0000ff;fill-opacity:0.4;stroke:#0000ff;stroke-opacity:0.4;" x="0" xlink:href="#m8be7fb0d15" y="504"/>
    </g>
   </g>
   <g id="PolyCollection_2">
    <path clip-path="url(#pf23ff19dd4)" d="M 64.302 87.439409 
L 64.302 136.459828 
L 65.604 136.459828 
L 66.906 136.459828 
L 68.208 136.459828 
L 69.51 136.459828 
L 70.812 136.459828 
L 72.114 136.459828 
L 73.416 136.459828 
L 74.718 136.459828 
L 76.02 136.459828 
L 77.322 136.459828 
L 78.624 136.459828 
L 79.926 136.459828 
L 81.228 136.459828 
L 82.53 136.459828 
L 83.832 136.459828 
L 85.134 136.459828 
L 86.436 136.459828 
L 87.738 136.459828 
L 89.04 136.459828 
L 90.342 136.459828 
L 91.644 136.459828 
L 92.946 136.459828 
L 94.248 136.459828 
L 95.55 136.459828 
L 96.852 136.459828 
L 98.154 136.459828 
L 99.456 136.459828 
L 100.758 136.459828 
L 102.06 136.459828 
L 103.362 136.459828 
L 104.664 136.459828 
L 105.966 136.459828 
L 107.268 136.459828 
L 108.57 136.459828 
L 109.872 136.459828 
L 111.174 136.459828 
L 112.476 136.459828 
L 113.778 136.459828 
L 115.08 136.459828 
L 116.382 136.459828 
L 117.684 136.459828 
L 118.986 136.459828 
L 120.288 136.459828 
L 121.59 136.459828 
L 122.892 136.459828 
L 124.194 136.459828 
L 125.496 136.459828 
L 126.798 136.459828 
L 128.1 136.459828 
L 129.402 136.459828 
L 130.704 136.459828 
L 132.006 136.459828 
L 133.308 136.459828 
L 134.61 136.459828 
L 135.912 136.459828 
L 137.214 136.459828 
L 138.516 136.459828 
L 139.818 136.459828 
L 141.12 136.459828 
L 142.422 136.459828 
L 143.724 136.459828 
L 145.026 136.459828 
L 146.328 136.459828 
L 147.63 136.459828 
L 148.932 136.459828 
L 150.234 136.459828 
L 151.536 136.459828 
L 152.838 136.459828 
L 154.14 136.459828 
L 155.442 136.459828 
L 156.744 136.459828 
L 158.046 136.459828 
L 159.348 136.459828 
L 160.65 136.459828 
L 161.952 136.459828 
L 163.254 136.459828 
L 164.556 136.459828 
L 165.858 136.459828 
L 167.16 136.459828 
L 168.462 136.459828 
L 169.764 136.459828 
L 171.066 136.459828 
L 172.368 136.459828 
L 173.67 136.459828 
L 174.972 136.459828 
L 176.274 136.459828 
L 177.576 136.459828 
L 178.878 136.459828 
L 180.18 136.459828 
L 181.482 136.459828 
L 182.784 136.459828 
L 184.086 136.459828 
L 185.388 136.459828 
L 186.69 136.459828 
L 187.992 136.459828 
L 189.294 136.459828 
L 190.596 136.459828 
L 191.898 136.459828 
L 193.2 136.459828 
L 194.502 136.459828 
L 195.804 136.459828 
L 197.106 136.459828 
L 198.408 136.459828 
L 199.71 136.459828 
L 201.012 136.459828 
L 202.314 136.459828 
L 203.616 136.459828 
L 204.918 136.459828 
L 206.22 136.459828 
L 207.522 136.459828 
L 208.824 136.459828 
L 210.126 136.459828 
L 211.428 136.459828 
L 212.73 136.459828 
L 214.032 136.459828 
L 215.334 136.459828 
L 216.636 136.459828 
L 217.938 136.459828 
L 219.24 136.459828 
L 220.542 136.459828 
L 221.844 136.459828 
L 223.146 136.459828 
L 224.448 136.459828 
L 225.75 136.459828 
L 227.052 136.459828 
L 228.354 136.459828 
L 229.656 136.459828 
L 230.958 136.459828 
L 232.26 136.459828 
L 233.562 136.459828 
L 234.864 136.459828 
L 236.166 136.459828 
L 237.468 136.459828 
L 238.77 136.459828 
L 240.072 136.459828 
L 241.374 136.459828 
L 242.676 136.459828 
L 243.978 136.459828 
L 245.28 136.459828 
L 246.582 136.459828 
L 247.884 136.459828 
L 249.186 136.459828 
L 250.488 136.459828 
L 251.79 136.459828 
L 253.092 136.459828 
L 254.394 136.459828 
L 255.696 136.459828 
L 256.998 136.459828 
L 258.3 136.459828 
L 259.602 136.459828 
L 260.904 136.459828 
L 262.206 136.459828 
L 263.508 136.459828 
L 264.81 136.459828 
L 266.112 136.459828 
L 267.414 136.459828 
L 268.716 136.459828 
L 270.018 136.459828 
L 271.32 136.459828 
L 272.622 136.459828 
L 273.924 136.459828 
L 275.226 136.459828 
L 276.528 136.459828 
L 277.83 136.459828 
L 279.132 136.459828 
L 280.434 136.459828 
L 281.736 136.459828 
L 283.038 136.459828 
L 284.34 136.459828 
L 285.642 136.459828 
L 286.944 136.459828 
L 288.246 136.459828 
L 289.548 136.459828 
L 290.85 136.459828 
L 292.152 136.459828 
L 293.454 136.459828 
L 294.756 136.459828 
L 296.058 136.459828 
L 297.36 136.459828 
L 298.662 136.459828 
L 299.964 136.459828 
L 301.266 136.459828 
L 302.568 136.459828 
L 303.87 136.459828 
L 305.172 136.459828 
L 306.474 136.459828 
L 307.776 136.459828 
L 309.078 136.459828 
L 310.38 136.459828 
L 311.682 136.459828 
L 312.984 136.459828 
L 314.286 136.459828 
L 315.588 136.459828 
L 316.89 136.459828 
L 318.192 136.459828 
L 319.494 136.459828 
L 320.796 136.459828 
L 322.098 136.459828 
L 323.4 136.459828 
L 324.702 136.459828 
L 326.004 136.459828 
L 327.306 136.459828 
L 328.608 136.459828 
L 329.91 136.459828 
L 331.212 136.459828 
L 332.514 136.459828 
L 333.816 136.459828 
L 335.118 136.459828 
L 336.42 136.459828 
L 337.722 136.459828 
L 339.024 136.459828 
L 340.326 136.459828 
L 341.628 136.459828 
L 342.93 136.459828 
L 344.232 136.459828 
L 345.534 136.459828 
L 346.836 136.459828 
L 348.138 136.459828 
L 349.44 136.459828 
L 350.742 136.459828 
L 352.044 136.459828 
L 353.346 136.459828 
L 354.648 136.459828 
L 355.95 136.459828 
L 357.252 136.459828 
L 358.554 136.459828 
L 359.856 136.459828 
L 361.158 136.459828 
L 362.46 136.459828 
L 363.762 136.459828 
L 365.064 136.459828 
L 366.366 136.459828 
L 367.668 136.459828 
L 368.97 136.459828 
L 370.272 136.459828 
L 371.574 136.459828 
L 372.876 136.459828 
L 374.178 136.459828 
L 375.48 136.459828 
L 376.782 136.459828 
L 378.084 136.459828 
L 379.386 136.459828 
L 380.688 136.459828 
L 381.99 136.459828 
L 383.292 136.459828 
L 384.594 136.459828 
L 385.896 136.459828 
L 387.198 136.459828 
L 388.5 136.459828 
L 389.802 136.459828 
L 391.104 136.459828 
L 392.406 136.459828 
L 393.708 136.459828 
L 395.01 136.459828 
L 396.312 136.459828 
L 397.614 136.459828 
L 398.916 136.459828 
L 400.218 136.459828 
L 401.52 136.459828 
L 402.822 136.459828 
L 404.124 136.459828 
L 405.426 136.459828 
L 406.728 136.459828 
L 408.03 136.459828 
L 409.332 136.459828 
L 410.634 136.459828 
L 411.936 136.459828 
L 413.238 136.459828 
L 414.54 136.459828 
L 415.842 136.459828 
L 417.144 136.459828 
L 418.446 136.459828 
L 419.748 136.459828 
L 421.05 136.459828 
L 422.352 136.459828 
L 423.654 136.459828 
L 424.956 136.459828 
L 426.258 136.459828 
L 427.56 136.459828 
L 428.862 136.459828 
L 430.164 136.459828 
L 431.466 136.459828 
L 432.768 136.459828 
L 434.07 136.459828 
L 435.372 136.459828 
L 436.674 136.459828 
L 437.976 136.459828 
L 439.278 136.459828 
L 440.58 136.459828 
L 441.882 136.459828 
L 443.184 136.459828 
L 444.486 136.459828 
L 445.788 136.459828 
L 447.09 136.459828 
L 448.392 136.459828 
L 449.694 136.459828 
L 450.996 136.459828 
L 452.298 136.459828 
L 453.6 136.459828 
L 454.902 136.459828 
L 456.204 136.459828 
L 457.506 136.459828 
L 458.808 136.459828 
L 460.11 136.459828 
L 461.412 136.459828 
L 462.714 136.459828 
L 464.016 136.459828 
L 465.318 136.459828 
L 466.62 136.459828 
L 467.922 136.459828 
L 469.224 136.459828 
L 470.526 136.459828 
L 471.828 136.459828 
L 473.13 136.459828 
L 474.432 136.459828 
L 475.734 136.459828 
L 477.036 136.459828 
L 478.338 136.459828 
L 479.64 136.459828 
L 480.942 136.459828 
L 482.244 136.459828 
L 483.546 136.459828 
L 484.848 136.459828 
L 486.15 136.459828 
L 487.452 136.459828 
L 488.754 136.459828 
L 490.056 136.459828 
L 491.358 136.459828 
L 492.66 136.459828 
L 493.962 136.459828 
L 495.264 136.459828 
L 496.566 136.459828 
L 497.868 136.459828 
L 499.17 136.459828 
L 500.472 136.459828 
L 501.774 136.459828 
L 503.076 136.459828 
L 504.378 136.459828 
L 505.68 136.459828 
L 506.982 136.459828 
L 508.284 136.459828 
L 509.586 136.459828 
L 510.888 136.459828 
L 512.19 136.459828 
L 513.492 136.459828 
L 514.794 136.459828 
L 516.096 136.459828 
L 517.398 136.459828 
L 518.7 136.459828 
L 520.002 136.459828 
L 521.304 136.459828 
L 522.606 136.459828 
L 523.908 136.459828 
L 525.21 136.459828 
L 526.512 136.459828 
L 527.814 136.459828 
L 529.116 136.459828 
L 530.418 136.459828 
L 531.72 136.459828 
L 533.022 136.459828 
L 534.324 136.459828 
L 535.626 136.459828 
L 536.928 136.459828 
L 538.23 136.459828 
L 539.532 136.459828 
L 540.834 136.459828 
L 542.136 136.459828 
L 543.438 136.459828 
L 544.74 136.459828 
L 546.042 136.459828 
L 547.344 136.459828 
L 548.646 136.459828 
L 549.948 136.459828 
L 551.25 136.459828 
L 552.552 136.459828 
L 553.854 136.459828 
L 555.156 136.459828 
L 556.458 136.459828 
L 557.76 136.459828 
L 559.062 136.459828 
L 560.364 136.459828 
L 561.666 136.459828 
L 562.968 136.459828 
L 564.27 136.459828 
L 565.572 136.459828 
L 566.874 136.459828 
L 568.176 136.459828 
L 569.478 136.459828 
L 570.78 136.459828 
L 572.082 136.459828 
L 573.384 136.459828 
L 574.686 136.459828 
L 575.988 136.459828 
L 577.29 136.459828 
L 578.592 136.459828 
L 579.894 136.459828 
L 581.196 136.459828 
L 582.498 136.459828 
L 583.8 136.459828 
L 585.102 136.459828 
L 586.404 136.459828 
L 587.706 136.459828 
L 589.008 136.459828 
L 590.31 136.459828 
L 591.612 136.459828 
L 592.914 136.459828 
L 594.216 136.459828 
L 595.518 136.459828 
L 596.82 136.459828 
L 598.122 136.459828 
L 599.424 136.459828 
L 600.726 136.459828 
L 602.028 136.459828 
L 603.33 136.459828 
L 604.632 136.459828 
L 605.934 136.459828 
L 607.236 136.459828 
L 608.538 136.459828 
L 609.84 136.459828 
L 611.142 136.459828 
L 612.444 136.459828 
L 613.746 136.459828 
L 615.048 136.459828 
L 616.35 136.459828 
L 617.652 136.459828 
L 618.954 136.459828 
L 620.256 136.459828 
L 621.558 136.459828 
L 622.86 136.459828 
L 624.162 136.459828 
L 625.464 136.459828 
L 626.766 136.459828 
L 628.068 136.459828 
L 629.37 136.459828 
L 630.672 136.459828 
L 631.974 136.459828 
L 633.276 136.459828 
L 634.578 136.459828 
L 635.88 136.459828 
L 637.182 136.459828 
L 638.484 136.459828 
L 639.786 136.459828 
L 641.088 136.459828 
L 642.39 136.459828 
L 643.692 136.459828 
L 644.994 136.459828 
L 646.296 136.459828 
L 647.598 136.459828 
L 648.9 136.459828 
L 650.202 136.459828 
L 651.504 136.459828 
L 652.806 136.459828 
L 654.108 136.459828 
L 655.41 136.459828 
L 656.712 136.459828 
L 658.014 136.459828 
L 659.316 136.459828 
L 660.618 136.459828 
L 661.92 136.459828 
L 663.222 136.459828 
L 664.524 136.459828 
L 665.826 136.459828 
L 667.128 136.459828 
L 668.43 136.459828 
L 669.732 136.459828 
L 671.034 136.459828 
L 672.336 136.459828 
L 673.638 136.459828 
L 674.94 136.459828 
L 676.242 136.459828 
L 677.544 136.459828 
L 678.846 136.459828 
L 680.148 136.459828 
L 681.45 136.459828 
L 682.752 136.459828 
L 684.054 136.459828 
L 685.356 136.459828 
L 686.658 136.459828 
L 687.96 136.459828 
L 689.262 136.459828 
L 690.564 136.459828 
L 691.866 136.459828 
L 693.168 136.459828 
L 694.47 136.459828 
L 695.772 136.459828 
L 697.074 136.459828 
L 698.376 136.459828 
L 699.678 136.459828 
L 700.98 136.459828 
L 702.282 136.459828 
L 703.584 136.459828 
L 704.886 136.459828 
L 706.188 136.459828 
L 707.49 136.459828 
L 708.792 136.459828 
L 710.094 136.459828 
L 711.396 136.459828 
L 712.698 136.459828 
L 714 136.459828 
L 714 87.439409 
L 714 87.439409 
L 712.698 87.439409 
L 711.396 87.439409 
L 710.094 87.439409 
L 708.792 87.439409 
L 707.49 87.439409 
L 706.188 87.439409 
L 704.886 87.439409 
L 703.584 87.439409 
L 702.282 87.439409 
L 700.98 87.439409 
L 699.678 87.439409 
L 698.376 87.439409 
L 697.074 87.439409 
L 695.772 87.439409 
L 694.47 87.439409 
L 693.168 87.439409 
L 691.866 87.439409 
L 690.564 87.439409 
L 689.262 87.439409 
L 687.96 87.439409 
L 686.658 87.439409 
L 685.356 87.439409 
L 684.054 87.439409 
L 682.752 87.439409 
L 681.45 87.439409 
L 680.148 87.439409 
L 678.846 87.439409 
L 677.544 87.439409 
L 676.242 87.439409 
L 674.94 87.439409 
L 673.638 87.439409 
L 672.336 87.439409 
L 671.034 87.439409 
L 669.732 87.439409 
L 668.43 87.439409 
L 667.128 87.439409 
L 665.826 87.439409 
L 664.524 87.439409 
L 663.222 87.439409 
L 661.92 87.439409 
L 660.618 87.439409 
L 659.316 87.439409 
L 658.014 87.439409 
L 656.712 87.439409 
L 655.41 87.439409 
L 654.108 87.439409 
L 652.806 87.439409 
L 651.504 87.439409 
L 650.202 87.439409 
L 648.9 87.439409 
L 647.598 87.439409 
L 646.296 87.439409 
L 644.994 87.439409 
L 643.692 87.439409 
L 642.39 87.439409 
L 641.088 87.439409 
L 639.786 87.439409 
L 638.484 87.439409 
L 637.182 87.439409 
L 635.88 87.439409 
L 634.578 87.439409 
L 633.276 87.439409 
L 631.974 87.439409 
L 630.672 87.439409 
L 629.37 87.439409 
L 628.068 87.439409 
L 626.766 87.439409 
L 625.464 87.439409 
L 624.162 87.439409 
L 622.86 87.439409 
L 621.558 87.439409 
L 620.256 87.439409 
L 618.954 87.439409 
L 617.652 87.439409 
L 616.35 87.439409 
L 615.048 87.439409 
L 613.746 87.439409 
L 612.444 87.439409 
L 611.142 87.439409 
L 609.84 87.439409 
L 608.538 87.439409 
L 607.236 87.439409 
L 605.934 87.439409 
L 604.632 87.439409 
L 603.33 87.439409 
L 602.028 87.439409 
L 600.726 87.439409 
L 599.424 87.439409 
L 598.122 87.439409 
L 596.82 87.439409 
L 595.518 87.439409 
L 594.216 87.439409 
L 592.914 87.439409 
L 591.612 87.439409 
L 590.31 87.439409 
L 589.008 87.439409 
L 587.706 87.439409 
L 586.404 87.439409 
L 585.102 87.439409 
L 583.8 87.439409 
L 582.498 87.439409 
L 581.196 87.439409 
L 579.894 87.439409 
L 578.592 87.439409 
L 577.29 87.439409 
L 575.988 87.439409 
L 574.686 87.439409 
L 573.384 87.439409 
L 572.082 87.439409 
L 570.78 87.439409 
L 569.478 87.439409 
L 568.176 87.439409 
L 566.874 87.439409 
L 565.572 87.439409 
L 564.27 87.439409 
L 562.968 87.439409 
L 561.666 87.439409 
L 560.364 87.439409 
L 559.062 87.439409 
L 557.76 87.439409 
L 556.458 87.439409 
L 555.156 87.439409 
L 553.854 87.439409 
L 552.552 87.439409 
L 551.25 87.439409 
L 549.948 87.439409 
L 548.646 87.439409 
L 547.344 87.439409 
L 546.042 87.439409 
L 544.74 87.439409 
L 543.438 87.439409 
L 542.136 87.439409 
L 540.834 87.439409 
L 539.532 87.439409 
L 538.23 87.439409 
L 536.928 87.439409 
L 535.626 87.439409 
L 534.324 87.439409 
L 533.022 87.439409 
L 531.72 87.439409 
L 530.418 87.439409 
L 529.116 87.439409 
L 527.814 87.439409 
L 526.512 87.439409 
L 525.21 87.439409 
L 523.908 87.439409 
L 522.606 87.439409 
L 521.304 87.439409 
L 520.002 87.439409 
L 518.7 87.439409 
L 517.398 87.439409 
L 516.096 87.439409 
L 514.794 87.439409 
L 513.492 87.439409 
L 512.19 87.439409 
L 510.888 87.439409 
L 509.586 87.439409 
L 508.284 87.439409 
L 506.982 87.439409 
L 505.68 87.439409 
L 504.378 87.439409 
L 503.076 87.439409 
L 501.774 87.439409 
L 500.472 87.439409 
L 499.17 87.439409 
L 497.868 87.439409 
L 496.566 87.439409 
L 495.264 87.439409 
L 493.962 87.439409 
L 492.66 87.439409 
L 491.358 87.439409 
L 490.056 87.439409 
L 488.754 87.439409 
L 487.452 87.439409 
L 486.15 87.439409 
L 484.848 87.439409 
L 483.546 87.439409 
L 482.244 87.439409 
L 480.942 87.439409 
L 479.64 87.439409 
L 478.338 87.439409 
L 477.036 87.439409 
L 475.734 87.439409 
L 474.432 87.439409 
L 473.13 87.439409 
L 471.828 87.439409 
L 470.526 87.439409 
L 469.224 87.439409 
L 467.922 87.439409 
L 466.62 87.439409 
L 465.318 87.439409 
L 464.016 87.439409 
L 462.714 87.439409 
L 461.412 87.439409 
L 460.11 87.439409 
L 458.808 87.439409 
L 457.506 87.439409 
L 456.204 87.439409 
L 454.902 87.439409 
L 453.6 87.439409 
L 452.298 87.439409 
L 450.996 87.439409 
L 449.694 87.439409 
L 448.392 87.439409 
L 447.09 87.439409 
L 445.788 87.439409 
L 444.486 87.439409 
L 443.184 87.439409 
L 441.882 87.439409 
L 440.58 87.439409 
L 439.278 87.439409 
L 437.976 87.439409 
L 436.674 87.439409 
L 435.372 87.439409 
L 434.07 87.439409 
L 432.768 87.439409 
L 431.466 87.439409 
L 430.164 87.439409 
L 428.862 87.439409 
L 427.56 87.439409 
L 426.258 87.439409 
L 424.956 87.439409 
L 423.654 87.439409 
L 422.352 87.439409 
L 421.05 87.439409 
L 419.748 87.439409 
L 418.446 87.439409 
L 417.144 87.439409 
L 415.842 87.439409 
L 414.54 87.439409 
L 413.238 87.439409 
L 411.936 87.439409 
L 410.634 87.439409 
L 409.332 87.439409 
L 408.03 87.439409 
L 406.728 87.439409 
L 405.426 87.439409 
L 404.124 87.439409 
L 402.822 87.439409 
L 401.52 87.439409 
L 400.218 87.439409 
L 398.916 87.439409 
L 397.614 87.439409 
L 396.312 87.439409 
L 395.01 87.439409 
L 393.708 87.439409 
L 392.406 87.439409 
L 391.104 87.439409 
L 389.802 87.439409 
L 388.5 87.439409 
L 387.198 87.439409 
L 385.896 87.439409 
L 384.594 87.439409 
L 383.292 87.439409 
L 381.99 87.439409 
L 380.688 87.439409 
L 379.386 87.439409 
L 378.084 87.439409 
L 376.782 87.439409 
L 375.48 87.439409 
L 374.178 87.439409 
L 372.876 87.439409 
L 371.574 87.439409 
L 370.272 87.439409 
L 368.97 87.439409 
L 367.668 87.439409 
L 366.366 87.439409 
L 365.064 87.439409 
L 363.762 87.439409 
L 362.46 87.439409 
L 361.158 87.439409 
L 359.856 87.439409 
L 358.554 87.439409 
L 357.252 87.439409 
L 355.95 87.439409 
L 354.648 87.439409 
L 353.346 87.439409 
L 352.044 87.439409 
L 350.742 87.439409 
L 349.44 87.439409 
L 348.138 87.439409 
L 346.836 87.439409 
L 345.534 87.439409 
L 344.232 87.439409 
L 342.93 87.439409 
L 341.628 87.439409 
L 340.326 87.439409 
L 339.024 87.439409 
L 337.722 87.439409 
L 336.42 87.439409 
L 335.118 87.439409 
L 333.816 87.439409 
L 332.514 87.439409 
L 331.212 87.439409 
L 329.91 87.439409 
L 328.608 87.439409 
L 327.306 87.439409 
L 326.004 87.439409 
L 324.702 87.439409 
L 323.4 87.439409 
L 322.098 87.439409 
L 320.796 87.439409 
L 319.494 87.439409 
L 318.192 87.439409 
L 316.89 87.439409 
L 315.588 87.439409 
L 314.286 87.439409 
L 312.984 87.439409 
L 311.682 87.439409 
L 310.38 87.439409 
L 309.078 87.439409 
L 307.776 87.439409 
L 306.474 87.439409 
L 305.172 87.439409 
L 303.87 87.439409 
L 302.568 87.439409 
L 301.266 87.439409 
L 299.964 87.439409 
L 298.662 87.439409 
L 297.36 87.439409 
L 296.058 87.439409 
L 294.756 87.439409 
L 293.454 87.439409 
L 292.152 87.439409 
L 290.85 87.439409 
L 289.548 87.439409 
L 288.246 87.439409 
L 286.944 87.439409 
L 285.642 87.439409 
L 284.34 87.439409 
L 283.038 87.439409 
L 281.736 87.439409 
L 280.434 87.439409 
L 279.132 87.439409 
L 277.83 87.439409 
L 276.528 87.439409 
L 275.226 87.439409 
L 273.924 87.439409 
L 272.622 87.439409 
L 271.32 87.439409 
L 270.018 87.439409 
L 268.716 87.439409 
L 267.414 87.439409 
L 266.112 87.439409 
L 264.81 87.439409 
L 263.508 87.439409 
L 262.206 87.439409 
L 260.904 87.439409 
L 259.602 87.439409 
L 258.3 87.439409 
L 256.998 87.439409 
L 255.696 87.439409 
L 254.394 87.439409 
L 253.092 87.439409 
L 251.79 87.439409 
L 250.488 87.439409 
L 249.186 87.439409 
L 247.884 87.439409 
L 246.582 87.439409 
L 245.28 87.439409 
L 243.978 87.439409 
L 242.676 87.439409 
L 241.374 87.439409 
L 240.072 87.439409 
L 238.77 87.439409 
L 237.468 87.439409 
L 236.166 87.439409 
L 234.864 87.439409 
L 233.562 87.439409 
L 232.26 87.439409 
L 230.958 87.439409 
L 229.656 87.439409 
L 228.354 87.439409 
L 227.052 87.439409 
L 225.75 87.439409 
L 224.448 87.439409 
L 223.146 87.439409 
L 221.844 87.439409 
L 220.542 87.439409 
L 219.24 87.439409 
L 217.938 87.439409 
L 216.636 87.439409 
L 215.334 87.439409 
L 214.032 87.439409 
L 212.73 87.439409 
L 211.428 87.439409 
L 210.126 87.439409 
L 208.824 87.439409 
L 207.522 87.439409 
L 206.22 87.439409 
L 204.918 87.439409 
L 203.616 87.439409 
L 202.314 87.439409 
L 201.012 87.439409 
L 199.71 87.439409 
L 198.408 87.439409 
L 197.106 87.439409 
L 195.804 87.439409 
L 194.502 87.439409 
L 193.2 87.439409 
L 191.898 87.439409 
L 190.596 87.439409 
L 189.294 87.439409 
L 187.992 87.439409 
L 186.69 87.439409 
L 185.388 87.439409 
L 184.086 87.439409 
L 182.784 87.439409 
L 181.482 87.439409 
L 180.18 87.439409 
L 178.878 87.439409 
L 177.576 87.439409 
L 176.274 87.439409 
L 174.972 87.439409 
L 173.67 87.439409 
L 172.368 87.439409 
L 171.066 87.439409 
L 169.764 87.439409 
L 168.462 87.439409 
L 167.16 87.439409 
L 165.858 87.439409 
L 164.556 87.439409 
L 163.254 87.439409 
L 161.952 87.439409 
L 160.65 87.439409 
L 159.348 87.439409 
L 158.046 87.439409 
L 156.744 87.439409 
L 155.442 87.439409 
L 154.14 87.439409 
L 152.838 87.439409 
L 151.536 87.439409 
L 150.234 87.439409 
L 148.932 87.439409 
L 147.63 87.439409 
L 146.328 87.439409 
L 145.026 87.439409 
L 143.724 87.439409 
L 142.422 87.439409 
L 141.12 87.439409 
L 139.818 87.439409 
L 138.516 87.439409 
L 137.214 87.439409 
L 135.912 87.439409 
L 134.61 87.439409 
L 133.308 87.439409 
L 132.006 87.439409 
L 130.704 87.439409 
L 129.402 87.439409 
L 128.1 87.439409 
L 126.798 87.439409 
L 125.496 87.439409 
L 124.194 87.439409 
L 122.892 87.439409 
L 121.59 87.439409 
L 120.288 87.439409 
L 118.986 87.439409 
L 117.684 87.439409 
L 116.382 87.439409 
L 115.08 87.439409 
L 113.778 87.439409 
L 112.476 87.439409 
L 111.174 87.439409 
L 109.872 87.439409 
L 108.57 87.439409 
L 107.268 87.439409 
L 105.966 87.439409 
L 104.664 87.439409 
L 103.362 87.439409 
L 102.06 87.439409 
L 100.758 87.439409 
L 99.456 87.439409 
L 98.154 87.439409 
L 96.852 87.439409 
L 95.55 87.439409 
L 94.248 87.439409 
L 92.946 87.439409 
L 91.644 87.439409 
L 90.342 87.439409 
L 89.04 87.439409 
L 87.738 87.439409 
L 86.436 87.439409 
L 85.134 87.439409 
L 83.832 87.439409 
L 82.53 87.439409 
L 81.228 87.439409 
L 79.926 87.439409 
L 78.624 87.439409 
L 77.322 87.439409 
L 76.02 87.439409 
L 74.718 87.439409 
L 73.416 87.439409 
L 72.114 87.439409 
L 70.812 87.439409 
L 69.51 87.439409 
L 68.208 87.439409 
L 66.906 87.439409 
L 65.604 87.439409 
L 64.302 87.439409 
z
" style="fill:#ff0000;fill-opacity:0.2;stroke:#ff0000;stroke-opacity:0.2;"/>
   </g>
   <g id="matplotlib.axis_1">
    <g id="xtick_1">
     <g id="line2d_1">
      <defs>
       <path d="M 0 0 
L 0 3.5 
" id="mb64b693ae6" style="stroke:#000000;stroke-width:0.8;"/>
      </defs>
      <g>
       <use style="stroke:#000000;stroke-width:0.8;" x="63" xlink:href="#mb64b693ae6" y="441"/>
      </g>
     </g>
     <g id="text_1">
      <!-- 1 -->
      <defs>
       <path d="M 12.40625 8.296875 
L 28.515625 8.296875 
L 28.515625 63.921875 
L 10.984375 60.40625 
L 10.984375 69.390625 
L 28.421875 72.90625 
L 38.28125 72.90625 
L 38.28125 8.296875 
L 54.390625 8.296875 
L 54.390625 0 
L 12.40625 0 
z
" id="DejaVuSans-49"/>
      </defs>
      <g transform="translate(59.81875 455.598437)scale(0.1 -0.1)">
       <use xlink:href="#DejaVuSans-49"/>
      </g>
     </g>
    </g>
    <g id="xtick_2">
     <g id="line2d_2">
      <g>
       <use style="stroke:#000000;stroke-width:0.8;" x="155.09766" xlink:href="#mb64b693ae6" y="441"/>
      </g>
     </g>
     <g id="text_2">
      <!-- 5 -->
      <defs>
       <path d="M 10.796875 72.90625 
L 49.515625 72.90625 
L 49.515625 64.59375 
L 19.828125 64.59375 
L 19.828125 46.734375 
Q 21.96875 47.46875 24.109375 47.828125 
Q 26.265625 48.1875 28.421875 48.1875 
Q 40.625 48.1875 47.75 41.5 
Q 54.890625 34.8125 54.890625 23.390625 
Q 54.890625 11.625 47.5625 5.09375 
Q 40.234375 -1.421875 26.90625 -1.421875 
Q 22.3125 -1.421875 17.546875 -0.640625 
Q 12.796875 0.140625 7.71875 1.703125 
L 7.71875 11.625 
Q 12.109375 9.234375 16.796875 8.0625 
Q 21.484375 6.890625 26.703125 6.890625 
Q 35.15625 6.890625 40.078125 11.328125 
Q 45.015625 15.765625 45.015625 23.390625 
Q 45.015625 31 40.078125 35.4375 
Q 35.15625 39.890625 26.703125 39.890625 
Q 22.75 39.890625 18.8125 39.015625 
Q 14.890625 38.140625 10.796875 36.28125 
z
" id="DejaVuSans-53"/>
      </defs>
      <g transform="translate(151.91641 455.598437)scale(0.1 -0.1)">
       <use xlink:href="#DejaVuSans-53"/>
      </g>
     </g>
    </g>
    <g id="xtick_3">
     <g id="line2d_3">
      <g>
       <use style="stroke:#000000;stroke-width:0.8;" x="247.195321" xlink:href="#mb64b693ae6" y="441"/>
      </g>
     </g>
     <g id="text_3">
      <!-- 10 -->
      <defs>
       <path d="M 31.78125 66.40625 
Q 24.171875 66.40625 20.328125 58.90625 
Q 16.5 51.421875 16.5 36.375 
Q 16.5 21.390625 20.328125 13.890625 
Q 24.171875 6.390625 31.78125 6.390625 
Q 39.453125 6.390625 43.28125 13.890625 
Q 47.125 21.390625 47.125 36.375 
Q 47.125 51.421875 43.28125 58.90625 
Q 39.453125 66.40625 31.78125 66.40625 
z
M 31.78125 74.21875 
Q 44.046875 74.21875 50.515625 64.515625 
Q 56.984375 54.828125 56.984375 36.375 
Q 56.984375 17.96875 50.515625 8.265625 
Q 44.046875 -1.421875 31.78125 -1.421875 
Q 19.53125 -1.421875 13.0625 8.265625 
Q 6.59375 17.96875 6.59375 36.375 
Q 6.59375 54.828125 13.0625 64.515625 
Q 19.53125 74.21875 31.78125 74.21875 
z
" id="DejaVuSans-48"/>
      </defs>
      <g transform="translate(240.832821 455.598437)scale(0.1 -0.1)">
       <use xlink:href="#DejaVuSans-49"/>
       <use x="63.623047" xlink:href="#DejaVuSans-48"/>
      </g>
     </g>
    </g>
    <g id="xtick_4">
     <g id="line2d_4">
      <g>
       <use style="stroke:#000000;stroke-width:0.8;" x="339.292981" xlink:href="#mb64b693ae6" y="441"/>
      </g>
     </g>
     <g id="text_4">
      <!-- 15 -->
      <g transform="translate(332.930481 455.598437)scale(0.1 -0.1)">
       <use xlink:href="#DejaVuSans-49"/>
       <use x="63.623047" xlink:href="#DejaVuSans-53"/>
      </g>
     </g>
    </g>
    <g id="xtick_5">
     <g id="line2d_5">
      <g>
       <use style="stroke:#000000;stroke-width:0.8;" x="431.390642" xlink:href="#mb64b693ae6" y="441"/>
      </g>
     </g>
     <g id="text_5">
      <!-- 20 -->
      <defs>
       <path d="M 19.1875 8.296875 
L 53.609375 8.296875 
L 53.609375 0 
L 7.328125 0 
L 7.328125 8.296875 
Q 12.9375 14.109375 22.625 23.890625 
Q 32.328125 33.6875 34.8125 36.53125 
Q 39.546875 41.84375 41.421875 45.53125 
Q 43.3125 49.21875 43.3125 52.78125 
Q 43.3125 58.59375 39.234375 62.25 
Q 35.15625 65.921875 28.609375 65.921875 
Q 23.96875 65.921875 18.8125 64.3125 
Q 13.671875 62.703125 7.8125 59.421875 
L 7.8125 69.390625 
Q 13.765625 71.78125 18.9375 73 
Q 24.125 74.21875 28.421875 74.21875 
Q 39.75 74.21875 46.484375 68.546875 
Q 53.21875 62.890625 53.21875 53.421875 
Q 53.21875 48.921875 51.53125 44.890625 
Q 49.859375 40.875 45.40625 35.40625 
Q 44.1875 33.984375 37.640625 27.21875 
Q 31.109375 20.453125 19.1875 8.296875 
z
" id="DejaVuSans-50"/>
      </defs>
      <g transform="translate(425.028142 455.598437)scale(0.1 -0.1)">
       <use xlink:href="#DejaVuSans-50"/>
       <use x="63.623047" xlink:href="#DejaVuSans-48"/>
      </g>
     </g>
    </g>
    <g id="text_6">
     <!-- Area surveyed (ha) -->
     <defs>
      <path d="M 34.1875 63.1875 
L 20.796875 26.90625 
L 47.609375 26.90625 
z
M 28.609375 72.90625 
L 39.796875 72.90625 
L 67.578125 0 
L 57.328125 0 
L 50.6875 18.703125 
L 17.828125 18.703125 
L 11.1875 0 
L 0.78125 0 
z
" id="DejaVuSans-65"/>
      <path d="M 41.109375 46.296875 
Q 39.59375 47.171875 37.8125 47.578125 
Q 36.03125 48 33.890625 48 
Q 26.265625 48 22.1875 43.046875 
Q 18.109375 38.09375 18.109375 28.8125 
L 18.109375 0 
L 9.078125 0 
L 9.078125 54.6875 
L 18.109375 54.6875 
L 18.109375 46.1875 
Q 20.953125 51.171875 25.484375 53.578125 
Q 30.03125 56 36.53125 56 
Q 37.453125 56 38.578125 55.875 
Q 39.703125 55.765625 41.0625 55.515625 
z
" id="DejaVuSans-114"/>
      <path d="M 56.203125 29.59375 
L 56.203125 25.203125 
L 14.890625 25.203125 
Q 15.484375 15.921875 20.484375 11.0625 
Q 25.484375 6.203125 34.421875 6.203125 
Q 39.59375 6.203125 44.453125 7.46875 
Q 49.3125 8.734375 54.109375 11.28125 
L 54.109375 2.78125 
Q 49.265625 0.734375 44.1875 -0.34375 
Q 39.109375 -1.421875 33.890625 -1.421875 
Q 20.796875 -1.421875 13.15625 6.1875 
Q 5.515625 13.8125 5.515625 26.8125 
Q 5.515625 40.234375 12.765625 48.109375 
Q 20.015625 56 32.328125 56 
Q 43.359375 56 49.78125 48.890625 
Q 56.203125 41.796875 56.203125 29.59375 
z
M 47.21875 32.234375 
Q 47.125 39.59375 43.09375 43.984375 
Q 39.0625 48.390625 32.421875 48.390625 
Q 24.90625 48.390625 20.390625 44.140625 
Q 15.875 39.890625 15.1875 32.171875 
z
" id="DejaVuSans-101"/>
      <path d="M 34.28125 27.484375 
Q 23.390625 27.484375 19.1875 25 
Q 14.984375 22.515625 14.984375 16.5 
Q 14.984375 11.71875 18.140625 8.90625 
Q 21.296875 6.109375 26.703125 6.109375 
Q 34.1875 6.109375 38.703125 11.40625 
Q 43.21875 16.703125 43.21875 25.484375 
L 43.21875 27.484375 
z
M 52.203125 31.203125 
L 52.203125 0 
L 43.21875 0 
L 43.21875 8.296875 
Q 40.140625 3.328125 35.546875 0.953125 
Q 30.953125 -1.421875 24.3125 -1.421875 
Q 15.921875 -1.421875 10.953125 3.296875 
Q 6 8.015625 6 15.921875 
Q 6 25.140625 12.171875 29.828125 
Q 18.359375 34.515625 30.609375 34.515625 
L 43.21875 34.515625 
L 43.21875 35.40625 
Q 43.21875 41.609375 39.140625 45 
Q 35.0625 48.390625 27.6875 48.390625 
Q 23 48.390625 18.546875 47.265625 
Q 14.109375 46.140625 10.015625 43.890625 
L 10.015625 52.203125 
Q 14.9375 54.109375 19.578125 55.046875 
Q 24.21875 56 28.609375 56 
Q 40.484375 56 46.34375 49.84375 
Q 52.203125 43.703125 52.203125 31.203125 
z
" id="DejaVuSans-97"/>
      <path id="DejaVuSans-32"/>
      <path d="M 44.28125 53.078125 
L 44.28125 44.578125 
Q 40.484375 46.53125 36.375 47.5 
Q 32.28125 48.484375 27.875 48.484375 
Q 21.1875 48.484375 17.84375 46.4375 
Q 14.5 44.390625 14.5 40.28125 
Q 14.5 37.15625 16.890625 35.375 
Q 19.28125 33.59375 26.515625 31.984375 
L 29.59375 31.296875 
Q 39.15625 29.25 43.1875 25.515625 
Q 47.21875 21.78125 47.21875 15.09375 
Q 47.21875 7.46875 41.1875 3.015625 
Q 35.15625 -1.421875 24.609375 -1.421875 
Q 20.21875 -1.421875 15.453125 -0.5625 
Q 10.6875 0.296875 5.421875 2 
L 5.421875 11.28125 
Q 10.40625 8.6875 15.234375 7.390625 
Q 20.0625 6.109375 24.8125 6.109375 
Q 31.15625 6.109375 34.5625 8.28125 
Q 37.984375 10.453125 37.984375 14.40625 
Q 37.984375 18.0625 35.515625 20.015625 
Q 33.0625 21.96875 24.703125 23.78125 
L 21.578125 24.515625 
Q 13.234375 26.265625 9.515625 29.90625 
Q 5.8125 33.546875 5.8125 39.890625 
Q 5.8125 47.609375 11.28125 51.796875 
Q 16.75 56 26.8125 56 
Q 31.78125 56 36.171875 55.265625 
Q 40.578125 54.546875 44.28125 53.078125 
z
" id="DejaVuSans-115"/>
      <path d="M 8.5 21.578125 
L 8.5 54.6875 
L 17.484375 54.6875 
L 17.484375 21.921875 
Q 17.484375 14.15625 20.5 10.265625 
Q 23.53125 6.390625 29.59375 6.390625 
Q 36.859375 6.390625 41.078125 11.03125 
Q 45.3125 15.671875 45.3125 23.6875 
L 45.3125 54.6875 
L 54.296875 54.6875 
L 54.296875 0 
L 45.3125 0 
L 45.3125 8.40625 
Q 42.046875 3.421875 37.71875 1 
Q 33.40625 -1.421875 27.6875 -1.421875 
Q 18.265625 -1.421875 13.375 4.4375 
Q 8.5 10.296875 8.5 21.578125 
z
M 31.109375 56 
z
" id="DejaVuSans-117"/>
      <path d="M 2.984375 54.6875 
L 12.5 54.6875 
L 29.59375 8.796875 
L 46.6875 54.6875 
L 56.203125 54.6875 
L 35.6875 0 
L 23.484375 0 
z
" id="DejaVuSans-118"/>
      <path d="M 32.171875 -5.078125 
Q 28.375 -14.84375 24.75 -17.8125 
Q 21.140625 -20.796875 15.09375 -20.796875 
L 7.90625 -20.796875 
L 7.90625 -13.28125 
L 13.1875 -13.28125 
Q 16.890625 -13.28125 18.9375 -11.515625 
Q 21 -9.765625 23.484375 -3.21875 
L 25.09375 0.875 
L 2.984375 54.6875 
L 12.5 54.6875 
L 29.59375 11.921875 
L 46.6875 54.6875 
L 56.203125 54.6875 
z
" id="DejaVuSans-121"/>
      <path d="M 45.40625 46.390625 
L 45.40625 75.984375 
L 54.390625 75.984375 
L 54.390625 0 
L 45.40625 0 
L 45.40625 8.203125 
Q 42.578125 3.328125 38.25 0.953125 
Q 33.9375 -1.421875 27.875 -1.421875 
Q 17.96875 -1.421875 11.734375 6.484375 
Q 5.515625 14.40625 5.515625 27.296875 
Q 5.515625 40.1875 11.734375 48.09375 
Q 17.96875 56 27.875 56 
Q 33.9375 56 38.25 53.625 
Q 42.578125 51.265625 45.40625 46.390625 
z
M 14.796875 27.296875 
Q 14.796875 17.390625 18.875 11.75 
Q 22.953125 6.109375 30.078125 6.109375 
Q 37.203125 6.109375 41.296875 11.75 
Q 45.40625 17.390625 45.40625 27.296875 
Q 45.40625 37.203125 41.296875 42.84375 
Q 37.203125 48.484375 30.078125 48.484375 
Q 22.953125 48.484375 18.875 42.84375 
Q 14.796875 37.203125 14.796875 27.296875 
z
" id="DejaVuSans-100"/>
      <path d="M 31 75.875 
Q 24.46875 64.65625 21.28125 53.65625 
Q 18.109375 42.671875 18.109375 31.390625 
Q 18.109375 20.125 21.3125 9.0625 
Q 24.515625 -2 31 -13.1875 
L 23.1875 -13.1875 
Q 15.875 -1.703125 12.234375 9.375 
Q 8.59375 20.453125 8.59375 31.390625 
Q 8.59375 42.28125 12.203125 53.3125 
Q 15.828125 64.359375 23.1875 75.875 
z
" id="DejaVuSans-40"/>
      <path d="M 54.890625 33.015625 
L 54.890625 0 
L 45.90625 0 
L 45.90625 32.71875 
Q 45.90625 40.484375 42.875 44.328125 
Q 39.84375 48.1875 33.796875 48.1875 
Q 26.515625 48.1875 22.3125 43.546875 
Q 18.109375 38.921875 18.109375 30.90625 
L 18.109375 0 
L 9.078125 0 
L 9.078125 75.984375 
L 18.109375 75.984375 
L 18.109375 46.1875 
Q 21.34375 51.125 25.703125 53.5625 
Q 30.078125 56 35.796875 56 
Q 45.21875 56 50.046875 50.171875 
Q 54.890625 44.34375 54.890625 33.015625 
z
" id="DejaVuSans-104"/>
      <path d="M 8.015625 75.875 
L 15.828125 75.875 
Q 23.140625 64.359375 26.78125 53.3125 
Q 30.421875 42.28125 30.421875 31.390625 
Q 30.421875 20.453125 26.78125 9.375 
Q 23.140625 -1.703125 15.828125 -13.1875 
L 8.015625 -13.1875 
Q 14.5 -2 17.703125 9.0625 
Q 20.90625 20.125 20.90625 31.390625 
Q 20.90625 42.671875 17.703125 53.65625 
Q 14.5 64.65625 8.015625 75.875 
z
" id="DejaVuSans-41"/>
     </defs>
     <g transform="translate(210.297656 469.276563)scale(0.1 -0.1)">
      <use xlink:href="#DejaVuSans-65"/>
      <use x="68.408203" xlink:href="#DejaVuSans-114"/>
      <use x="109.490234" xlink:href="#DejaVuSans-101"/>
      <use x="171.013672" xlink:href="#DejaVuSans-97"/>
      <use x="232.292969" xlink:href="#DejaVuSans-32"/>
      <use x="264.080078" xlink:href="#DejaVuSans-115"/>
      <use x="316.179688" xlink:href="#DejaVuSans-117"/>
      <use x="379.558594" xlink:href="#DejaVuSans-114"/>
      <use x="420.671875" xlink:href="#DejaVuSans-118"/>
      <use x="479.851562" xlink:href="#DejaVuSans-101"/>
      <use x="541.375" xlink:href="#DejaVuSans-121"/>
      <use x="600.554688" xlink:href="#DejaVuSans-101"/>
      <use x="662.078125" xlink:href="#DejaVuSans-100"/>
      <use x="725.554688" xlink:href="#DejaVuSans-32"/>
      <use x="757.341797" xlink:href="#DejaVuSans-40"/>
      <use x="796.355469" xlink:href="#DejaVuSans-104"/>
      <use x="859.734375" xlink:href="#DejaVuSans-97"/>
      <use x="921.013672" xlink:href="#DejaVuSans-41"/>
     </g>
    </g>
   </g>
   <g id="matplotlib.axis_2">
    <g id="ytick_1">
     <g id="line2d_6">
      <defs>
       <path d="M 0 0 
L -3.5 0 
" id="m267b0e20ec" style="stroke:#000000;stroke-width:0.8;"/>
      </defs>
      <g>
       <use style="stroke:#000000;stroke-width:0.8;" x="63" xlink:href="#m267b0e20ec" y="435.238462"/>
      </g>
     </g>
     <g id="text_7">
      <!-- 0 -->
      <g transform="translate(49.6375 439.037681)scale(0.1 -0.1)">
       <use xlink:href="#DejaVuSans-48"/>
      </g>
     </g>
    </g>
    <g id="ytick_2">
     <g id="line2d_7">
      <g>
       <use style="stroke:#000000;stroke-width:0.8;" x="63" xlink:href="#m267b0e20ec" y="372.633458"/>
      </g>
     </g>
     <g id="text_8">
      <!-- 100 -->
      <g transform="translate(36.9125 376.432677)scale(0.1 -0.1)">
       <use xlink:href="#DejaVuSans-49"/>
       <use x="63.623047" xlink:href="#DejaVuSans-48"/>
       <use x="127.246094" xlink:href="#DejaVuSans-48"/>
      </g>
     </g>
    </g>
    <g id="ytick_3">
     <g id="line2d_8">
      <g>
       <use style="stroke:#000000;stroke-width:0.8;" x="63" xlink:href="#m267b0e20ec" y="310.028454"/>
      </g>
     </g>
     <g id="text_9">
      <!-- 200 -->
      <g transform="translate(36.9125 313.827672)scale(0.1 -0.1)">
       <use xlink:href="#DejaVuSans-50"/>
       <use x="63.623047" xlink:href="#DejaVuSans-48"/>
       <use x="127.246094" xlink:href="#DejaVuSans-48"/>
      </g>
     </g>
    </g>
    <g id="ytick_4">
     <g id="line2d_9">
      <g>
       <use style="stroke:#000000;stroke-width:0.8;" x="63" xlink:href="#m267b0e20ec" y="247.42345"/>
      </g>
     </g>
     <g id="text_10">
      <!-- 300 -->
      <defs>
       <path d="M 40.578125 39.3125 
Q 47.65625 37.796875 51.625 33 
Q 55.609375 28.21875 55.609375 21.1875 
Q 55.609375 10.40625 48.1875 4.484375 
Q 40.765625 -1.421875 27.09375 -1.421875 
Q 22.515625 -1.421875 17.65625 -0.515625 
Q 12.796875 0.390625 7.625 2.203125 
L 7.625 11.71875 
Q 11.71875 9.328125 16.59375 8.109375 
Q 21.484375 6.890625 26.8125 6.890625 
Q 36.078125 6.890625 40.9375 10.546875 
Q 45.796875 14.203125 45.796875 21.1875 
Q 45.796875 27.640625 41.28125 31.265625 
Q 36.765625 34.90625 28.71875 34.90625 
L 20.21875 34.90625 
L 20.21875 43.015625 
L 29.109375 43.015625 
Q 36.375 43.015625 40.234375 45.921875 
Q 44.09375 48.828125 44.09375 54.296875 
Q 44.09375 59.90625 40.109375 62.90625 
Q 36.140625 65.921875 28.71875 65.921875 
Q 24.65625 65.921875 20.015625 65.03125 
Q 15.375 64.15625 9.8125 62.3125 
L 9.8125 71.09375 
Q 15.4375 72.65625 20.34375 73.4375 
Q 25.25 74.21875 29.59375 74.21875 
Q 40.828125 74.21875 47.359375 69.109375 
Q 53.90625 64.015625 53.90625 55.328125 
Q 53.90625 49.265625 50.4375 45.09375 
Q 46.96875 40.921875 40.578125 39.3125 
z
" id="DejaVuSans-51"/>
      </defs>
      <g transform="translate(36.9125 251.222668)scale(0.1 -0.1)">
       <use xlink:href="#DejaVuSans-51"/>
       <use x="63.623047" xlink:href="#DejaVuSans-48"/>
       <use x="127.246094" xlink:href="#DejaVuSans-48"/>
      </g>
     </g>
    </g>
    <g id="ytick_5">
     <g id="line2d_10">
      <g>
       <use style="stroke:#000000;stroke-width:0.8;" x="63" xlink:href="#m267b0e20ec" y="184.818445"/>
      </g>
     </g>
     <g id="text_11">
      <!-- 400 -->
      <defs>
       <path d="M 37.796875 64.3125 
L 12.890625 25.390625 
L 37.796875 25.390625 
z
M 35.203125 72.90625 
L 47.609375 72.90625 
L 47.609375 25.390625 
L 58.015625 25.390625 
L 58.015625 17.1875 
L 47.609375 17.1875 
L 47.609375 0 
L 37.796875 0 
L 37.796875 17.1875 
L 4.890625 17.1875 
L 4.890625 26.703125 
z
" id="DejaVuSans-52"/>
      </defs>
      <g transform="translate(36.9125 188.617664)scale(0.1 -0.1)">
       <use xlink:href="#DejaVuSans-52"/>
       <use x="63.623047" xlink:href="#DejaVuSans-48"/>
       <use x="127.246094" xlink:href="#DejaVuSans-48"/>
      </g>
     </g>
    </g>
    <g id="ytick_6">
     <g id="line2d_11">
      <g>
       <use style="stroke:#000000;stroke-width:0.8;" x="63" xlink:href="#m267b0e20ec" y="122.213441"/>
      </g>
     </g>
     <g id="text_12">
      <!-- 500 -->
      <g transform="translate(36.9125 126.01266)scale(0.1 -0.1)">
       <use xlink:href="#DejaVuSans-53"/>
       <use x="63.623047" xlink:href="#DejaVuSans-48"/>
       <use x="127.246094" xlink:href="#DejaVuSans-48"/>
      </g>
     </g>
    </g>
    <g id="text_13">
     <!-- Adult tree species -->
     <defs>
      <path d="M 9.421875 75.984375 
L 18.40625 75.984375 
L 18.40625 0 
L 9.421875 0 
z
" id="DejaVuSans-108"/>
      <path d="M 18.3125 70.21875 
L 18.3125 54.6875 
L 36.8125 54.6875 
L 36.8125 47.703125 
L 18.3125 47.703125 
L 18.3125 18.015625 
Q 18.3125 11.328125 20.140625 9.421875 
Q 21.96875 7.515625 27.59375 7.515625 
L 36.8125 7.515625 
L 36.8125 0 
L 27.59375 0 
Q 17.1875 0 13.234375 3.875 
Q 9.28125 7.765625 9.28125 18.015625 
L 9.28125 47.703125 
L 2.6875 47.703125 
L 2.6875 54.6875 
L 9.28125 54.6875 
L 9.28125 70.21875 
z
" id="DejaVuSans-116"/>
      <path d="M 18.109375 8.203125 
L 18.109375 -20.796875 
L 9.078125 -20.796875 
L 9.078125 54.6875 
L 18.109375 54.6875 
L 18.109375 46.390625 
Q 20.953125 51.265625 25.265625 53.625 
Q 29.59375 56 35.59375 56 
Q 45.5625 56 51.78125 48.09375 
Q 58.015625 40.1875 58.015625 27.296875 
Q 58.015625 14.40625 51.78125 6.484375 
Q 45.5625 -1.421875 35.59375 -1.421875 
Q 29.59375 -1.421875 25.265625 0.953125 
Q 20.953125 3.328125 18.109375 8.203125 
z
M 48.6875 27.296875 
Q 48.6875 37.203125 44.609375 42.84375 
Q 40.53125 48.484375 33.40625 48.484375 
Q 26.265625 48.484375 22.1875 42.84375 
Q 18.109375 37.203125 18.109375 27.296875 
Q 18.109375 17.390625 22.1875 11.75 
Q 26.265625 6.109375 33.40625 6.109375 
Q 40.53125 6.109375 44.609375 11.75 
Q 48.6875 17.390625 48.6875 27.296875 
z
" id="DejaVuSans-112"/>
      <path d="M 48.78125 52.59375 
L 48.78125 44.1875 
Q 44.96875 46.296875 41.140625 47.34375 
Q 37.3125 48.390625 33.40625 48.390625 
Q 24.65625 48.390625 19.8125 42.84375 
Q 14.984375 37.3125 14.984375 27.296875 
Q 14.984375 17.28125 19.8125 11.734375 
Q 24.65625 6.203125 33.40625 6.203125 
Q 37.3125 6.203125 41.140625 7.25 
Q 44.96875 8.296875 48.78125 10.40625 
L 48.78125 2.09375 
Q 45.015625 0.34375 40.984375 -0.53125 
Q 36.96875 -1.421875 32.421875 -1.421875 
Q 20.0625 -1.421875 12.78125 6.34375 
Q 5.515625 14.109375 5.515625 27.296875 
Q 5.515625 40.671875 12.859375 48.328125 
Q 20.21875 56 33.015625 56 
Q 37.15625 56 41.109375 55.140625 
Q 45.0625 54.296875 48.78125 52.59375 
z
" id="DejaVuSans-99"/>
      <path d="M 9.421875 54.6875 
L 18.40625 54.6875 
L 18.40625 0 
L 9.421875 0 
z
M 9.421875 75.984375 
L 18.40625 75.984375 
L 18.40625 64.59375 
L 9.421875 64.59375 
z
" id="DejaVuSans-105"/>
     </defs>
     <g transform="translate(30.832812 295.872031)rotate(-90)scale(0.1 -0.1)">
      <use xlink:href="#DejaVuSans-65"/>
      <use x="68.392578" xlink:href="#DejaVuSans-100"/>
      <use x="131.869141" xlink:href="#DejaVuSans-117"/>
      <use x="195.248047" xlink:href="#DejaVuSans-108"/>
      <use x="223.03125" xlink:href="#DejaVuSans-116"/>
      <use x="262.240234" xlink:href="#DejaVuSans-32"/>
      <use x="294.027344" xlink:href="#DejaVuSans-116"/>
      <use x="333.236328" xlink:href="#DejaVuSans-114"/>
      <use x="374.318359" xlink:href="#DejaVuSans-101"/>
      <use x="435.841797" xlink:href="#DejaVuSans-101"/>
      <use x="497.365234" xlink:href="#DejaVuSans-32"/>
      <use x="529.152344" xlink:href="#DejaVuSans-115"/>
      <use x="581.251953" xlink:href="#DejaVuSans-112"/>
      <use x="644.728516" xlink:href="#DejaVuSans-101"/>
      <use x="706.251953" xlink:href="#DejaVuSans-99"/>
      <use x="761.232422" xlink:href="#DejaVuSans-105"/>
      <use x="789.015625" xlink:href="#DejaVuSans-101"/>
      <use x="850.539062" xlink:href="#DejaVuSans-115"/>
     </g>
    </g>
   </g>
   <g id="LineCollection_1">
    <path clip-path="url(#pf23ff19dd4)" d="M 63 111.949618 
L 505 111.949618 
" style="fill:none;stroke:#ff0000;stroke-dasharray:5.55,2.4;stroke-dashoffset:0;stroke-width:1.5;"/>
   </g>
   <g id="line2d_12">
    <path clip-path="url(#pf23ff19dd4)" d="M 64.302 420.254313 
L 65.604 407.728865 
L 66.906 396.976611 
L 68.208 387.560878 
L 69.51 379.187096 
L 70.812 371.646774 
L 72.114 364.786626 
L 73.416 358.4906 
L 74.718 352.668812 
L 76.02 347.25037 
L 77.322 342.178521 
L 78.624 337.407253 
L 79.926 332.89884 
L 81.228 328.622045 
L 82.53 324.550769 
L 83.832 320.663026 
L 85.134 316.940152 
L 86.436 313.366197 
L 87.738 309.927437 
L 89.04 306.611999 
L 90.342 303.409547 
L 91.644 300.311043 
L 92.946 297.308543 
L 94.248 294.395034 
L 95.55 291.564297 
L 96.852 288.810798 
L 98.154 286.129591 
L 99.456 283.516239 
L 100.758 280.96675 
L 102.06 278.477519 
L 103.362 276.045278 
L 104.664 273.66706 
L 105.966 271.340155 
L 107.268 269.062088 
L 108.57 266.830587 
L 109.872 264.643565 
L 111.174 262.499092 
L 112.476 260.395389 
L 113.778 258.330801 
L 115.08 256.303795 
L 116.382 254.312938 
L 117.684 252.356896 
L 118.986 250.434418 
L 120.288 248.544333 
L 121.59 246.68554 
L 122.892 244.857002 
L 124.194 243.057744 
L 125.496 241.286843 
L 126.798 239.543429 
L 128.1 237.826675 
L 129.402 236.135799 
L 130.704 234.470058 
L 132.006 232.828746 
L 133.308 231.211191 
L 134.61 229.616755 
L 135.912 228.044826 
L 137.214 226.494822 
L 138.516 224.966187 
L 139.818 223.458391 
L 141.12 221.970923 
L 142.422 220.503298 
" style="fill:none;stroke:#0000ff;stroke-linecap:square;stroke-width:1.5;"/>
   </g>
   <g id="line2d_13">
    <path clip-path="url(#pf23ff19dd4)" d="M 64.302 416.767541 
L 65.604 405.054365 
L 66.906 395.317233 
L 68.208 386.78063 
L 70.812 372.0718 
L 73.416 359.520757 
L 76.02 348.489716 
L 78.624 338.613918 
L 81.228 329.657832 
L 83.832 321.457401 
L 86.436 313.89225 
L 89.04 306.870626 
L 91.644 300.320528 
L 95.55 291.255967 
L 99.456 282.971276 
L 103.362 275.349272 
L 107.268 268.29804 
L 111.174 261.743927 
L 115.08 255.626867 
L 118.986 249.897154 
L 122.892 244.513134 
L 126.798 239.439523 
L 132.006 233.106031 
L 137.214 227.21085 
L 142.422 221.703814 
L 147.63 216.54277 
L 152.838 211.691941 
L 158.046 207.120704 
L 163.254 202.80264 
L 169.764 197.72641 
L 176.274 192.97152 
L 182.784 188.505068 
L 189.294 184.298786 
L 195.804 180.328217 
L 203.616 175.84488 
L 211.428 171.638588 
L 219.24 167.681971 
L 227.052 163.951351 
L 236.166 159.857241 
L 245.28 156.014409 
L 254.394 152.398387 
L 264.81 148.516406 
L 275.226 144.875596 
L 285.642 141.452318 
L 297.36 137.83572 
L 309.078 134.443275 
L 322.098 130.910338 
L 335.118 127.601425 
L 349.44 124.193917 
L 363.762 121.005144 
L 379.386 117.750274 
L 396.312 114.460232 
L 413.238 111.38984 
L 431.466 108.302849 
L 450.996 105.22115 
L 471.828 102.163402 
L 493.962 99.145211 
L 505 97.720656 
L 505 97.720656 
" style="fill:none;stroke:#0000ff;stroke-dasharray:1.5,2.475;stroke-dashoffset:0;stroke-width:1.5;"/>
   </g>
   <g id="patch_3">
    <path d="M 63 441 
L 63 60.48 
" style="fill:none;stroke:#000000;stroke-linecap:square;stroke-linejoin:miter;stroke-width:0.8;"/>
   </g>
   <g id="patch_4">
    <path d="M 453.6 441 
L 453.6 60.48 
" style="fill:none;stroke:#000000;stroke-linecap:square;stroke-linejoin:miter;stroke-width:0.8;"/>
   </g>
   <g id="patch_5">
    <path d="M 63 441 
L 453.6 441 
" style="fill:none;stroke:#000000;stroke-linecap:square;stroke-linejoin:miter;stroke-width:0.8;"/>
   </g>
   <g id="patch_6">
    <path d="M 63 60.48 
L 453.6 60.48 
" style="fill:none;stroke:#000000;stroke-linecap:square;stroke-linejoin:miter;stroke-width:0.8;"/>
   </g>
   <g id="text_14">
    <!-- Species Accumulation Curve for Survey Plots -->
    <defs>
     <path d="M 53.515625 70.515625 
L 53.515625 60.890625 
Q 47.90625 63.578125 42.921875 64.890625 
Q 37.9375 66.21875 33.296875 66.21875 
Q 25.25 66.21875 20.875 63.09375 
Q 16.5 59.96875 16.5 54.203125 
Q 16.5 49.359375 19.40625 46.890625 
Q 22.3125 44.4375 30.421875 42.921875 
L 36.375 41.703125 
Q 47.40625 39.59375 52.65625 34.296875 
Q 57.90625 29 57.90625 20.125 
Q 57.90625 9.515625 50.796875 4.046875 
Q 43.703125 -1.421875 29.984375 -1.421875 
Q 24.8125 -1.421875 18.96875 -0.25 
Q 13.140625 0.921875 6.890625 3.21875 
L 6.890625 13.375 
Q 12.890625 10.015625 18.65625 8.296875 
Q 24.421875 6.59375 29.984375 6.59375 
Q 38.421875 6.59375 43.015625 9.90625 
Q 47.609375 13.234375 47.609375 19.390625 
Q 47.609375 24.75 44.3125 27.78125 
Q 41.015625 30.8125 33.5 32.328125 
L 27.484375 33.5 
Q 16.453125 35.6875 11.515625 40.375 
Q 6.59375 45.0625 6.59375 53.421875 
Q 6.59375 63.09375 13.40625 68.65625 
Q 20.21875 74.21875 32.171875 74.21875 
Q 37.3125 74.21875 42.625 73.28125 
Q 47.953125 72.359375 53.515625 70.515625 
z
" id="DejaVuSans-83"/>
     <path d="M 52 44.1875 
Q 55.375 50.25 60.0625 53.125 
Q 64.75 56 71.09375 56 
Q 79.640625 56 84.28125 50.015625 
Q 88.921875 44.046875 88.921875 33.015625 
L 88.921875 0 
L 79.890625 0 
L 79.890625 32.71875 
Q 79.890625 40.578125 77.09375 44.375 
Q 74.3125 48.1875 68.609375 48.1875 
Q 61.625 48.1875 57.5625 43.546875 
Q 53.515625 38.921875 53.515625 30.90625 
L 53.515625 0 
L 44.484375 0 
L 44.484375 32.71875 
Q 44.484375 40.625 41.703125 44.40625 
Q 38.921875 48.1875 33.109375 48.1875 
Q 26.21875 48.1875 22.15625 43.53125 
Q 18.109375 38.875 18.109375 30.90625 
L 18.109375 0 
L 9.078125 0 
L 9.078125 54.6875 
L 18.109375 54.6875 
L 18.109375 46.1875 
Q 21.1875 51.21875 25.484375 53.609375 
Q 29.78125 56 35.6875 56 
Q 41.65625 56 45.828125 52.96875 
Q 50 49.953125 52 44.1875 
z
" id="DejaVuSans-109"/>
     <path d="M 30.609375 48.390625 
Q 23.390625 48.390625 19.1875 42.75 
Q 14.984375 37.109375 14.984375 27.296875 
Q 14.984375 17.484375 19.15625 11.84375 
Q 23.34375 6.203125 30.609375 6.203125 
Q 37.796875 6.203125 41.984375 11.859375 
Q 46.1875 17.53125 46.1875 27.296875 
Q 46.1875 37.015625 41.984375 42.703125 
Q 37.796875 48.390625 30.609375 48.390625 
z
M 30.609375 56 
Q 42.328125 56 49.015625 48.375 
Q 55.71875 40.765625 55.71875 27.296875 
Q 55.71875 13.875 49.015625 6.21875 
Q 42.328125 -1.421875 30.609375 -1.421875 
Q 18.84375 -1.421875 12.171875 6.21875 
Q 5.515625 13.875 5.515625 27.296875 
Q 5.515625 40.765625 12.171875 48.375 
Q 18.84375 56 30.609375 56 
z
" id="DejaVuSans-111"/>
     <path d="M 54.890625 33.015625 
L 54.890625 0 
L 45.90625 0 
L 45.90625 32.71875 
Q 45.90625 40.484375 42.875 44.328125 
Q 39.84375 48.1875 33.796875 48.1875 
Q 26.515625 48.1875 22.3125 43.546875 
Q 18.109375 38.921875 18.109375 30.90625 
L 18.109375 0 
L 9.078125 0 
L 9.078125 54.6875 
L 18.109375 54.6875 
L 18.109375 46.1875 
Q 21.34375 51.125 25.703125 53.5625 
Q 30.078125 56 35.796875 56 
Q 45.21875 56 50.046875 50.171875 
Q 54.890625 44.34375 54.890625 33.015625 
z
" id="DejaVuSans-110"/>
     <path d="M 64.40625 67.28125 
L 64.40625 56.890625 
Q 59.421875 61.53125 53.78125 63.8125 
Q 48.140625 66.109375 41.796875 66.109375 
Q 29.296875 66.109375 22.65625 58.46875 
Q 16.015625 50.828125 16.015625 36.375 
Q 16.015625 21.96875 22.65625 14.328125 
Q 29.296875 6.6875 41.796875 6.6875 
Q 48.140625 6.6875 53.78125 8.984375 
Q 59.421875 11.28125 64.40625 15.921875 
L 64.40625 5.609375 
Q 59.234375 2.09375 53.4375 0.328125 
Q 47.65625 -1.421875 41.21875 -1.421875 
Q 24.65625 -1.421875 15.125 8.703125 
Q 5.609375 18.84375 5.609375 36.375 
Q 5.609375 53.953125 15.125 64.078125 
Q 24.65625 74.21875 41.21875 74.21875 
Q 47.75 74.21875 53.53125 72.484375 
Q 59.328125 70.75 64.40625 67.28125 
z
" id="DejaVuSans-67"/>
     <path d="M 37.109375 75.984375 
L 37.109375 68.5 
L 28.515625 68.5 
Q 23.6875 68.5 21.796875 66.546875 
Q 19.921875 64.59375 19.921875 59.515625 
L 19.921875 54.6875 
L 34.71875 54.6875 
L 34.71875 47.703125 
L 19.921875 47.703125 
L 19.921875 0 
L 10.890625 0 
L 10.890625 47.703125 
L 2.296875 47.703125 
L 2.296875 54.6875 
L 10.890625 54.6875 
L 10.890625 58.5 
Q 10.890625 67.625 15.140625 71.796875 
Q 19.390625 75.984375 28.609375 75.984375 
z
" id="DejaVuSans-102"/>
     <path d="M 19.671875 64.796875 
L 19.671875 37.40625 
L 32.078125 37.40625 
Q 38.96875 37.40625 42.71875 40.96875 
Q 46.484375 44.53125 46.484375 51.125 
Q 46.484375 57.671875 42.71875 61.234375 
Q 38.96875 64.796875 32.078125 64.796875 
z
M 9.8125 72.90625 
L 32.078125 72.90625 
Q 44.34375 72.90625 50.609375 67.359375 
Q 56.890625 61.8125 56.890625 51.125 
Q 56.890625 40.328125 50.609375 34.8125 
Q 44.34375 29.296875 32.078125 29.296875 
L 19.671875 29.296875 
L 19.671875 0 
L 9.8125 0 
z
" id="DejaVuSans-80"/>
    </defs>
    <g transform="translate(89.708203 54.48)scale(0.15 -0.15)">
     <use xlink:href="#DejaVuSans-83"/>
     <use x="63.476562" xlink:href="#DejaVuSans-112"/>
     <use x="126.953125" xlink:href="#DejaVuSans-101"/>
     <use x="188.476562" xlink:href="#DejaVuSans-99"/>
     <use x="243.457031" xlink:href="#DejaVuSans-105"/>
     <use x="271.240234" xlink:href="#DejaVuSans-101"/>
     <use x="332.763672" xlink:href="#DejaVuSans-115"/>
     <use x="384.863281" xlink:href="#DejaVuSans-32"/>
     <use x="416.650391" xlink:href="#DejaVuSans-65"/>
     <use x="485.042969" xlink:href="#DejaVuSans-99"/>
     <use x="540.023438" xlink:href="#DejaVuSans-99"/>
     <use x="595.003906" xlink:href="#DejaVuSans-117"/>
     <use x="658.382812" xlink:href="#DejaVuSans-109"/>
     <use x="755.794922" xlink:href="#DejaVuSans-117"/>
     <use x="819.173828" xlink:href="#DejaVuSans-108"/>
     <use x="846.957031" xlink:href="#DejaVuSans-97"/>
     <use x="908.236328" xlink:href="#DejaVuSans-116"/>
     <use x="947.445312" xlink:href="#DejaVuSans-105"/>
     <use x="975.228516" xlink:href="#DejaVuSans-111"/>
     <use x="1036.410156" xlink:href="#DejaVuSans-110"/>
     <use x="1099.789062" xlink:href="#DejaVuSans-32"/>
     <use x="1131.576172" xlink:href="#DejaVuSans-67"/>
     <use x="1201.400391" xlink:href="#DejaVuSans-117"/>
     <use x="1264.779297" xlink:href="#DejaVuSans-114"/>
     <use x="1305.892578" xlink:href="#DejaVuSans-118"/>
     <use x="1365.072266" xlink:href="#DejaVuSans-101"/>
     <use x="1426.595703" xlink:href="#DejaVuSans-32"/>
     <use x="1458.382812" xlink:href="#DejaVuSans-102"/>
     <use x="1493.587891" xlink:href="#DejaVuSans-111"/>
     <use x="1554.769531" xlink:href="#DejaVuSans-114"/>
     <use x="1595.882812" xlink:href="#DejaVuSans-32"/>
     <use x="1627.669922" xlink:href="#DejaVuSans-83"/>
     <use x="1691.146484" xlink:href="#DejaVuSans-117"/>
     <use x="1754.525391" xlink:href="#DejaVuSans-114"/>
     <use x="1795.638672" xlink:href="#DejaVuSans-118"/>
     <use x="1854.818359" xlink:href="#DejaVuSans-101"/>
     <use x="1916.341797" xlink:href="#DejaVuSans-121"/>
     <use x="1975.521484" xlink:href="#DejaVuSans-32"/>
     <use x="2007.308594" xlink:href="#DejaVuSans-80"/>
     <use x="2067.611328" xlink:href="#DejaVuSans-108"/>
     <use x="2095.394531" xlink:href="#DejaVuSans-111"/>
     <use x="2156.576172" xlink:href="#DejaVuSans-116"/>
     <use x="2195.785156" xlink:href="#DejaVuSans-115"/>
    </g>
   </g>
   <g id="legend_1">
    <g id="patch_7">
     <path d="M 257.971875 436 
L 446.6 436 
Q 448.6 436 448.6 434 
L 448.6 361.609375 
Q 448.6 359.609375 446.6 359.609375 
L 257.971875 359.609375 
Q 255.971875 359.609375 255.971875 361.609375 
L 255.971875 434 
Q 255.971875 436 257.971875 436 
z
" style="fill:#ffffff;opacity:0.8;stroke:#cccccc;stroke-linejoin:miter;"/>
    </g>
    <g id="line2d_14">
     <path d="M 259.971875 367.707812 
L 279.971875 367.707812 
" style="fill:none;stroke:#0000ff;stroke-linecap:square;stroke-width:1.5;"/>
    </g>
    <g id="line2d_15"/>
    <g id="text_15">
     <!-- Observed tree species -->
     <defs>
      <path d="M 39.40625 66.21875 
Q 28.65625 66.21875 22.328125 58.203125 
Q 16.015625 50.203125 16.015625 36.375 
Q 16.015625 22.609375 22.328125 14.59375 
Q 28.65625 6.59375 39.40625 6.59375 
Q 50.140625 6.59375 56.421875 14.59375 
Q 62.703125 22.609375 62.703125 36.375 
Q 62.703125 50.203125 56.421875 58.203125 
Q 50.140625 66.21875 39.40625 66.21875 
z
M 39.40625 74.21875 
Q 54.734375 74.21875 63.90625 63.9375 
Q 73.09375 53.65625 73.09375 36.375 
Q 73.09375 19.140625 63.90625 8.859375 
Q 54.734375 -1.421875 39.40625 -1.421875 
Q 24.03125 -1.421875 14.8125 8.828125 
Q 5.609375 19.09375 5.609375 36.375 
Q 5.609375 53.65625 14.8125 63.9375 
Q 24.03125 74.21875 39.40625 74.21875 
z
" id="DejaVuSans-79"/>
      <path d="M 48.6875 27.296875 
Q 48.6875 37.203125 44.609375 42.84375 
Q 40.53125 48.484375 33.40625 48.484375 
Q 26.265625 48.484375 22.1875 42.84375 
Q 18.109375 37.203125 18.109375 27.296875 
Q 18.109375 17.390625 22.1875 11.75 
Q 26.265625 6.109375 33.40625 6.109375 
Q 40.53125 6.109375 44.609375 11.75 
Q 48.6875 17.390625 48.6875 27.296875 
z
M 18.109375 46.390625 
Q 20.953125 51.265625 25.265625 53.625 
Q 29.59375 56 35.59375 56 
Q 45.5625 56 51.78125 48.09375 
Q 58.015625 40.1875 58.015625 27.296875 
Q 58.015625 14.40625 51.78125 6.484375 
Q 45.5625 -1.421875 35.59375 -1.421875 
Q 29.59375 -1.421875 25.265625 0.953125 
Q 20.953125 3.328125 18.109375 8.203125 
L 18.109375 0 
L 9.078125 0 
L 9.078125 75.984375 
L 18.109375 75.984375 
z
" id="DejaVuSans-98"/>
     </defs>
     <g transform="translate(287.971875 371.207812)scale(0.1 -0.1)">
      <use xlink:href="#DejaVuSans-79"/>
      <use x="78.710938" xlink:href="#DejaVuSans-98"/>
      <use x="142.1875" xlink:href="#DejaVuSans-115"/>
      <use x="194.287109" xlink:href="#DejaVuSans-101"/>
      <use x="255.810547" xlink:href="#DejaVuSans-114"/>
      <use x="296.923828" xlink:href="#DejaVuSans-118"/>
      <use x="356.103516" xlink:href="#DejaVuSans-101"/>
      <use x="417.626953" xlink:href="#DejaVuSans-100"/>
      <use x="481.103516" xlink:href="#DejaVuSans-32"/>
      <use x="512.890625" xlink:href="#DejaVuSans-116"/>
      <use x="552.099609" xlink:href="#DejaVuSans-114"/>
      <use x="593.181641" xlink:href="#DejaVuSans-101"/>
      <use x="654.705078" xlink:href="#DejaVuSans-101"/>
      <use x="716.228516" xlink:href="#DejaVuSans-32"/>
      <use x="748.015625" xlink:href="#DejaVuSans-115"/>
      <use x="800.115234" xlink:href="#DejaVuSans-112"/>
      <use x="863.591797" xlink:href="#DejaVuSans-101"/>
      <use x="925.115234" xlink:href="#DejaVuSans-99"/>
      <use x="980.095703" xlink:href="#DejaVuSans-105"/>
      <use x="1007.878906" xlink:href="#DejaVuSans-101"/>
      <use x="1069.402344" xlink:href="#DejaVuSans-115"/>
     </g>
    </g>
    <g id="line2d_16">
     <path d="M 259.971875 382.385937 
L 279.971875 382.385937 
" style="fill:none;stroke:#0000ff;stroke-dasharray:1.5,2.475;stroke-dashoffset:0;stroke-width:1.5;"/>
    </g>
    <g id="line2d_17"/>
    <g id="text_16">
     <!-- SAC predicted values -->
     <g transform="translate(287.971875 385.885937)scale(0.1 -0.1)">
      <use xlink:href="#DejaVuSans-83"/>
      <use x="63.492188" xlink:href="#DejaVuSans-65"/>
      <use x="131.884766" xlink:href="#DejaVuSans-67"/>
      <use x="201.708984" xlink:href="#DejaVuSans-32"/>
      <use x="233.496094" xlink:href="#DejaVuSans-112"/>
      <use x="296.972656" xlink:href="#DejaVuSans-114"/>
      <use x="338.054688" xlink:href="#DejaVuSans-101"/>
      <use x="399.578125" xlink:href="#DejaVuSans-100"/>
      <use x="463.054688" xlink:href="#DejaVuSans-105"/>
      <use x="490.837891" xlink:href="#DejaVuSans-99"/>
      <use x="545.818359" xlink:href="#DejaVuSans-116"/>
      <use x="585.027344" xlink:href="#DejaVuSans-101"/>
      <use x="646.550781" xlink:href="#DejaVuSans-100"/>
      <use x="710.027344" xlink:href="#DejaVuSans-32"/>
      <use x="741.814453" xlink:href="#DejaVuSans-118"/>
      <use x="800.994141" xlink:href="#DejaVuSans-97"/>
      <use x="862.273438" xlink:href="#DejaVuSans-108"/>
      <use x="890.056641" xlink:href="#DejaVuSans-117"/>
      <use x="953.435547" xlink:href="#DejaVuSans-101"/>
      <use x="1014.958984" xlink:href="#DejaVuSans-115"/>
     </g>
    </g>
    <g id="patch_8">
     <path d="M 259.971875 400.564062 
L 279.971875 400.564062 
L 279.971875 393.564062 
L 259.971875 393.564062 
z
" style="fill:#0000ff;opacity:0.4;stroke:#0000ff;stroke-linejoin:miter;"/>
    </g>
    <g id="text_17">
     <!-- SAC model standard deviation -->
     <g transform="translate(287.971875 400.564062)scale(0.1 -0.1)">
      <use xlink:href="#DejaVuSans-83"/>
      <use x="63.492188" xlink:href="#DejaVuSans-65"/>
      <use x="131.884766" xlink:href="#DejaVuSans-67"/>
      <use x="201.708984" xlink:href="#DejaVuSans-32"/>
      <use x="233.496094" xlink:href="#DejaVuSans-109"/>
      <use x="330.908203" xlink:href="#DejaVuSans-111"/>
      <use x="392.089844" xlink:href="#DejaVuSans-100"/>
      <use x="455.566406" xlink:href="#DejaVuSans-101"/>
      <use x="517.089844" xlink:href="#DejaVuSans-108"/>
      <use x="544.873047" xlink:href="#DejaVuSans-32"/>
      <use x="576.660156" xlink:href="#DejaVuSans-115"/>
      <use x="628.759766" xlink:href="#DejaVuSans-116"/>
      <use x="667.96875" xlink:href="#DejaVuSans-97"/>
      <use x="729.248047" xlink:href="#DejaVuSans-110"/>
      <use x="792.626953" xlink:href="#DejaVuSans-100"/>
      <use x="856.103516" xlink:href="#DejaVuSans-97"/>
      <use x="917.382812" xlink:href="#DejaVuSans-114"/>
      <use x="958.480469" xlink:href="#DejaVuSans-100"/>
      <use x="1021.957031" xlink:href="#DejaVuSans-32"/>
      <use x="1053.744141" xlink:href="#DejaVuSans-100"/>
      <use x="1117.220703" xlink:href="#DejaVuSans-101"/>
      <use x="1178.744141" xlink:href="#DejaVuSans-118"/>
      <use x="1237.923828" xlink:href="#DejaVuSans-105"/>
      <use x="1265.707031" xlink:href="#DejaVuSans-97"/>
      <use x="1326.986328" xlink:href="#DejaVuSans-116"/>
      <use x="1366.195312" xlink:href="#DejaVuSans-105"/>
      <use x="1393.978516" xlink:href="#DejaVuSans-111"/>
      <use x="1455.160156" xlink:href="#DejaVuSans-110"/>
     </g>
    </g>
    <g id="line2d_18">
     <path d="M 259.971875 411.742188 
L 279.971875 411.742188 
" style="fill:none;stroke:#ff0000;stroke-dasharray:5.55,2.4;stroke-dashoffset:0;stroke-width:1.5;"/>
    </g>
    <g id="text_18">
     <!-- Chao estimate -->
     <g transform="translate(287.971875 415.242188)scale(0.1 -0.1)">
      <use xlink:href="#DejaVuSans-67"/>
      <use x="69.824219" xlink:href="#DejaVuSans-104"/>
      <use x="133.203125" xlink:href="#DejaVuSans-97"/>
      <use x="194.482422" xlink:href="#DejaVuSans-111"/>
      <use x="255.664062" xlink:href="#DejaVuSans-32"/>
      <use x="287.451172" xlink:href="#DejaVuSans-101"/>
      <use x="348.974609" xlink:href="#DejaVuSans-115"/>
      <use x="401.074219" xlink:href="#DejaVuSans-116"/>
      <use x="440.283203" xlink:href="#DejaVuSans-105"/>
      <use x="468.066406" xlink:href="#DejaVuSans-109"/>
      <use x="565.478516" xlink:href="#DejaVuSans-97"/>
      <use x="626.757812" xlink:href="#DejaVuSans-116"/>
      <use x="665.966797" xlink:href="#DejaVuSans-101"/>
     </g>
    </g>
    <g id="patch_9">
     <path d="M 259.971875 429.920313 
L 279.971875 429.920313 
L 279.971875 422.920313 
L 259.971875 422.920313 
z
" style="fill:#ff0000;opacity:0.2;stroke:#ff0000;stroke-linejoin:miter;"/>
    </g>
    <g id="text_19">
     <!-- Standard error, Chao estimator -->
     <defs>
      <path d="M 11.71875 12.40625 
L 22.015625 12.40625 
L 22.015625 4 
L 14.015625 -11.625 
L 7.71875 -11.625 
L 11.71875 4 
z
" id="DejaVuSans-44"/>
     </defs>
     <g transform="translate(287.971875 429.920313)scale(0.1 -0.1)">
      <use xlink:href="#DejaVuSans-83"/>
      <use x="63.476562" xlink:href="#DejaVuSans-116"/>
      <use x="102.685547" xlink:href="#DejaVuSans-97"/>
      <use x="163.964844" xlink:href="#DejaVuSans-110"/>
      <use x="227.34375" xlink:href="#DejaVuSans-100"/>
      <use x="290.820312" xlink:href="#DejaVuSans-97"/>
      <use x="352.099609" xlink:href="#DejaVuSans-114"/>
      <use x="393.197266" xlink:href="#DejaVuSans-100"/>
      <use x="456.673828" xlink:href="#DejaVuSans-32"/>
      <use x="488.460938" xlink:href="#DejaVuSans-101"/>
      <use x="549.984375" xlink:href="#DejaVuSans-114"/>
      <use x="591.082031" xlink:href="#DejaVuSans-114"/>
      <use x="632.164062" xlink:href="#DejaVuSans-111"/>
      <use x="693.345703" xlink:href="#DejaVuSans-114"/>
      <use x="734.458984" xlink:href="#DejaVuSans-44"/>
      <use x="766.246094" xlink:href="#DejaVuSans-32"/>
      <use x="798.033203" xlink:href="#DejaVuSans-67"/>
      <use x="867.857422" xlink:href="#DejaVuSans-104"/>
      <use x="931.236328" xlink:href="#DejaVuSans-97"/>
      <use x="992.515625" xlink:href="#DejaVuSans-111"/>
      <use x="1053.697266" xlink:href="#DejaVuSans-32"/>
      <use x="1085.484375" xlink:href="#DejaVuSans-101"/>
      <use x="1147.007812" xlink:href="#DejaVuSans-115"/>
      <use x="1199.107422" xlink:href="#DejaVuSans-116"/>
      <use x="1238.316406" xlink:href="#DejaVuSans-105"/>
      <use x="1266.099609" xlink:href="#DejaVuSans-109"/>
      <use x="1363.511719" xlink:href="#DejaVuSans-97"/>
      <use x="1424.791016" xlink:href="#DejaVuSans-116"/>
      <use x="1464" xlink:href="#DejaVuSans-111"/>
      <use x="1525.181641" xlink:href="#DejaVuSans-114"/>
     </g>
    </g>
   </g>
  </g>
 </g>
 <defs>
  <clipPath id="pf23ff19dd4">
   <rect height="380.52" width="390.6" x="63" y="60.48"/>
  </clipPath>
 </defs>
</svg>
