<?xml version="1.0" encoding="utf-8" standalone="no"?>
<!DOCTYPE svg PUBLIC "-//W3C//DTD SVG 1.1//EN"
  "http://www.w3.org/Graphics/SVG/1.1/DTD/svg11.dtd">
<!-- Created with matplotlib (https://matplotlib.org/) -->
<svg height="345.6pt" version="1.1" viewBox="0 0 460.8 345.6" width="460.8pt" xmlns="http://www.w3.org/2000/svg" xmlns:xlink="http://www.w3.org/1999/xlink">
 <defs>
  <style type="text/css">
*{stroke-linecap:butt;stroke-linejoin:round;}
  </style>
 </defs>
 <g id="figure_1">
  <g id="patch_1">
   <path d="M 0 345.6 
L 460.8 345.6 
L 460.8 0 
L 0 0 
z
" style="fill:#ffffff;"/>
  </g>
  <g id="axes_1">
   <g id="patch_2">
    <path d="M 57.6 307.584 
L 414.72 307.584 
L 414.72 41.472 
L 57.6 41.472 
z
" style="fill:#ffffff;"/>
   </g>
   <g id="PolyCollection_1">
    <defs>
     <path d="M 69.12 -55.342528 
L 69.12 -50.112 
L 70.272 -58.96374 
L 71.424 -66.77989 
L 72.576 -73.715804 
L 73.728 -79.9313 
L 74.88 -85.55552 
L 76.032 -90.689835 
L 77.184 -95.414 
L 78.336 -99.79132 
L 79.488 -103.872547 
L 80.64 -107.698768 
L 81.792 -111.303559 
L 82.944 -114.714604 
L 84.096 -117.954917 
L 85.248 -121.043785 
L 86.4 -123.997488 
L 87.552 -126.82987 
L 88.704 -129.552776 
L 89.856 -132.176406 
L 91.008 -134.709591 
L 92.16 -137.160023 
L 93.312 -139.53443 
L 94.464 -141.838729 
L 95.616 -144.078148 
L 96.768 -146.257323 
L 97.92 -148.380382 
L 99.072 -150.451021 
L 100.224 -152.472555 
L 101.376 -154.447975 
L 102.528 -156.379985 
L 103.68 -158.271044 
L 104.832 -160.123391 
L 105.984 -161.939078 
L 107.136 -163.71999 
L 108.288 -165.467868 
L 109.44 -167.184324 
L 110.592 -168.870859 
L 111.744 -170.528875 
L 112.896 -172.159691 
L 114.048 -173.764551 
L 115.2 -175.344639 
L 116.352 -176.901083 
L 117.504 -178.43497 
L 118.656 -179.947353 
L 119.808 -181.439263 
L 120.96 -182.911719 
L 122.112 -184.365739 
L 123.264 -185.802357 
L 124.416 -187.22264 
L 125.568 -188.627712 
L 126.72 -190.018785 
L 127.872 -191.397207 
L 129.024 -192.764525 
L 130.176 -194.122593 
L 131.328 -195.473745 
L 132.48 -196.821108 
L 133.632 -198.169219 
L 134.784 -199.525484 
L 135.936 -200.903135 
L 137.088 -202.341363 
L 138.24 -204.177745 
L 138.24 -204.177745 
L 138.24 -204.177745 
L 137.088 -203.78863 
L 135.936 -202.971274 
L 134.784 -202.062513 
L 133.632 -201.100768 
L 132.48 -200.098465 
L 131.328 -199.062166 
L 130.176 -197.995526 
L 129.024 -196.900747 
L 127.872 -195.779191 
L 126.72 -194.631696 
L 125.568 -193.458737 
L 124.416 -192.260536 
L 123.264 -191.037118 
L 122.112 -189.788356 
L 120.96 -188.513994 
L 119.808 -187.213669 
L 118.656 -185.886918 
L 117.504 -184.53319 
L 116.352 -183.151846 
L 115.2 -181.742162 
L 114.048 -180.303329 
L 112.896 -178.834452 
L 111.744 -177.334543 
L 110.592 -175.802519 
L 109.44 -174.237191 
L 108.288 -172.637262 
L 107.136 -171.001309 
L 105.984 -169.327778 
L 104.832 -167.614964 
L 103.68 -165.860998 
L 102.528 -164.063825 
L 101.376 -162.221183 
L 100.224 -160.330577 
L 99.072 -158.389244 
L 97.92 -156.394119 
L 96.768 -154.341793 
L 95.616 -152.22846 
L 94.464 -150.049855 
L 93.312 -147.801186 
L 92.16 -145.477045 
L 91.008 -143.071302 
L 89.856 -140.57698 
L 88.704 -137.986101 
L 87.552 -135.289487 
L 86.4 -132.476531 
L 85.248 -129.534889 
L 84.096 -126.450104 
L 82.944 -123.205117 
L 81.792 -119.779638 
L 80.64 -116.149313 
L 79.488 -112.284621 
L 78.336 -108.149362 
L 77.184 -103.698566 
L 76.032 -98.875484 
L 74.88 -93.607121 
L 73.728 -87.797252 
L 72.576 -81.314808 
L 71.424 -73.972774 
L 70.272 -65.484285 
L 69.12 -55.342528 
z
" id="m7975dd4641" style="stroke:#008000;stroke-opacity:0.4;"/>
    </defs>
    <g clip-path="url(#p1daeb8b02f)">
     <use style="fill:#008000;fill-opacity:0.4;stroke:#008000;stroke-opacity:0.4;" x="0" xlink:href="#m7975dd4641" y="345.6"/>
    </g>
   </g>
   <g id="matplotlib.axis_1">
    <g id="xtick_1">
     <g id="line2d_1">
      <defs>
       <path d="M 0 0 
L 0 3.5 
" id="m9855624e23" style="stroke:#000000;stroke-width:0.8;"/>
      </defs>
      <g>
       <use style="stroke:#000000;stroke-width:0.8;" x="69.12" xlink:href="#m9855624e23" y="307.584"/>
      </g>
     </g>
     <g id="text_1">
      <!-- 0 -->
      <defs>
       <path d="M 31.78125 66.40625 
Q 24.171875 66.40625 20.328125 58.90625 
Q 16.5 51.421875 16.5 36.375 
Q 16.5 21.390625 20.328125 13.890625 
Q 24.171875 6.390625 31.78125 6.390625 
Q 39.453125 6.390625 43.28125 13.890625 
Q 47.125 21.390625 47.125 36.375 
Q 47.125 51.421875 43.28125 58.90625 
Q 39.453125 66.40625 31.78125 66.40625 
z
M 31.78125 74.21875 
Q 44.046875 74.21875 50.515625 64.515625 
Q 56.984375 54.828125 56.984375 36.375 
Q 56.984375 17.96875 50.515625 8.265625 
Q 44.046875 -1.421875 31.78125 -1.421875 
Q 19.53125 -1.421875 13.0625 8.265625 
Q 6.59375 17.96875 6.59375 36.375 
Q 6.59375 54.828125 13.0625 64.515625 
Q 19.53125 74.21875 31.78125 74.21875 
z
" id="DejaVuSans-48"/>
      </defs>
      <g transform="translate(65.93875 322.182437)scale(0.1 -0.1)">
       <use xlink:href="#DejaVuSans-48"/>
      </g>
     </g>
    </g>
    <g id="xtick_2">
     <g id="line2d_2">
      <g>
       <use style="stroke:#000000;stroke-width:0.8;" x="133.056" xlink:href="#m9855624e23" y="307.584"/>
      </g>
     </g>
     <g id="text_2">
      <!-- 5 -->
      <defs>
       <path d="M 10.796875 72.90625 
L 49.515625 72.90625 
L 49.515625 64.59375 
L 19.828125 64.59375 
L 19.828125 46.734375 
Q 21.96875 47.46875 24.109375 47.828125 
Q 26.265625 48.1875 28.421875 48.1875 
Q 40.625 48.1875 47.75 41.5 
Q 54.890625 34.8125 54.890625 23.390625 
Q 54.890625 11.625 47.5625 5.09375 
Q 40.234375 -1.421875 26.90625 -1.421875 
Q 22.3125 -1.421875 17.546875 -0.640625 
Q 12.796875 0.140625 7.71875 1.703125 
L 7.71875 11.625 
Q 12.109375 9.234375 16.796875 8.0625 
Q 21.484375 6.890625 26.703125 6.890625 
Q 35.15625 6.890625 40.078125 11.328125 
Q 45.015625 15.765625 45.015625 23.390625 
Q 45.015625 31 40.078125 35.4375 
Q 35.15625 39.890625 26.703125 39.890625 
Q 22.75 39.890625 18.8125 39.015625 
Q 14.890625 38.140625 10.796875 36.28125 
z
" id="DejaVuSans-53"/>
      </defs>
      <g transform="translate(129.87475 322.182437)scale(0.1 -0.1)">
       <use xlink:href="#DejaVuSans-53"/>
      </g>
     </g>
    </g>
    <g id="xtick_3">
     <g id="line2d_3">
      <g>
       <use style="stroke:#000000;stroke-width:0.8;" x="196.992" xlink:href="#m9855624e23" y="307.584"/>
      </g>
     </g>
     <g id="text_3">
      <!-- 10 -->
      <defs>
       <path d="M 12.40625 8.296875 
L 28.515625 8.296875 
L 28.515625 63.921875 
L 10.984375 60.40625 
L 10.984375 69.390625 
L 28.421875 72.90625 
L 38.28125 72.90625 
L 38.28125 8.296875 
L 54.390625 8.296875 
L 54.390625 0 
L 12.40625 0 
z
" id="DejaVuSans-49"/>
      </defs>
      <g transform="translate(190.6295 322.182437)scale(0.1 -0.1)">
       <use xlink:href="#DejaVuSans-49"/>
       <use x="63.623047" xlink:href="#DejaVuSans-48"/>
      </g>
     </g>
    </g>
    <g id="xtick_4">
     <g id="line2d_4">
      <g>
       <use style="stroke:#000000;stroke-width:0.8;" x="260.928" xlink:href="#m9855624e23" y="307.584"/>
      </g>
     </g>
     <g id="text_4">
      <!-- 15 -->
      <g transform="translate(254.5655 322.182437)scale(0.1 -0.1)">
       <use xlink:href="#DejaVuSans-49"/>
       <use x="63.623047" xlink:href="#DejaVuSans-53"/>
      </g>
     </g>
    </g>
    <g id="xtick_5">
     <g id="line2d_5">
      <g>
       <use style="stroke:#000000;stroke-width:0.8;" x="324.864" xlink:href="#m9855624e23" y="307.584"/>
      </g>
     </g>
     <g id="text_5">
      <!-- 20 -->
      <defs>
       <path d="M 19.1875 8.296875 
L 53.609375 8.296875 
L 53.609375 0 
L 7.328125 0 
L 7.328125 8.296875 
Q 12.9375 14.109375 22.625 23.890625 
Q 32.328125 33.6875 34.8125 36.53125 
Q 39.546875 41.84375 41.421875 45.53125 
Q 43.3125 49.21875 43.3125 52.78125 
Q 43.3125 58.59375 39.234375 62.25 
Q 35.15625 65.921875 28.609375 65.921875 
Q 23.96875 65.921875 18.8125 64.3125 
Q 13.671875 62.703125 7.8125 59.421875 
L 7.8125 69.390625 
Q 13.765625 71.78125 18.9375 73 
Q 24.125 74.21875 28.421875 74.21875 
Q 39.75 74.21875 46.484375 68.546875 
Q 53.21875 62.890625 53.21875 53.421875 
Q 53.21875 48.921875 51.53125 44.890625 
Q 49.859375 40.875 45.40625 35.40625 
Q 44.1875 33.984375 37.640625 27.21875 
Q 31.109375 20.453125 19.1875 8.296875 
z
" id="DejaVuSans-50"/>
      </defs>
      <g transform="translate(318.5015 322.182437)scale(0.1 -0.1)">
       <use xlink:href="#DejaVuSans-50"/>
       <use x="63.623047" xlink:href="#DejaVuSans-48"/>
      </g>
     </g>
    </g>
    <g id="xtick_6">
     <g id="line2d_6">
      <g>
       <use style="stroke:#000000;stroke-width:0.8;" x="388.8" xlink:href="#m9855624e23" y="307.584"/>
      </g>
     </g>
     <g id="text_6">
      <!-- 25 -->
      <g transform="translate(382.4375 322.182437)scale(0.1 -0.1)">
       <use xlink:href="#DejaVuSans-50"/>
       <use x="63.623047" xlink:href="#DejaVuSans-53"/>
      </g>
     </g>
    </g>
    <g id="text_7">
     <!-- hectareas (ha) -->
     <defs>
      <path d="M 54.890625 33.015625 
L 54.890625 0 
L 45.90625 0 
L 45.90625 32.71875 
Q 45.90625 40.484375 42.875 44.328125 
Q 39.84375 48.1875 33.796875 48.1875 
Q 26.515625 48.1875 22.3125 43.546875 
Q 18.109375 38.921875 18.109375 30.90625 
L 18.109375 0 
L 9.078125 0 
L 9.078125 75.984375 
L 18.109375 75.984375 
L 18.109375 46.1875 
Q 21.34375 51.125 25.703125 53.5625 
Q 30.078125 56 35.796875 56 
Q 45.21875 56 50.046875 50.171875 
Q 54.890625 44.34375 54.890625 33.015625 
z
" id="DejaVuSans-104"/>
      <path d="M 56.203125 29.59375 
L 56.203125 25.203125 
L 14.890625 25.203125 
Q 15.484375 15.921875 20.484375 11.0625 
Q 25.484375 6.203125 34.421875 6.203125 
Q 39.59375 6.203125 44.453125 7.46875 
Q 49.3125 8.734375 54.109375 11.28125 
L 54.109375 2.78125 
Q 49.265625 0.734375 44.1875 -0.34375 
Q 39.109375 -1.421875 33.890625 -1.421875 
Q 20.796875 -1.421875 13.15625 6.1875 
Q 5.515625 13.8125 5.515625 26.8125 
Q 5.515625 40.234375 12.765625 48.109375 
Q 20.015625 56 32.328125 56 
Q 43.359375 56 49.78125 48.890625 
Q 56.203125 41.796875 56.203125 29.59375 
z
M 47.21875 32.234375 
Q 47.125 39.59375 43.09375 43.984375 
Q 39.0625 48.390625 32.421875 48.390625 
Q 24.90625 48.390625 20.390625 44.140625 
Q 15.875 39.890625 15.1875 32.171875 
z
" id="DejaVuSans-101"/>
      <path d="M 48.78125 52.59375 
L 48.78125 44.1875 
Q 44.96875 46.296875 41.140625 47.34375 
Q 37.3125 48.390625 33.40625 48.390625 
Q 24.65625 48.390625 19.8125 42.84375 
Q 14.984375 37.3125 14.984375 27.296875 
Q 14.984375 17.28125 19.8125 11.734375 
Q 24.65625 6.203125 33.40625 6.203125 
Q 37.3125 6.203125 41.140625 7.25 
Q 44.96875 8.296875 48.78125 10.40625 
L 48.78125 2.09375 
Q 45.015625 0.34375 40.984375 -0.53125 
Q 36.96875 -1.421875 32.421875 -1.421875 
Q 20.0625 -1.421875 12.78125 6.34375 
Q 5.515625 14.109375 5.515625 27.296875 
Q 5.515625 40.671875 12.859375 48.328125 
Q 20.21875 56 33.015625 56 
Q 37.15625 56 41.109375 55.140625 
Q 45.0625 54.296875 48.78125 52.59375 
z
" id="DejaVuSans-99"/>
      <path d="M 18.3125 70.21875 
L 18.3125 54.6875 
L 36.8125 54.6875 
L 36.8125 47.703125 
L 18.3125 47.703125 
L 18.3125 18.015625 
Q 18.3125 11.328125 20.140625 9.421875 
Q 21.96875 7.515625 27.59375 7.515625 
L 36.8125 7.515625 
L 36.8125 0 
L 27.59375 0 
Q 17.1875 0 13.234375 3.875 
Q 9.28125 7.765625 9.28125 18.015625 
L 9.28125 47.703125 
L 2.6875 47.703125 
L 2.6875 54.6875 
L 9.28125 54.6875 
L 9.28125 70.21875 
z
" id="DejaVuSans-116"/>
      <path d="M 34.28125 27.484375 
Q 23.390625 27.484375 19.1875 25 
Q 14.984375 22.515625 14.984375 16.5 
Q 14.984375 11.71875 18.140625 8.90625 
Q 21.296875 6.109375 26.703125 6.109375 
Q 34.1875 6.109375 38.703125 11.40625 
Q 43.21875 16.703125 43.21875 25.484375 
L 43.21875 27.484375 
z
M 52.203125 31.203125 
L 52.203125 0 
L 43.21875 0 
L 43.21875 8.296875 
Q 40.140625 3.328125 35.546875 0.953125 
Q 30.953125 -1.421875 24.3125 -1.421875 
Q 15.921875 -1.421875 10.953125 3.296875 
Q 6 8.015625 6 15.921875 
Q 6 25.140625 12.171875 29.828125 
Q 18.359375 34.515625 30.609375 34.515625 
L 43.21875 34.515625 
L 43.21875 35.40625 
Q 43.21875 41.609375 39.140625 45 
Q 35.0625 48.390625 27.6875 48.390625 
Q 23 48.390625 18.546875 47.265625 
Q 14.109375 46.140625 10.015625 43.890625 
L 10.015625 52.203125 
Q 14.9375 54.109375 19.578125 55.046875 
Q 24.21875 56 28.609375 56 
Q 40.484375 56 46.34375 49.84375 
Q 52.203125 43.703125 52.203125 31.203125 
z
" id="DejaVuSans-97"/>
      <path d="M 41.109375 46.296875 
Q 39.59375 47.171875 37.8125 47.578125 
Q 36.03125 48 33.890625 48 
Q 26.265625 48 22.1875 43.046875 
Q 18.109375 38.09375 18.109375 28.8125 
L 18.109375 0 
L 9.078125 0 
L 9.078125 54.6875 
L 18.109375 54.6875 
L 18.109375 46.1875 
Q 20.953125 51.171875 25.484375 53.578125 
Q 30.03125 56 36.53125 56 
Q 37.453125 56 38.578125 55.875 
Q 39.703125 55.765625 41.0625 55.515625 
z
" id="DejaVuSans-114"/>
      <path d="M 44.28125 53.078125 
L 44.28125 44.578125 
Q 40.484375 46.53125 36.375 47.5 
Q 32.28125 48.484375 27.875 48.484375 
Q 21.1875 48.484375 17.84375 46.4375 
Q 14.5 44.390625 14.5 40.28125 
Q 14.5 37.15625 16.890625 35.375 
Q 19.28125 33.59375 26.515625 31.984375 
L 29.59375 31.296875 
Q 39.15625 29.25 43.1875 25.515625 
Q 47.21875 21.78125 47.21875 15.09375 
Q 47.21875 7.46875 41.1875 3.015625 
Q 35.15625 -1.421875 24.609375 -1.421875 
Q 20.21875 -1.421875 15.453125 -0.5625 
Q 10.6875 0.296875 5.421875 2 
L 5.421875 11.28125 
Q 10.40625 8.6875 15.234375 7.390625 
Q 20.0625 6.109375 24.8125 6.109375 
Q 31.15625 6.109375 34.5625 8.28125 
Q 37.984375 10.453125 37.984375 14.40625 
Q 37.984375 18.0625 35.515625 20.015625 
Q 33.0625 21.96875 24.703125 23.78125 
L 21.578125 24.515625 
Q 13.234375 26.265625 9.515625 29.90625 
Q 5.8125 33.546875 5.8125 39.890625 
Q 5.8125 47.609375 11.28125 51.796875 
Q 16.75 56 26.8125 56 
Q 31.78125 56 36.171875 55.265625 
Q 40.578125 54.546875 44.28125 53.078125 
z
" id="DejaVuSans-115"/>
      <path id="DejaVuSans-32"/>
      <path d="M 31 75.875 
Q 24.46875 64.65625 21.28125 53.65625 
Q 18.109375 42.671875 18.109375 31.390625 
Q 18.109375 20.125 21.3125 9.0625 
Q 24.515625 -2 31 -13.1875 
L 23.1875 -13.1875 
Q 15.875 -1.703125 12.234375 9.375 
Q 8.59375 20.453125 8.59375 31.390625 
Q 8.59375 42.28125 12.203125 53.3125 
Q 15.828125 64.359375 23.1875 75.875 
z
" id="DejaVuSans-40"/>
      <path d="M 8.015625 75.875 
L 15.828125 75.875 
Q 23.140625 64.359375 26.78125 53.3125 
Q 30.421875 42.28125 30.421875 31.390625 
Q 30.421875 20.453125 26.78125 9.375 
Q 23.140625 -1.703125 15.828125 -13.1875 
L 8.015625 -13.1875 
Q 14.5 -2 17.703125 9.0625 
Q 20.90625 20.125 20.90625 31.390625 
Q 20.90625 42.671875 17.703125 53.65625 
Q 14.5 64.65625 8.015625 75.875 
z
" id="DejaVuSans-41"/>
     </defs>
     <g transform="translate(199.618594 335.860562)scale(0.1 -0.1)">
      <use xlink:href="#DejaVuSans-104"/>
      <use x="63.378906" xlink:href="#DejaVuSans-101"/>
      <use x="124.902344" xlink:href="#DejaVuSans-99"/>
      <use x="179.882812" xlink:href="#DejaVuSans-116"/>
      <use x="219.091797" xlink:href="#DejaVuSans-97"/>
      <use x="280.371094" xlink:href="#DejaVuSans-114"/>
      <use x="321.453125" xlink:href="#DejaVuSans-101"/>
      <use x="382.976562" xlink:href="#DejaVuSans-97"/>
      <use x="444.255859" xlink:href="#DejaVuSans-115"/>
      <use x="496.355469" xlink:href="#DejaVuSans-32"/>
      <use x="528.142578" xlink:href="#DejaVuSans-40"/>
      <use x="567.15625" xlink:href="#DejaVuSans-104"/>
      <use x="630.535156" xlink:href="#DejaVuSans-97"/>
      <use x="691.814453" xlink:href="#DejaVuSans-41"/>
     </g>
    </g>
   </g>
   <g id="matplotlib.axis_2">
    <g id="ytick_1">
     <g id="line2d_7">
      <defs>
       <path d="M 0 0 
L -3.5 0 
" id="mb2df8a2fbb" style="stroke:#000000;stroke-width:0.8;"/>
      </defs>
      <g>
       <use style="stroke:#000000;stroke-width:0.8;" x="57.6" xlink:href="#mb2df8a2fbb" y="304.233662"/>
      </g>
     </g>
     <g id="text_8">
      <!-- 0 -->
      <g transform="translate(44.2375 308.032881)scale(0.1 -0.1)">
       <use xlink:href="#DejaVuSans-48"/>
      </g>
     </g>
    </g>
    <g id="ytick_2">
     <g id="line2d_8">
      <g>
       <use style="stroke:#000000;stroke-width:0.8;" x="57.6" xlink:href="#mb2df8a2fbb" y="256.76678"/>
      </g>
     </g>
     <g id="text_9">
      <!-- 100 -->
      <g transform="translate(31.5125 260.565998)scale(0.1 -0.1)">
       <use xlink:href="#DejaVuSans-49"/>
       <use x="63.623047" xlink:href="#DejaVuSans-48"/>
       <use x="127.246094" xlink:href="#DejaVuSans-48"/>
      </g>
     </g>
    </g>
    <g id="ytick_3">
     <g id="line2d_9">
      <g>
       <use style="stroke:#000000;stroke-width:0.8;" x="57.6" xlink:href="#mb2df8a2fbb" y="209.299897"/>
      </g>
     </g>
     <g id="text_10">
      <!-- 200 -->
      <g transform="translate(31.5125 213.099116)scale(0.1 -0.1)">
       <use xlink:href="#DejaVuSans-50"/>
       <use x="63.623047" xlink:href="#DejaVuSans-48"/>
       <use x="127.246094" xlink:href="#DejaVuSans-48"/>
      </g>
     </g>
    </g>
    <g id="ytick_4">
     <g id="line2d_10">
      <g>
       <use style="stroke:#000000;stroke-width:0.8;" x="57.6" xlink:href="#mb2df8a2fbb" y="161.833015"/>
      </g>
     </g>
     <g id="text_11">
      <!-- 300 -->
      <defs>
       <path d="M 40.578125 39.3125 
Q 47.65625 37.796875 51.625 33 
Q 55.609375 28.21875 55.609375 21.1875 
Q 55.609375 10.40625 48.1875 4.484375 
Q 40.765625 -1.421875 27.09375 -1.421875 
Q 22.515625 -1.421875 17.65625 -0.515625 
Q 12.796875 0.390625 7.625 2.203125 
L 7.625 11.71875 
Q 11.71875 9.328125 16.59375 8.109375 
Q 21.484375 6.890625 26.8125 6.890625 
Q 36.078125 6.890625 40.9375 10.546875 
Q 45.796875 14.203125 45.796875 21.1875 
Q 45.796875 27.640625 41.28125 31.265625 
Q 36.765625 34.90625 28.71875 34.90625 
L 20.21875 34.90625 
L 20.21875 43.015625 
L 29.109375 43.015625 
Q 36.375 43.015625 40.234375 45.921875 
Q 44.09375 48.828125 44.09375 54.296875 
Q 44.09375 59.90625 40.109375 62.90625 
Q 36.140625 65.921875 28.71875 65.921875 
Q 24.65625 65.921875 20.015625 65.03125 
Q 15.375 64.15625 9.8125 62.3125 
L 9.8125 71.09375 
Q 15.4375 72.65625 20.34375 73.4375 
Q 25.25 74.21875 29.59375 74.21875 
Q 40.828125 74.21875 47.359375 69.109375 
Q 53.90625 64.015625 53.90625 55.328125 
Q 53.90625 49.265625 50.4375 45.09375 
Q 46.96875 40.921875 40.578125 39.3125 
z
" id="DejaVuSans-51"/>
      </defs>
      <g transform="translate(31.5125 165.632233)scale(0.1 -0.1)">
       <use xlink:href="#DejaVuSans-51"/>
       <use x="63.623047" xlink:href="#DejaVuSans-48"/>
       <use x="127.246094" xlink:href="#DejaVuSans-48"/>
      </g>
     </g>
    </g>
    <g id="ytick_5">
     <g id="line2d_11">
      <g>
       <use style="stroke:#000000;stroke-width:0.8;" x="57.6" xlink:href="#mb2df8a2fbb" y="114.366132"/>
      </g>
     </g>
     <g id="text_12">
      <!-- 400 -->
      <defs>
       <path d="M 37.796875 64.3125 
L 12.890625 25.390625 
L 37.796875 25.390625 
z
M 35.203125 72.90625 
L 47.609375 72.90625 
L 47.609375 25.390625 
L 58.015625 25.390625 
L 58.015625 17.1875 
L 47.609375 17.1875 
L 47.609375 0 
L 37.796875 0 
L 37.796875 17.1875 
L 4.890625 17.1875 
L 4.890625 26.703125 
z
" id="DejaVuSans-52"/>
      </defs>
      <g transform="translate(31.5125 118.165351)scale(0.1 -0.1)">
       <use xlink:href="#DejaVuSans-52"/>
       <use x="63.623047" xlink:href="#DejaVuSans-48"/>
       <use x="127.246094" xlink:href="#DejaVuSans-48"/>
      </g>
     </g>
    </g>
    <g id="ytick_6">
     <g id="line2d_12">
      <g>
       <use style="stroke:#000000;stroke-width:0.8;" x="57.6" xlink:href="#mb2df8a2fbb" y="66.89925"/>
      </g>
     </g>
     <g id="text_13">
      <!-- 500 -->
      <g transform="translate(31.5125 70.698468)scale(0.1 -0.1)">
       <use xlink:href="#DejaVuSans-53"/>
       <use x="63.623047" xlink:href="#DejaVuSans-48"/>
       <use x="127.246094" xlink:href="#DejaVuSans-48"/>
      </g>
     </g>
    </g>
    <g id="text_14">
     <!-- número de especies de arboles -->
     <defs>
      <path d="M 54.890625 33.015625 
L 54.890625 0 
L 45.90625 0 
L 45.90625 32.71875 
Q 45.90625 40.484375 42.875 44.328125 
Q 39.84375 48.1875 33.796875 48.1875 
Q 26.515625 48.1875 22.3125 43.546875 
Q 18.109375 38.921875 18.109375 30.90625 
L 18.109375 0 
L 9.078125 0 
L 9.078125 54.6875 
L 18.109375 54.6875 
L 18.109375 46.1875 
Q 21.34375 51.125 25.703125 53.5625 
Q 30.078125 56 35.796875 56 
Q 45.21875 56 50.046875 50.171875 
Q 54.890625 44.34375 54.890625 33.015625 
z
" id="DejaVuSans-110"/>
      <path d="M 8.5 21.578125 
L 8.5 54.6875 
L 17.484375 54.6875 
L 17.484375 21.921875 
Q 17.484375 14.15625 20.5 10.265625 
Q 23.53125 6.390625 29.59375 6.390625 
Q 36.859375 6.390625 41.078125 11.03125 
Q 45.3125 15.671875 45.3125 23.6875 
L 45.3125 54.6875 
L 54.296875 54.6875 
L 54.296875 0 
L 45.3125 0 
L 45.3125 8.40625 
Q 42.046875 3.421875 37.71875 1 
Q 33.40625 -1.421875 27.6875 -1.421875 
Q 18.265625 -1.421875 13.375 4.4375 
Q 8.5 10.296875 8.5 21.578125 
z
M 31.109375 56 
z
M 37.78125 79.984375 
L 47.5 79.984375 
L 31.59375 61.625 
L 24.109375 61.625 
z
" id="DejaVuSans-250"/>
      <path d="M 52 44.1875 
Q 55.375 50.25 60.0625 53.125 
Q 64.75 56 71.09375 56 
Q 79.640625 56 84.28125 50.015625 
Q 88.921875 44.046875 88.921875 33.015625 
L 88.921875 0 
L 79.890625 0 
L 79.890625 32.71875 
Q 79.890625 40.578125 77.09375 44.375 
Q 74.3125 48.1875 68.609375 48.1875 
Q 61.625 48.1875 57.5625 43.546875 
Q 53.515625 38.921875 53.515625 30.90625 
L 53.515625 0 
L 44.484375 0 
L 44.484375 32.71875 
Q 44.484375 40.625 41.703125 44.40625 
Q 38.921875 48.1875 33.109375 48.1875 
Q 26.21875 48.1875 22.15625 43.53125 
Q 18.109375 38.875 18.109375 30.90625 
L 18.109375 0 
L 9.078125 0 
L 9.078125 54.6875 
L 18.109375 54.6875 
L 18.109375 46.1875 
Q 21.1875 51.21875 25.484375 53.609375 
Q 29.78125 56 35.6875 56 
Q 41.65625 56 45.828125 52.96875 
Q 50 49.953125 52 44.1875 
z
" id="DejaVuSans-109"/>
      <path d="M 30.609375 48.390625 
Q 23.390625 48.390625 19.1875 42.75 
Q 14.984375 37.109375 14.984375 27.296875 
Q 14.984375 17.484375 19.15625 11.84375 
Q 23.34375 6.203125 30.609375 6.203125 
Q 37.796875 6.203125 41.984375 11.859375 
Q 46.1875 17.53125 46.1875 27.296875 
Q 46.1875 37.015625 41.984375 42.703125 
Q 37.796875 48.390625 30.609375 48.390625 
z
M 30.609375 56 
Q 42.328125 56 49.015625 48.375 
Q 55.71875 40.765625 55.71875 27.296875 
Q 55.71875 13.875 49.015625 6.21875 
Q 42.328125 -1.421875 30.609375 -1.421875 
Q 18.84375 -1.421875 12.171875 6.21875 
Q 5.515625 13.875 5.515625 27.296875 
Q 5.515625 40.765625 12.171875 48.375 
Q 18.84375 56 30.609375 56 
z
" id="DejaVuSans-111"/>
      <path d="M 45.40625 46.390625 
L 45.40625 75.984375 
L 54.390625 75.984375 
L 54.390625 0 
L 45.40625 0 
L 45.40625 8.203125 
Q 42.578125 3.328125 38.25 0.953125 
Q 33.9375 -1.421875 27.875 -1.421875 
Q 17.96875 -1.421875 11.734375 6.484375 
Q 5.515625 14.40625 5.515625 27.296875 
Q 5.515625 40.1875 11.734375 48.09375 
Q 17.96875 56 27.875 56 
Q 33.9375 56 38.25 53.625 
Q 42.578125 51.265625 45.40625 46.390625 
z
M 14.796875 27.296875 
Q 14.796875 17.390625 18.875 11.75 
Q 22.953125 6.109375 30.078125 6.109375 
Q 37.203125 6.109375 41.296875 11.75 
Q 45.40625 17.390625 45.40625 27.296875 
Q 45.40625 37.203125 41.296875 42.84375 
Q 37.203125 48.484375 30.078125 48.484375 
Q 22.953125 48.484375 18.875 42.84375 
Q 14.796875 37.203125 14.796875 27.296875 
z
" id="DejaVuSans-100"/>
      <path d="M 18.109375 8.203125 
L 18.109375 -20.796875 
L 9.078125 -20.796875 
L 9.078125 54.6875 
L 18.109375 54.6875 
L 18.109375 46.390625 
Q 20.953125 51.265625 25.265625 53.625 
Q 29.59375 56 35.59375 56 
Q 45.5625 56 51.78125 48.09375 
Q 58.015625 40.1875 58.015625 27.296875 
Q 58.015625 14.40625 51.78125 6.484375 
Q 45.5625 -1.421875 35.59375 -1.421875 
Q 29.59375 -1.421875 25.265625 0.953125 
Q 20.953125 3.328125 18.109375 8.203125 
z
M 48.6875 27.296875 
Q 48.6875 37.203125 44.609375 42.84375 
Q 40.53125 48.484375 33.40625 48.484375 
Q 26.265625 48.484375 22.1875 42.84375 
Q 18.109375 37.203125 18.109375 27.296875 
Q 18.109375 17.390625 22.1875 11.75 
Q 26.265625 6.109375 33.40625 6.109375 
Q 40.53125 6.109375 44.609375 11.75 
Q 48.6875 17.390625 48.6875 27.296875 
z
" id="DejaVuSans-112"/>
      <path d="M 9.421875 54.6875 
L 18.40625 54.6875 
L 18.40625 0 
L 9.421875 0 
z
M 9.421875 75.984375 
L 18.40625 75.984375 
L 18.40625 64.59375 
L 9.421875 64.59375 
z
" id="DejaVuSans-105"/>
      <path d="M 48.6875 27.296875 
Q 48.6875 37.203125 44.609375 42.84375 
Q 40.53125 48.484375 33.40625 48.484375 
Q 26.265625 48.484375 22.1875 42.84375 
Q 18.109375 37.203125 18.109375 27.296875 
Q 18.109375 17.390625 22.1875 11.75 
Q 26.265625 6.109375 33.40625 6.109375 
Q 40.53125 6.109375 44.609375 11.75 
Q 48.6875 17.390625 48.6875 27.296875 
z
M 18.109375 46.390625 
Q 20.953125 51.265625 25.265625 53.625 
Q 29.59375 56 35.59375 56 
Q 45.5625 56 51.78125 48.09375 
Q 58.015625 40.1875 58.015625 27.296875 
Q 58.015625 14.40625 51.78125 6.484375 
Q 45.5625 -1.421875 35.59375 -1.421875 
Q 29.59375 -1.421875 25.265625 0.953125 
Q 20.953125 3.328125 18.109375 8.203125 
L 18.109375 0 
L 9.078125 0 
L 9.078125 75.984375 
L 18.109375 75.984375 
z
" id="DejaVuSans-98"/>
      <path d="M 9.421875 75.984375 
L 18.40625 75.984375 
L 18.40625 0 
L 9.421875 0 
z
" id="DejaVuSans-108"/>
     </defs>
     <g transform="translate(25.432812 252.958469)rotate(-90)scale(0.1 -0.1)">
      <use xlink:href="#DejaVuSans-110"/>
      <use x="63.378906" xlink:href="#DejaVuSans-250"/>
      <use x="126.757812" xlink:href="#DejaVuSans-109"/>
      <use x="224.169922" xlink:href="#DejaVuSans-101"/>
      <use x="285.693359" xlink:href="#DejaVuSans-114"/>
      <use x="326.775391" xlink:href="#DejaVuSans-111"/>
      <use x="387.957031" xlink:href="#DejaVuSans-32"/>
      <use x="419.744141" xlink:href="#DejaVuSans-100"/>
      <use x="483.220703" xlink:href="#DejaVuSans-101"/>
      <use x="544.744141" xlink:href="#DejaVuSans-32"/>
      <use x="576.53125" xlink:href="#DejaVuSans-101"/>
      <use x="638.054688" xlink:href="#DejaVuSans-115"/>
      <use x="690.154297" xlink:href="#DejaVuSans-112"/>
      <use x="753.630859" xlink:href="#DejaVuSans-101"/>
      <use x="815.154297" xlink:href="#DejaVuSans-99"/>
      <use x="870.134766" xlink:href="#DejaVuSans-105"/>
      <use x="897.917969" xlink:href="#DejaVuSans-101"/>
      <use x="959.441406" xlink:href="#DejaVuSans-115"/>
      <use x="1011.541016" xlink:href="#DejaVuSans-32"/>
      <use x="1043.328125" xlink:href="#DejaVuSans-100"/>
      <use x="1106.804688" xlink:href="#DejaVuSans-101"/>
      <use x="1168.328125" xlink:href="#DejaVuSans-32"/>
      <use x="1200.115234" xlink:href="#DejaVuSans-97"/>
      <use x="1261.394531" xlink:href="#DejaVuSans-114"/>
      <use x="1302.507812" xlink:href="#DejaVuSans-98"/>
      <use x="1365.984375" xlink:href="#DejaVuSans-111"/>
      <use x="1427.166016" xlink:href="#DejaVuSans-108"/>
      <use x="1454.949219" xlink:href="#DejaVuSans-101"/>
      <use x="1516.472656" xlink:href="#DejaVuSans-115"/>
     </g>
    </g>
   </g>
   <g id="LineCollection_1">
    <path clip-path="url(#p1daeb8b02f)" d="M 69.12 66.89925 
L 415.872 66.89925 
" style="fill:none;stroke:#000000;stroke-dasharray:5.55,2.4;stroke-dashoffset:0;stroke-width:1.5;"/>
   </g>
   <g id="line2d_13">
    <path clip-path="url(#p1daeb8b02f)" d="M 69.12 292.872736 
L 70.272 283.375988 
L 71.424 275.223668 
L 72.576 268.084694 
L 73.728 261.735724 
L 74.88 256.01868 
L 76.032 250.81734 
L 77.184 246.043717 
L 78.336 241.629659 
L 79.488 237.521416 
L 80.64 233.675959 
L 81.792 230.058401 
L 82.944 226.640139 
L 84.096 223.397489 
L 85.248 220.310663 
L 86.4 217.36299 
L 87.552 214.540321 
L 88.704 211.830562 
L 89.856 209.223307 
L 91.008 206.709554 
L 92.16 204.281466 
L 93.312 201.932192 
L 94.464 199.655708 
L 95.616 197.446696 
L 96.768 195.300442 
L 97.92 193.212749 
L 99.072 191.179867 
L 100.224 189.198434 
L 101.376 187.265421 
L 102.528 185.378095 
L 103.68 183.533979 
L 104.832 181.730823 
L 105.984 179.966572 
L 107.136 178.23935 
L 108.288 176.547435 
L 109.44 174.889242 
L 110.592 173.263311 
L 111.744 171.668291 
L 112.896 170.102928 
L 114.048 168.56606 
L 115.2 167.0566 
L 116.352 165.573536 
L 117.504 164.11592 
L 118.656 162.682864 
L 119.808 161.273534 
L 120.96 159.887144 
L 122.112 158.522953 
L 123.264 157.180262 
L 124.416 155.858412 
L 125.568 154.556775 
L 126.72 153.274759 
L 127.872 152.011801 
L 129.024 150.767364 
L 130.176 149.54094 
L 131.328 148.332044 
L 132.48 147.140214 
L 133.632 145.965006 
L 134.784 144.806002 
L 135.936 143.662796 
L 137.088 142.535003 
L 138.24 141.422255 
" style="fill:none;stroke:#008000;stroke-linecap:square;stroke-width:1.5;"/>
   </g>
   <g id="line2d_14">
    <path clip-path="url(#p1daeb8b02f)" d="M 139.392 141.330752 
L 144 137.478845 
L 149.76 132.983391 
L 155.52 128.803163 
L 161.28 124.902299 
L 167.04 121.250552 
L 173.952 117.161316 
L 180.864 113.356285 
L 187.776 109.803822 
L 194.688 106.477092 
L 202.752 102.850785 
L 210.816 99.469595 
L 220.032 95.871956 
L 229.248 92.527018 
L 238.464 89.406771 
L 248.832 86.13555 
L 259.2 83.089848 
L 270.72 79.940656 
L 282.24 77.011431 
L 294.912 74.014764 
L 308.736 70.984399 
L 322.56 68.174461 
L 337.536 65.350287 
L 353.664 62.534947 
L 370.944 59.747746 
L 389.376 57.004481 
L 408.96 54.317764 
L 414.72 53.568 
L 414.72 53.568 
" style="fill:none;stroke:#008000;stroke-dasharray:1.5,2.475;stroke-dashoffset:0;stroke-width:1.5;"/>
   </g>
   <g id="patch_3">
    <path d="M 57.6 307.584 
L 57.6 41.472 
" style="fill:none;stroke:#000000;stroke-linecap:square;stroke-linejoin:miter;stroke-width:0.8;"/>
   </g>
   <g id="patch_4">
    <path d="M 414.72 307.584 
L 414.72 41.472 
" style="fill:none;stroke:#000000;stroke-linecap:square;stroke-linejoin:miter;stroke-width:0.8;"/>
   </g>
   <g id="patch_5">
    <path d="M 57.6 307.584 
L 414.72 307.584 
" style="fill:none;stroke:#000000;stroke-linecap:square;stroke-linejoin:miter;stroke-width:0.8;"/>
   </g>
   <g id="patch_6">
    <path d="M 57.6 41.472 
L 414.72 41.472 
" style="fill:none;stroke:#000000;stroke-linecap:square;stroke-linejoin:miter;stroke-width:0.8;"/>
   </g>
  </g>
 </g>
 <defs>
  <clipPath id="p1daeb8b02f">
   <rect height="266.112" width="357.12" x="57.6" y="41.472"/>
  </clipPath>
 </defs>
</svg>
