<?xml version="1.0" encoding="utf-8" standalone="no"?>
<!DOCTYPE svg PUBLIC "-//W3C//DTD SVG 1.1//EN"
  "http://www.w3.org/Graphics/SVG/1.1/DTD/svg11.dtd">
<!-- Created with matplotlib (https://matplotlib.org/) -->
<svg height="345.6pt" version="1.1" viewBox="0 0 460.8 345.6" width="460.8pt" xmlns="http://www.w3.org/2000/svg" xmlns:xlink="http://www.w3.org/1999/xlink">
 <defs>
  <style type="text/css">
*{stroke-linecap:butt;stroke-linejoin:round;}
  </style>
 </defs>
 <g id="figure_1">
  <g id="patch_1">
   <path d="M 0 345.6 
L 460.8 345.6 
L 460.8 0 
L 0 0 
z
" style="fill:#ffffff;"/>
  </g>
  <g id="axes_1">
   <g id="patch_2">
    <path d="M 57.6 307.584 
L 414.72 307.584 
L 414.72 41.472 
L 57.6 41.472 
z
" style="fill:#ffffff;"/>
   </g>
   <g id="PolyCollection_1">
    <defs>
     <path d="M 69.12 -55.342528 
L 69.12 -50.112 
L 70.272 -58.96374 
L 71.424 -66.77989 
L 72.576 -73.715804 
L 73.728 -79.9313 
L 74.88 -85.55552 
L 76.032 -90.689835 
L 77.184 -95.414 
L 78.336 -99.79132 
L 79.488 -103.872547 
L 80.64 -107.698768 
L 81.792 -111.303559 
L 82.944 -114.714604 
L 84.096 -117.954917 
L 85.248 -121.043785 
L 86.4 -123.997488 
L 87.552 -126.82987 
L 88.704 -129.552776 
L 89.856 -132.176406 
L 91.008 -134.709591 
L 92.16 -137.160023 
L 93.312 -139.53443 
L 94.464 -141.838729 
L 95.616 -144.078148 
L 96.768 -146.257323 
L 97.92 -148.380382 
L 99.072 -150.451021 
L 100.224 -152.472555 
L 101.376 -154.447975 
L 102.528 -156.379985 
L 103.68 -158.271044 
L 104.832 -160.123391 
L 105.984 -161.939078 
L 107.136 -163.71999 
L 108.288 -165.467868 
L 109.44 -167.184324 
L 110.592 -168.870859 
L 111.744 -170.528875 
L 112.896 -172.159691 
L 114.048 -173.764551 
L 115.2 -175.344639 
L 116.352 -176.901083 
L 117.504 -178.43497 
L 118.656 -179.947353 
L 119.808 -181.439263 
L 120.96 -182.911719 
L 122.112 -184.365739 
L 123.264 -185.802357 
L 124.416 -187.22264 
L 125.568 -188.627712 
L 126.72 -190.018785 
L 127.872 -191.397207 
L 129.024 -192.764525 
L 130.176 -194.122593 
L 131.328 -195.473745 
L 132.48 -196.821108 
L 133.632 -198.169219 
L 134.784 -199.525484 
L 135.936 -200.903135 
L 137.088 -202.341363 
L 138.24 -204.177745 
L 138.24 -204.177745 
L 138.24 -204.177745 
L 137.088 -203.78863 
L 135.936 -202.971274 
L 134.784 -202.062513 
L 133.632 -201.100768 
L 132.48 -200.098465 
L 131.328 -199.062166 
L 130.176 -197.995526 
L 129.024 -196.900747 
L 127.872 -195.779191 
L 126.72 -194.631696 
L 125.568 -193.458737 
L 124.416 -192.260536 
L 123.264 -191.037118 
L 122.112 -189.788356 
L 120.96 -188.513994 
L 119.808 -187.213669 
L 118.656 -185.886918 
L 117.504 -184.53319 
L 116.352 -183.151846 
L 115.2 -181.742162 
L 114.048 -180.303329 
L 112.896 -178.834452 
L 111.744 -177.334543 
L 110.592 -175.802519 
L 109.44 -174.237191 
L 108.288 -172.637262 
L 107.136 -171.001309 
L 105.984 -169.327778 
L 104.832 -167.614964 
L 103.68 -165.860998 
L 102.528 -164.063825 
L 101.376 -162.221183 
L 100.224 -160.330577 
L 99.072 -158.389244 
L 97.92 -156.394119 
L 96.768 -154.341793 
L 95.616 -152.22846 
L 94.464 -150.049855 
L 93.312 -147.801186 
L 92.16 -145.477045 
L 91.008 -143.071302 
L 89.856 -140.57698 
L 88.704 -137.986101 
L 87.552 -135.289487 
L 86.4 -132.476531 
L 85.248 -129.534889 
L 84.096 -126.450104 
L 82.944 -123.205117 
L 81.792 -119.779638 
L 80.64 -116.149313 
L 79.488 -112.284621 
L 78.336 -108.149362 
L 77.184 -103.698566 
L 76.032 -98.875484 
L 74.88 -93.607121 
L 73.728 -87.797252 
L 72.576 -81.314808 
L 71.424 -73.972774 
L 70.272 -65.484285 
L 69.12 -55.342528 
z
" id="m59c63c2a52" style="stroke:#008000;stroke-opacity:0.4;"/>
    </defs>
    <g clip-path="url(#p1c13d9bfeb)">
     <use style="fill:#008000;fill-opacity:0.4;stroke:#008000;stroke-opacity:0.4;" x="0" xlink:href="#m59c63c2a52" y="345.6"/>
    </g>
   </g>
   <g id="matplotlib.axis_1">
    <g id="xtick_1">
     <g id="line2d_1">
      <defs>
       <path d="M 0 0 
L 0 3.5 
" id="m77970f04c6" style="stroke:#000000;stroke-width:0.8;"/>
      </defs>
      <g>
       <use style="stroke:#000000;stroke-width:0.8;" x="69.12" xlink:href="#m77970f04c6" y="307.584"/>
      </g>
     </g>
     <g id="text_1">
      <!-- 0 -->
      <defs>
       <path d="M 31.78125 66.40625 
Q 24.171875 66.40625 20.328125 58.90625 
Q 16.5 51.421875 16.5 36.375 
Q 16.5 21.390625 20.328125 13.890625 
Q 24.171875 6.390625 31.78125 6.390625 
Q 39.453125 6.390625 43.28125 13.890625 
Q 47.125 21.390625 47.125 36.375 
Q 47.125 51.421875 43.28125 58.90625 
Q 39.453125 66.40625 31.78125 66.40625 
z
M 31.78125 74.21875 
Q 44.046875 74.21875 50.515625 64.515625 
Q 56.984375 54.828125 56.984375 36.375 
Q 56.984375 17.96875 50.515625 8.265625 
Q 44.046875 -1.421875 31.78125 -1.421875 
Q 19.53125 -1.421875 13.0625 8.265625 
Q 6.59375 17.96875 6.59375 36.375 
Q 6.59375 54.828125 13.0625 64.515625 
Q 19.53125 74.21875 31.78125 74.21875 
z
" id="DejaVuSans-48"/>
      </defs>
      <g transform="translate(65.93875 322.182437)scale(0.1 -0.1)">
       <use xlink:href="#DejaVuSans-48"/>
      </g>
     </g>
    </g>
    <g id="xtick_2">
     <g id="line2d_2">
      <g>
       <use style="stroke:#000000;stroke-width:0.8;" x="126.72" xlink:href="#m77970f04c6" y="307.584"/>
      </g>
     </g>
     <g id="text_2">
      <!-- 50 -->
      <defs>
       <path d="M 10.796875 72.90625 
L 49.515625 72.90625 
L 49.515625 64.59375 
L 19.828125 64.59375 
L 19.828125 46.734375 
Q 21.96875 47.46875 24.109375 47.828125 
Q 26.265625 48.1875 28.421875 48.1875 
Q 40.625 48.1875 47.75 41.5 
Q 54.890625 34.8125 54.890625 23.390625 
Q 54.890625 11.625 47.5625 5.09375 
Q 40.234375 -1.421875 26.90625 -1.421875 
Q 22.3125 -1.421875 17.546875 -0.640625 
Q 12.796875 0.140625 7.71875 1.703125 
L 7.71875 11.625 
Q 12.109375 9.234375 16.796875 8.0625 
Q 21.484375 6.890625 26.703125 6.890625 
Q 35.15625 6.890625 40.078125 11.328125 
Q 45.015625 15.765625 45.015625 23.390625 
Q 45.015625 31 40.078125 35.4375 
Q 35.15625 39.890625 26.703125 39.890625 
Q 22.75 39.890625 18.8125 39.015625 
Q 14.890625 38.140625 10.796875 36.28125 
z
" id="DejaVuSans-53"/>
      </defs>
      <g transform="translate(120.3575 322.182437)scale(0.1 -0.1)">
       <use xlink:href="#DejaVuSans-53"/>
       <use x="63.623047" xlink:href="#DejaVuSans-48"/>
      </g>
     </g>
    </g>
    <g id="xtick_3">
     <g id="line2d_3">
      <g>
       <use style="stroke:#000000;stroke-width:0.8;" x="184.32" xlink:href="#m77970f04c6" y="307.584"/>
      </g>
     </g>
     <g id="text_3">
      <!-- 100 -->
      <defs>
       <path d="M 12.40625 8.296875 
L 28.515625 8.296875 
L 28.515625 63.921875 
L 10.984375 60.40625 
L 10.984375 69.390625 
L 28.421875 72.90625 
L 38.28125 72.90625 
L 38.28125 8.296875 
L 54.390625 8.296875 
L 54.390625 0 
L 12.40625 0 
z
" id="DejaVuSans-49"/>
      </defs>
      <g transform="translate(174.77625 322.182437)scale(0.1 -0.1)">
       <use xlink:href="#DejaVuSans-49"/>
       <use x="63.623047" xlink:href="#DejaVuSans-48"/>
       <use x="127.246094" xlink:href="#DejaVuSans-48"/>
      </g>
     </g>
    </g>
    <g id="xtick_4">
     <g id="line2d_4">
      <g>
       <use style="stroke:#000000;stroke-width:0.8;" x="241.92" xlink:href="#m77970f04c6" y="307.584"/>
      </g>
     </g>
     <g id="text_4">
      <!-- 150 -->
      <g transform="translate(232.37625 322.182437)scale(0.1 -0.1)">
       <use xlink:href="#DejaVuSans-49"/>
       <use x="63.623047" xlink:href="#DejaVuSans-53"/>
       <use x="127.246094" xlink:href="#DejaVuSans-48"/>
      </g>
     </g>
    </g>
    <g id="xtick_5">
     <g id="line2d_5">
      <g>
       <use style="stroke:#000000;stroke-width:0.8;" x="299.52" xlink:href="#m77970f04c6" y="307.584"/>
      </g>
     </g>
     <g id="text_5">
      <!-- 200 -->
      <defs>
       <path d="M 19.1875 8.296875 
L 53.609375 8.296875 
L 53.609375 0 
L 7.328125 0 
L 7.328125 8.296875 
Q 12.9375 14.109375 22.625 23.890625 
Q 32.328125 33.6875 34.8125 36.53125 
Q 39.546875 41.84375 41.421875 45.53125 
Q 43.3125 49.21875 43.3125 52.78125 
Q 43.3125 58.59375 39.234375 62.25 
Q 35.15625 65.921875 28.609375 65.921875 
Q 23.96875 65.921875 18.8125 64.3125 
Q 13.671875 62.703125 7.8125 59.421875 
L 7.8125 69.390625 
Q 13.765625 71.78125 18.9375 73 
Q 24.125 74.21875 28.421875 74.21875 
Q 39.75 74.21875 46.484375 68.546875 
Q 53.21875 62.890625 53.21875 53.421875 
Q 53.21875 48.921875 51.53125 44.890625 
Q 49.859375 40.875 45.40625 35.40625 
Q 44.1875 33.984375 37.640625 27.21875 
Q 31.109375 20.453125 19.1875 8.296875 
z
" id="DejaVuSans-50"/>
      </defs>
      <g transform="translate(289.97625 322.182437)scale(0.1 -0.1)">
       <use xlink:href="#DejaVuSans-50"/>
       <use x="63.623047" xlink:href="#DejaVuSans-48"/>
       <use x="127.246094" xlink:href="#DejaVuSans-48"/>
      </g>
     </g>
    </g>
    <g id="xtick_6">
     <g id="line2d_6">
      <g>
       <use style="stroke:#000000;stroke-width:0.8;" x="357.12" xlink:href="#m77970f04c6" y="307.584"/>
      </g>
     </g>
     <g id="text_6">
      <!-- 250 -->
      <g transform="translate(347.57625 322.182437)scale(0.1 -0.1)">
       <use xlink:href="#DejaVuSans-50"/>
       <use x="63.623047" xlink:href="#DejaVuSans-53"/>
       <use x="127.246094" xlink:href="#DejaVuSans-48"/>
      </g>
     </g>
    </g>
    <g id="xtick_7">
     <g id="line2d_7">
      <g>
       <use style="stroke:#000000;stroke-width:0.8;" x="414.72" xlink:href="#m77970f04c6" y="307.584"/>
      </g>
     </g>
     <g id="text_7">
      <!-- 300 -->
      <defs>
       <path d="M 40.578125 39.3125 
Q 47.65625 37.796875 51.625 33 
Q 55.609375 28.21875 55.609375 21.1875 
Q 55.609375 10.40625 48.1875 4.484375 
Q 40.765625 -1.421875 27.09375 -1.421875 
Q 22.515625 -1.421875 17.65625 -0.515625 
Q 12.796875 0.390625 7.625 2.203125 
L 7.625 11.71875 
Q 11.71875 9.328125 16.59375 8.109375 
Q 21.484375 6.890625 26.8125 6.890625 
Q 36.078125 6.890625 40.9375 10.546875 
Q 45.796875 14.203125 45.796875 21.1875 
Q 45.796875 27.640625 41.28125 31.265625 
Q 36.765625 34.90625 28.71875 34.90625 
L 20.21875 34.90625 
L 20.21875 43.015625 
L 29.109375 43.015625 
Q 36.375 43.015625 40.234375 45.921875 
Q 44.09375 48.828125 44.09375 54.296875 
Q 44.09375 59.90625 40.109375 62.90625 
Q 36.140625 65.921875 28.71875 65.921875 
Q 24.65625 65.921875 20.015625 65.03125 
Q 15.375 64.15625 9.8125 62.3125 
L 9.8125 71.09375 
Q 15.4375 72.65625 20.34375 73.4375 
Q 25.25 74.21875 29.59375 74.21875 
Q 40.828125 74.21875 47.359375 69.109375 
Q 53.90625 64.015625 53.90625 55.328125 
Q 53.90625 49.265625 50.4375 45.09375 
Q 46.96875 40.921875 40.578125 39.3125 
z
" id="DejaVuSans-51"/>
      </defs>
      <g transform="translate(405.17625 322.182437)scale(0.1 -0.1)">
       <use xlink:href="#DejaVuSans-51"/>
       <use x="63.623047" xlink:href="#DejaVuSans-48"/>
       <use x="127.246094" xlink:href="#DejaVuSans-48"/>
      </g>
     </g>
    </g>
   </g>
   <g id="matplotlib.axis_2">
    <g id="ytick_1">
     <g id="line2d_8">
      <defs>
       <path d="M 0 0 
L -3.5 0 
" id="md3bbf744f9" style="stroke:#000000;stroke-width:0.8;"/>
      </defs>
      <g>
       <use style="stroke:#000000;stroke-width:0.8;" x="57.6" xlink:href="#md3bbf744f9" y="304.233662"/>
      </g>
     </g>
     <g id="text_8">
      <!-- 0 -->
      <g transform="translate(44.2375 308.032881)scale(0.1 -0.1)">
       <use xlink:href="#DejaVuSans-48"/>
      </g>
     </g>
    </g>
    <g id="ytick_2">
     <g id="line2d_9">
      <g>
       <use style="stroke:#000000;stroke-width:0.8;" x="57.6" xlink:href="#md3bbf744f9" y="256.76678"/>
      </g>
     </g>
     <g id="text_9">
      <!-- 100 -->
      <g transform="translate(31.5125 260.565998)scale(0.1 -0.1)">
       <use xlink:href="#DejaVuSans-49"/>
       <use x="63.623047" xlink:href="#DejaVuSans-48"/>
       <use x="127.246094" xlink:href="#DejaVuSans-48"/>
      </g>
     </g>
    </g>
    <g id="ytick_3">
     <g id="line2d_10">
      <g>
       <use style="stroke:#000000;stroke-width:0.8;" x="57.6" xlink:href="#md3bbf744f9" y="209.299897"/>
      </g>
     </g>
     <g id="text_10">
      <!-- 200 -->
      <g transform="translate(31.5125 213.099116)scale(0.1 -0.1)">
       <use xlink:href="#DejaVuSans-50"/>
       <use x="63.623047" xlink:href="#DejaVuSans-48"/>
       <use x="127.246094" xlink:href="#DejaVuSans-48"/>
      </g>
     </g>
    </g>
    <g id="ytick_4">
     <g id="line2d_11">
      <g>
       <use style="stroke:#000000;stroke-width:0.8;" x="57.6" xlink:href="#md3bbf744f9" y="161.833015"/>
      </g>
     </g>
     <g id="text_11">
      <!-- 300 -->
      <g transform="translate(31.5125 165.632233)scale(0.1 -0.1)">
       <use xlink:href="#DejaVuSans-51"/>
       <use x="63.623047" xlink:href="#DejaVuSans-48"/>
       <use x="127.246094" xlink:href="#DejaVuSans-48"/>
      </g>
     </g>
    </g>
    <g id="ytick_5">
     <g id="line2d_12">
      <g>
       <use style="stroke:#000000;stroke-width:0.8;" x="57.6" xlink:href="#md3bbf744f9" y="114.366132"/>
      </g>
     </g>
     <g id="text_12">
      <!-- 400 -->
      <defs>
       <path d="M 37.796875 64.3125 
L 12.890625 25.390625 
L 37.796875 25.390625 
z
M 35.203125 72.90625 
L 47.609375 72.90625 
L 47.609375 25.390625 
L 58.015625 25.390625 
L 58.015625 17.1875 
L 47.609375 17.1875 
L 47.609375 0 
L 37.796875 0 
L 37.796875 17.1875 
L 4.890625 17.1875 
L 4.890625 26.703125 
z
" id="DejaVuSans-52"/>
      </defs>
      <g transform="translate(31.5125 118.165351)scale(0.1 -0.1)">
       <use xlink:href="#DejaVuSans-52"/>
       <use x="63.623047" xlink:href="#DejaVuSans-48"/>
       <use x="127.246094" xlink:href="#DejaVuSans-48"/>
      </g>
     </g>
    </g>
    <g id="ytick_6">
     <g id="line2d_13">
      <g>
       <use style="stroke:#000000;stroke-width:0.8;" x="57.6" xlink:href="#md3bbf744f9" y="66.89925"/>
      </g>
     </g>
     <g id="text_13">
      <!-- 500 -->
      <g transform="translate(31.5125 70.698468)scale(0.1 -0.1)">
       <use xlink:href="#DejaVuSans-53"/>
       <use x="63.623047" xlink:href="#DejaVuSans-48"/>
       <use x="127.246094" xlink:href="#DejaVuSans-48"/>
      </g>
     </g>
    </g>
   </g>
   <g id="LineCollection_1">
    <path clip-path="url(#p1c13d9bfeb)" d="M 69.12 66.89925 
L 415.872 66.89925 
" style="fill:none;stroke:#000000;stroke-dasharray:5.55,2.4;stroke-dashoffset:0;stroke-width:1.5;"/>
   </g>
   <g id="line2d_14">
    <path clip-path="url(#p1c13d9bfeb)" d="M 69.12 292.872736 
L 70.272 283.375988 
L 71.424 275.223668 
L 72.576 268.084694 
L 73.728 261.735724 
L 74.88 256.01868 
L 76.032 250.81734 
L 77.184 246.043717 
L 78.336 241.629659 
L 79.488 237.521416 
L 80.64 233.675959 
L 81.792 230.058401 
L 82.944 226.640139 
L 84.096 223.397489 
L 85.248 220.310663 
L 86.4 217.36299 
L 87.552 214.540321 
L 88.704 211.830562 
L 89.856 209.223307 
L 91.008 206.709554 
L 92.16 204.281466 
L 93.312 201.932192 
L 94.464 199.655708 
L 95.616 197.446696 
L 96.768 195.300442 
L 97.92 193.212749 
L 99.072 191.179867 
L 100.224 189.198434 
L 101.376 187.265421 
L 102.528 185.378095 
L 103.68 183.533979 
L 104.832 181.730823 
L 105.984 179.966572 
L 107.136 178.23935 
L 108.288 176.547435 
L 109.44 174.889242 
L 110.592 173.263311 
L 111.744 171.668291 
L 112.896 170.102928 
L 114.048 168.56606 
L 115.2 167.0566 
L 116.352 165.573536 
L 117.504 164.11592 
L 118.656 162.682864 
L 119.808 161.273534 
L 120.96 159.887144 
L 122.112 158.522953 
L 123.264 157.180262 
L 124.416 155.858412 
L 125.568 154.556775 
L 126.72 153.274759 
L 127.872 152.011801 
L 129.024 150.767364 
L 130.176 149.54094 
L 131.328 148.332044 
L 132.48 147.140214 
L 133.632 145.965006 
L 134.784 144.806002 
L 135.936 143.662796 
L 137.088 142.535003 
L 138.24 141.422255 
" style="fill:none;stroke:#008000;stroke-linecap:square;stroke-width:1.5;"/>
   </g>
   <g id="line2d_15">
    <path clip-path="url(#p1c13d9bfeb)" d="M 139.392 141.330752 
L 144 137.478845 
L 149.76 132.983391 
L 155.52 128.803163 
L 161.28 124.902299 
L 167.04 121.250552 
L 173.952 117.161316 
L 180.864 113.356285 
L 187.776 109.803822 
L 194.688 106.477092 
L 202.752 102.850785 
L 210.816 99.469595 
L 220.032 95.871956 
L 229.248 92.527018 
L 238.464 89.406771 
L 248.832 86.13555 
L 259.2 83.089848 
L 270.72 79.940656 
L 282.24 77.011431 
L 294.912 74.014764 
L 308.736 70.984399 
L 322.56 68.174461 
L 337.536 65.350287 
L 353.664 62.534947 
L 370.944 59.747746 
L 389.376 57.004481 
L 408.96 54.317764 
L 414.72 53.568 
L 414.72 53.568 
" style="fill:none;stroke:#008000;stroke-dasharray:1.5,2.475;stroke-dashoffset:0;stroke-width:1.5;"/>
   </g>
   <g id="patch_3">
    <path d="M 57.6 307.584 
L 57.6 41.472 
" style="fill:none;stroke:#000000;stroke-linecap:square;stroke-linejoin:miter;stroke-width:0.8;"/>
   </g>
   <g id="patch_4">
    <path d="M 414.72 307.584 
L 414.72 41.472 
" style="fill:none;stroke:#000000;stroke-linecap:square;stroke-linejoin:miter;stroke-width:0.8;"/>
   </g>
   <g id="patch_5">
    <path d="M 57.6 307.584 
L 414.72 307.584 
" style="fill:none;stroke:#000000;stroke-linecap:square;stroke-linejoin:miter;stroke-width:0.8;"/>
   </g>
   <g id="patch_6">
    <path d="M 57.6 41.472 
L 414.72 41.472 
" style="fill:none;stroke:#000000;stroke-linecap:square;stroke-linejoin:miter;stroke-width:0.8;"/>
   </g>
  </g>
 </g>
 <defs>
  <clipPath id="p1c13d9bfeb">
   <rect height="266.112" width="357.12" x="57.6" y="41.472"/>
  </clipPath>
 </defs>
</svg>
